<svg width="143" height="150" viewBox="0 0 143 150" fill="none" xmlns="http://www.w3.org/2000/svg">
<path d="M1.57031 18V6.57812H2.89844V16.7969H7.9375V18H1.57031ZM11.1344 18H9.8375V9.4375H11.1344V18ZM9.72812 7.11719C9.72812 6.82031 9.80104 6.60417 9.94687 6.46875C10.0927 6.32812 10.275 6.25781 10.4937 6.25781C10.7021 6.25781 10.8818 6.32812 11.0328 6.46875C11.1839 6.60938 11.2594 6.82552 11.2594 7.11719C11.2594 7.40885 11.1839 7.6276 11.0328 7.77344C10.8818 7.91406 10.7021 7.98438 10.4937 7.98438C10.275 7.98438 10.0927 7.91406 9.94687 7.77344C9.80104 7.6276 9.72812 7.40885 9.72812 7.11719ZM19.5578 15.6641C19.5578 16.4609 19.2609 17.0755 18.6672 17.5078C18.0734 17.9401 17.2401 18.1562 16.1672 18.1562C15.0318 18.1562 14.1464 17.9766 13.5109 17.6172V16.4141C13.9224 16.6224 14.3625 16.7865 14.8313 16.9062C15.3052 17.026 15.7609 17.0859 16.1984 17.0859C16.8755 17.0859 17.3964 16.9792 17.7609 16.7656C18.1255 16.5469 18.3078 16.2161 18.3078 15.7734C18.3078 15.4401 18.162 15.1562 17.8703 14.9219C17.5839 14.6823 17.0214 14.401 16.1828 14.0781C15.3859 13.7812 14.8182 13.5234 14.4797 13.3047C14.1464 13.0807 13.8964 12.8281 13.7297 12.5469C13.5682 12.2656 13.4875 11.9297 13.4875 11.5391C13.4875 10.8411 13.7714 10.2917 14.3391 9.89062C14.9068 9.48438 15.6854 9.28125 16.675 9.28125C17.5969 9.28125 18.4979 9.46875 19.3781 9.84375L18.9172 10.8984C18.0578 10.5443 17.2792 10.3672 16.5813 10.3672C15.9667 10.3672 15.5031 10.4635 15.1906 10.6562C14.8781 10.849 14.7219 11.1146 14.7219 11.4531C14.7219 11.6823 14.7792 11.8776 14.8938 12.0391C15.0135 12.2005 15.2036 12.3542 15.4641 12.5C15.7245 12.6458 16.2245 12.8568 16.9641 13.1328C17.9797 13.5026 18.6646 13.875 19.0188 14.25C19.3781 14.625 19.5578 15.0964 19.5578 15.6641ZM24.5906 17.0859C24.8198 17.0859 25.0411 17.0703 25.2547 17.0391C25.4682 17.0026 25.6375 16.9661 25.7625 16.9297V17.9219C25.6219 17.9896 25.4135 18.0443 25.1375 18.0859C24.8667 18.1328 24.6219 18.1562 24.4031 18.1562C22.7469 18.1562 21.9188 17.2839 21.9188 15.5391V10.4453H20.6922V9.82031L21.9188 9.28125L22.4656 7.45312H23.2156V9.4375H25.7V10.4453H23.2156V15.4844C23.2156 16 23.338 16.3958 23.5828 16.6719C23.8276 16.9479 24.1635 17.0859 24.5906 17.0859ZM35.6484 18H34.3203V7.75781H30.7031V6.57812H39.2656V7.75781H35.6484V18ZM42.2438 18H40.9469V9.4375H42.2438V18ZM40.8375 7.11719C40.8375 6.82031 40.9104 6.60417 41.0563 6.46875C41.2021 6.32812 41.3844 6.25781 41.6031 6.25781C41.8115 6.25781 41.9911 6.32812 42.1422 6.46875C42.2932 6.60938 42.3688 6.82552 42.3688 7.11719C42.3688 7.40885 42.2932 7.6276 42.1422 7.77344C41.9911 7.91406 41.8115 7.98438 41.6031 7.98438C41.3844 7.98438 41.2021 7.91406 41.0563 7.77344C40.9104 7.6276 40.8375 7.40885 40.8375 7.11719ZM47.9094 17.0859C48.1385 17.0859 48.3599 17.0703 48.5734 17.0391C48.787 17.0026 48.9562 16.9661 49.0812 16.9297V17.9219C48.9406 17.9896 48.7323 18.0443 48.4562 18.0859C48.1854 18.1328 47.9406 18.1562 47.7219 18.1562C46.0656 18.1562 45.2375 17.2839 45.2375 15.5391V10.4453H44.0109V9.82031L45.2375 9.28125L45.7844 7.45312H46.5344V9.4375H49.0187V10.4453H46.5344V15.4844C46.5344 16 46.6568 16.3958 46.9016 16.6719C47.1464 16.9479 47.4823 17.0859 47.9094 17.0859ZM52.2469 18H50.95V5.84375H52.2469V18ZM58.7641 18.1562C57.4984 18.1562 56.4984 17.7708 55.7641 17C55.0349 16.2292 54.6703 15.1589 54.6703 13.7891C54.6703 12.4089 55.0089 11.3125 55.6859 10.5C56.3682 9.6875 57.2823 9.28125 58.4281 9.28125C59.501 9.28125 60.35 9.63542 60.975 10.3438C61.6 11.0469 61.9125 11.9766 61.9125 13.1328V13.9531H56.0141C56.0401 14.9583 56.2927 15.7214 56.7719 16.2422C57.2562 16.763 57.9359 17.0234 58.8109 17.0234C59.7328 17.0234 60.6443 16.8307 61.5453 16.4453V17.6016C61.087 17.7995 60.6521 17.9401 60.2406 18.0234C59.8344 18.112 59.3422 18.1562 58.7641 18.1562ZM58.4125 10.3672C57.725 10.3672 57.1755 10.5911 56.7641 11.0391C56.3578 11.487 56.1182 12.1068 56.0453 12.8984H60.5219C60.5219 12.0807 60.3396 11.4557 59.975 11.0234C59.6104 10.5859 59.0896 10.3672 58.4125 10.3672Z" fill="black"/>
<path d="M19 38V52H5V38H19ZM19 36H5C3.9 36 3 36.9 3 38V52C3 53.1 3.9 54 5 54H19C20.1 54 21 53.1 21 52V38C21 36.9 20.1 36 19 36Z" fill="black" fill-opacity="0.56"/>
<path d="M35.8984 51H34.5703V39.5781H40.9375V40.7578H35.8984V44.9375H40.6328V46.1172H35.8984V51ZM44.0875 51H42.7906V42.4375H44.0875V51ZM42.6812 40.1172C42.6812 39.8203 42.7542 39.6042 42.9 39.4688C43.0458 39.3281 43.2281 39.2578 43.4469 39.2578C43.6552 39.2578 43.8349 39.3281 43.9859 39.4688C44.137 39.6094 44.2125 39.8255 44.2125 40.1172C44.2125 40.4089 44.137 40.6276 43.9859 40.7734C43.8349 40.9141 43.6552 40.9844 43.4469 40.9844C43.2281 40.9844 43.0458 40.9141 42.9 40.7734C42.7542 40.6276 42.6812 40.4089 42.6812 40.1172ZM50.8938 42.2812C51.274 42.2812 51.6151 42.3125 51.9172 42.375L51.7375 43.5781C51.3833 43.5 51.0708 43.4609 50.8 43.4609C50.1073 43.4609 49.5135 43.7422 49.0188 44.3047C48.5292 44.8672 48.2844 45.5677 48.2844 46.4062V51H46.9875V42.4375H48.0578L48.2063 44.0234H48.2688C48.5865 43.4661 48.9693 43.0365 49.4172 42.7344C49.8651 42.4323 50.3573 42.2812 50.8938 42.2812ZM59.1922 48.6641C59.1922 49.4609 58.8953 50.0755 58.3016 50.5078C57.7078 50.9401 56.8745 51.1562 55.8016 51.1562C54.6661 51.1562 53.7807 50.9766 53.1453 50.6172V49.4141C53.5568 49.6224 53.9969 49.7865 54.4656 49.9062C54.9396 50.026 55.3953 50.0859 55.8328 50.0859C56.5099 50.0859 57.0307 49.9792 57.3953 49.7656C57.7599 49.5469 57.9422 49.2161 57.9422 48.7734C57.9422 48.4401 57.7964 48.1562 57.5047 47.9219C57.2182 47.6823 56.6557 47.401 55.8172 47.0781C55.0203 46.7812 54.4526 46.5234 54.1141 46.3047C53.7807 46.0807 53.5307 45.8281 53.3641 45.5469C53.2026 45.2656 53.1219 44.9297 53.1219 44.5391C53.1219 43.8411 53.4057 43.2917 53.9734 42.8906C54.5411 42.4844 55.3198 42.2812 56.3094 42.2812C57.2313 42.2812 58.1323 42.4688 59.0125 42.8438L58.5516 43.8984C57.6922 43.5443 56.9135 43.3672 56.2156 43.3672C55.601 43.3672 55.1375 43.4635 54.825 43.6562C54.5125 43.849 54.3563 44.1146 54.3563 44.4531C54.3563 44.6823 54.4135 44.8776 54.5281 45.0391C54.6479 45.2005 54.838 45.3542 55.0984 45.5C55.3589 45.6458 55.8589 45.8568 56.5984 46.1328C57.6141 46.5026 58.299 46.875 58.6531 47.25C59.0125 47.625 59.1922 48.0964 59.1922 48.6641ZM64.225 50.0859C64.4542 50.0859 64.6755 50.0703 64.8891 50.0391C65.1026 50.0026 65.2719 49.9661 65.3969 49.9297V50.9219C65.2563 50.9896 65.0479 51.0443 64.7719 51.0859C64.501 51.1328 64.2563 51.1562 64.0375 51.1562C62.3813 51.1562 61.5531 50.2839 61.5531 48.5391V43.4453H60.3266V42.8203L61.5531 42.2812L62.1 40.4531H62.85V42.4375H65.3344V43.4453H62.85V48.4844C62.85 49 62.9724 49.3958 63.2172 49.6719C63.462 49.9479 63.7979 50.0859 64.225 50.0859ZM78.9625 46.7109C78.9625 48.1068 78.6109 49.1979 77.9078 49.9844C77.2047 50.7656 76.2333 51.1562 74.9938 51.1562C74.2281 51.1562 73.5484 50.9766 72.9547 50.6172C72.3609 50.2578 71.9026 49.7422 71.5797 49.0703C71.2568 48.3984 71.0953 47.612 71.0953 46.7109C71.0953 45.3151 71.4443 44.2292 72.1422 43.4531C72.8401 42.6719 73.8089 42.2812 75.0484 42.2812C76.2464 42.2812 77.1969 42.6797 77.9 43.4766C78.6083 44.2734 78.9625 45.3516 78.9625 46.7109ZM72.4391 46.7109C72.4391 47.8047 72.6578 48.638 73.0953 49.2109C73.5328 49.7839 74.176 50.0703 75.025 50.0703C75.874 50.0703 76.5172 49.7865 76.9547 49.2188C77.3974 48.6458 77.6188 47.8099 77.6188 46.7109C77.6188 45.6224 77.3974 44.7969 76.9547 44.2344C76.5172 43.6667 75.8688 43.3828 75.0094 43.3828C74.1604 43.3828 73.5198 43.6615 73.0875 44.2188C72.6552 44.776 72.4391 45.6068 72.4391 46.7109ZM85.3781 51.1562C84.8208 51.1562 84.3104 51.0547 83.8469 50.8516C83.3885 50.6432 83.0031 50.3255 82.6906 49.8984H82.5969C82.6594 50.3984 82.6906 50.8724 82.6906 51.3203V54.8438H81.3937V42.4375H82.4484L82.6281 43.6094H82.6906C83.024 43.1406 83.412 42.8021 83.8547 42.5938C84.2974 42.3854 84.8052 42.2812 85.3781 42.2812C86.5135 42.2812 87.3885 42.6693 88.0031 43.4453C88.6229 44.2214 88.9328 45.3099 88.9328 46.7109C88.9328 48.1172 88.6177 49.2109 87.9875 49.9922C87.3625 50.7682 86.4927 51.1562 85.3781 51.1562ZM85.1906 43.3828C84.3156 43.3828 83.6828 43.625 83.2922 44.1094C82.9016 44.5938 82.701 45.3646 82.6906 46.4219V46.7109C82.6906 47.9141 82.8911 48.776 83.2922 49.2969C83.6932 49.8125 84.3365 50.0703 85.2219 50.0703C85.9615 50.0703 86.5396 49.7708 86.9562 49.1719C87.3781 48.5729 87.5891 47.7474 87.5891 46.6953C87.5891 45.6276 87.3781 44.8099 86.9562 44.2422C86.5396 43.6693 85.951 43.3828 85.1906 43.3828ZM94.1219 50.0859C94.351 50.0859 94.5724 50.0703 94.7859 50.0391C94.9995 50.0026 95.1688 49.9661 95.2938 49.9297V50.9219C95.1531 50.9896 94.9448 51.0443 94.6688 51.0859C94.3979 51.1328 94.1531 51.1562 93.9344 51.1562C92.2781 51.1562 91.45 50.2839 91.45 48.5391V43.4453H90.2234V42.8203L91.45 42.2812L91.9969 40.4531H92.7469V42.4375H95.2313V43.4453H92.7469V48.4844C92.7469 49 92.8693 49.3958 93.1141 49.6719C93.3589 49.9479 93.6948 50.0859 94.1219 50.0859ZM98.4594 51H97.1625V42.4375H98.4594V51ZM97.0531 40.1172C97.0531 39.8203 97.126 39.6042 97.2719 39.4688C97.4177 39.3281 97.6 39.2578 97.8187 39.2578C98.0271 39.2578 98.2068 39.3281 98.3578 39.4688C98.5089 39.6094 98.5844 39.8255 98.5844 40.1172C98.5844 40.4089 98.5089 40.6276 98.3578 40.7734C98.2068 40.9141 98.0271 40.9844 97.8187 40.9844C97.6 40.9844 97.4177 40.9141 97.2719 40.7734C97.126 40.6276 97.0531 40.4089 97.0531 40.1172ZM108.75 46.7109C108.75 48.1068 108.398 49.1979 107.695 49.9844C106.992 50.7656 106.021 51.1562 104.781 51.1562C104.016 51.1562 103.336 50.9766 102.742 50.6172C102.148 50.2578 101.69 49.7422 101.367 49.0703C101.044 48.3984 100.883 47.612 100.883 46.7109C100.883 45.3151 101.232 44.2292 101.93 43.4531C102.628 42.6719 103.596 42.2812 104.836 42.2812C106.034 42.2812 106.984 42.6797 107.688 43.4766C108.396 44.2734 108.75 45.3516 108.75 46.7109ZM102.227 46.7109C102.227 47.8047 102.445 48.638 102.883 49.2109C103.32 49.7839 103.964 50.0703 104.812 50.0703C105.661 50.0703 106.305 49.7865 106.742 49.2188C107.185 48.6458 107.406 47.8099 107.406 46.7109C107.406 45.6224 107.185 44.7969 106.742 44.2344C106.305 43.6667 105.656 43.3828 104.797 43.3828C103.948 43.3828 103.307 43.6615 102.875 44.2188C102.443 44.776 102.227 45.6068 102.227 46.7109ZM117.041 51V45.4609C117.041 44.763 116.882 44.2422 116.564 43.8984C116.246 43.5547 115.749 43.3828 115.072 43.3828C114.176 43.3828 113.52 43.625 113.103 44.1094C112.686 44.5938 112.478 45.3932 112.478 46.5078V51H111.181V42.4375H112.236L112.447 43.6094H112.509C112.775 43.1875 113.147 42.862 113.627 42.6328C114.106 42.3984 114.64 42.2812 115.228 42.2812C116.259 42.2812 117.035 42.5312 117.556 43.0312C118.077 43.526 118.338 44.3203 118.338 45.4141V51H117.041Z" fill="black"/>
<path d="M19 80V94H5V80H19ZM19 78H5C3.9 78 3 78.9 3 80V94C3 95.1 3.9 96 5 96H19C20.1 96 21 95.1 21 94V80C21 78.9 20.1 78 19 78Z" fill="black" fill-opacity="0.56"/>
<path d="M41.0156 89.9609C41.0156 90.9661 40.651 91.75 39.9219 92.3125C39.1927 92.875 38.2031 93.1562 36.9531 93.1562C35.599 93.1562 34.5573 92.9818 33.8281 92.6328V91.3516C34.2969 91.5495 34.8073 91.7057 35.3594 91.8203C35.9115 91.9349 36.4583 91.9922 37 91.9922C37.8854 91.9922 38.5521 91.8255 39 91.4922C39.4479 91.1536 39.6719 90.6849 39.6719 90.0859C39.6719 89.6901 39.5911 89.3672 39.4297 89.1172C39.2734 88.862 39.0078 88.6276 38.6328 88.4141C38.263 88.2005 37.6979 87.9583 36.9375 87.6875C35.875 87.3073 35.1146 86.8568 34.6562 86.3359C34.2031 85.8151 33.9766 85.1354 33.9766 84.2969C33.9766 83.4167 34.3073 82.7161 34.9688 82.1953C35.6302 81.6745 36.5052 81.4141 37.5938 81.4141C38.7292 81.4141 39.7734 81.6224 40.7266 82.0391L40.3125 83.1953C39.3698 82.7995 38.4531 82.6016 37.5625 82.6016C36.8594 82.6016 36.3099 82.7526 35.9141 83.0547C35.5182 83.3568 35.3203 83.776 35.3203 84.3125C35.3203 84.7083 35.3932 85.0339 35.5391 85.2891C35.6849 85.5391 35.9297 85.7708 36.2734 85.9844C36.6224 86.1927 37.1536 86.4245 37.8672 86.6797C39.0651 87.1068 39.888 87.5651 40.3359 88.0547C40.7891 88.5443 41.0156 89.1797 41.0156 89.9609ZM46.9234 93.1562C45.6578 93.1562 44.6578 92.7708 43.9234 92C43.1943 91.2292 42.8297 90.1589 42.8297 88.7891C42.8297 87.4089 43.1682 86.3125 43.8453 85.5C44.5276 84.6875 45.4417 84.2812 46.5875 84.2812C47.6604 84.2812 48.5094 84.6354 49.1344 85.3438C49.7594 86.0469 50.0719 86.9766 50.0719 88.1328V88.9531H44.1734C44.1995 89.9583 44.4521 90.7214 44.9312 91.2422C45.4156 91.763 46.0953 92.0234 46.9703 92.0234C47.8922 92.0234 48.8036 91.8307 49.7047 91.4453V92.6016C49.2464 92.7995 48.8115 92.9401 48.4 93.0234C47.9937 93.112 47.5016 93.1562 46.9234 93.1562ZM46.5719 85.3672C45.8844 85.3672 45.3349 85.5911 44.9234 86.0391C44.5172 86.487 44.2776 87.1068 44.2047 87.8984H48.6812C48.6812 87.0807 48.499 86.4557 48.1344 86.0234C47.7698 85.5859 47.249 85.3672 46.5719 85.3672ZM55.8625 93.1562C54.6229 93.1562 53.662 92.776 52.9797 92.0156C52.3026 91.25 51.9641 90.1693 51.9641 88.7734C51.9641 87.3411 52.3078 86.2344 52.9953 85.4531C53.688 84.6719 54.6724 84.2812 55.9484 84.2812C56.3599 84.2812 56.7714 84.3255 57.1828 84.4141C57.5943 84.5026 57.9172 84.6068 58.1516 84.7266L57.7531 85.8281C57.4667 85.7135 57.1542 85.6198 56.8156 85.5469C56.4771 85.4688 56.1776 85.4297 55.9172 85.4297C54.1776 85.4297 53.3078 86.5391 53.3078 88.7578C53.3078 89.8099 53.5187 90.6172 53.9406 91.1797C54.3677 91.7422 54.9979 92.0234 55.8312 92.0234C56.5448 92.0234 57.2766 91.8698 58.0266 91.5625V92.7109C57.4536 93.0078 56.7323 93.1562 55.8625 93.1562ZM67.6063 88.7109C67.6063 90.1068 67.2547 91.1979 66.5516 91.9844C65.8484 92.7656 64.8771 93.1562 63.6375 93.1562C62.8719 93.1562 62.1922 92.9766 61.5984 92.6172C61.0047 92.2578 60.5464 91.7422 60.2234 91.0703C59.9005 90.3984 59.7391 89.612 59.7391 88.7109C59.7391 87.3151 60.088 86.2292 60.7859 85.4531C61.4839 84.6719 62.4526 84.2812 63.6922 84.2812C64.8901 84.2812 65.8406 84.6797 66.5438 85.4766C67.2521 86.2734 67.6063 87.3516 67.6063 88.7109ZM61.0828 88.7109C61.0828 89.8047 61.3016 90.638 61.7391 91.2109C62.1766 91.7839 62.8198 92.0703 63.6688 92.0703C64.5177 92.0703 65.1609 91.7865 65.5984 91.2188C66.0411 90.6458 66.2625 89.8099 66.2625 88.7109C66.2625 87.6224 66.0411 86.7969 65.5984 86.2344C65.1609 85.6667 64.5125 85.3828 63.6531 85.3828C62.8042 85.3828 62.1635 85.6615 61.7313 86.2188C61.299 86.776 61.0828 87.6068 61.0828 88.7109ZM75.8969 93V87.4609C75.8969 86.763 75.738 86.2422 75.4203 85.8984C75.1026 85.5547 74.6052 85.3828 73.9281 85.3828C73.0323 85.3828 72.376 85.625 71.9594 86.1094C71.5427 86.5938 71.3344 87.3932 71.3344 88.5078V93H70.0375V84.4375H71.0922L71.3031 85.6094H71.3656C71.6312 85.1875 72.0036 84.862 72.4828 84.6328C72.962 84.3984 73.4958 84.2812 74.0844 84.2812C75.1156 84.2812 75.8917 84.5312 76.4125 85.0312C76.9333 85.526 77.1937 86.3203 77.1937 87.4141V93H75.8969ZM85.8438 91.8516H85.7734C85.1745 92.7214 84.2786 93.1562 83.0859 93.1562C81.9661 93.1562 81.0938 92.7734 80.4688 92.0078C79.849 91.2422 79.5391 90.1536 79.5391 88.7422C79.5391 87.3307 79.8516 86.2344 80.4766 85.4531C81.1016 84.6719 81.9714 84.2812 83.0859 84.2812C84.2474 84.2812 85.138 84.7031 85.7578 85.5469H85.8594L85.8047 84.9297L85.7734 84.3281V80.8438H87.0703V93H86.0156L85.8438 91.8516ZM83.25 92.0703C84.1354 92.0703 84.776 91.8307 85.1719 91.3516C85.5729 90.8672 85.7734 90.0885 85.7734 89.0156V88.7422C85.7734 87.5286 85.5703 86.6641 85.1641 86.1484C84.763 85.6276 84.1198 85.3672 83.2344 85.3672C82.474 85.3672 81.8906 85.6641 81.4844 86.2578C81.0833 86.8464 80.8828 87.6797 80.8828 88.7578C80.8828 89.8516 81.0833 90.6771 81.4844 91.2344C81.8854 91.7917 82.474 92.0703 83.25 92.0703ZM101.675 88.7109C101.675 90.1068 101.323 91.1979 100.62 91.9844C99.9172 92.7656 98.9458 93.1562 97.7062 93.1562C96.9406 93.1562 96.2609 92.9766 95.6672 92.6172C95.0734 92.2578 94.6151 91.7422 94.2922 91.0703C93.9693 90.3984 93.8078 89.612 93.8078 88.7109C93.8078 87.3151 94.1568 86.2292 94.8547 85.4531C95.5526 84.6719 96.5214 84.2812 97.7609 84.2812C98.9589 84.2812 99.9094 84.6797 100.612 85.4766C101.321 86.2734 101.675 87.3516 101.675 88.7109ZM95.1516 88.7109C95.1516 89.8047 95.3703 90.638 95.8078 91.2109C96.2453 91.7839 96.8885 92.0703 97.7375 92.0703C98.5865 92.0703 99.2297 91.7865 99.6672 91.2188C100.11 90.6458 100.331 89.8099 100.331 88.7109C100.331 87.6224 100.11 86.7969 99.6672 86.2344C99.2297 85.6667 98.5812 85.3828 97.7219 85.3828C96.8729 85.3828 96.2323 85.6615 95.8 86.2188C95.3677 86.776 95.1516 87.6068 95.1516 88.7109ZM108.091 93.1562C107.533 93.1562 107.023 93.0547 106.559 92.8516C106.101 92.6432 105.716 92.3255 105.403 91.8984H105.309C105.372 92.3984 105.403 92.8724 105.403 93.3203V96.8438H104.106V84.4375H105.161L105.341 85.6094H105.403C105.736 85.1406 106.124 84.8021 106.567 84.5938C107.01 84.3854 107.518 84.2812 108.091 84.2812C109.226 84.2812 110.101 84.6693 110.716 85.4453C111.335 86.2214 111.645 87.3099 111.645 88.7109C111.645 90.1172 111.33 91.2109 110.7 91.9922C110.075 92.7682 109.205 93.1562 108.091 93.1562ZM107.903 85.3828C107.028 85.3828 106.395 85.625 106.005 86.1094C105.614 86.5938 105.414 87.3646 105.403 88.4219V88.7109C105.403 89.9141 105.604 90.776 106.005 91.2969C106.406 91.8125 107.049 92.0703 107.934 92.0703C108.674 92.0703 109.252 91.7708 109.669 91.1719C110.091 90.5729 110.302 89.7474 110.302 88.6953C110.302 87.6276 110.091 86.8099 109.669 86.2422C109.252 85.6693 108.664 85.3828 107.903 85.3828ZM116.834 92.0859C117.064 92.0859 117.285 92.0703 117.498 92.0391C117.712 92.0026 117.881 91.9661 118.006 91.9297V92.9219C117.866 92.9896 117.657 93.0443 117.381 93.0859C117.11 93.1328 116.866 93.1562 116.647 93.1562C114.991 93.1562 114.162 92.2839 114.162 90.5391V85.4453H112.936V84.8203L114.162 84.2812L114.709 82.4531H115.459V84.4375H117.944V85.4453H115.459V90.4844C115.459 91 115.582 91.3958 115.827 91.6719C116.071 91.9479 116.407 92.0859 116.834 92.0859ZM121.172 93H119.875V84.4375H121.172V93ZM119.766 82.1172C119.766 81.8203 119.839 81.6042 119.984 81.4688C120.13 81.3281 120.312 81.2578 120.531 81.2578C120.74 81.2578 120.919 81.3281 121.07 81.4688C121.221 81.6094 121.297 81.8255 121.297 82.1172C121.297 82.4089 121.221 82.6276 121.07 82.7734C120.919 82.9141 120.74 82.9844 120.531 82.9844C120.312 82.9844 120.13 82.9141 119.984 82.7734C119.839 82.6276 119.766 82.4089 119.766 82.1172ZM131.463 88.7109C131.463 90.1068 131.111 91.1979 130.408 91.9844C129.705 92.7656 128.733 93.1562 127.494 93.1562C126.728 93.1562 126.048 92.9766 125.455 92.6172C124.861 92.2578 124.403 91.7422 124.08 91.0703C123.757 90.3984 123.595 89.612 123.595 88.7109C123.595 87.3151 123.944 86.2292 124.642 85.4531C125.34 84.6719 126.309 84.2812 127.548 84.2812C128.746 84.2812 129.697 84.6797 130.4 85.4766C131.108 86.2734 131.463 87.3516 131.463 88.7109ZM124.939 88.7109C124.939 89.8047 125.158 90.638 125.595 91.2109C126.033 91.7839 126.676 92.0703 127.525 92.0703C128.374 92.0703 129.017 91.7865 129.455 91.2188C129.897 90.6458 130.119 89.8099 130.119 88.7109C130.119 87.6224 129.897 86.7969 129.455 86.2344C129.017 85.6667 128.369 85.3828 127.509 85.3828C126.66 85.3828 126.02 85.6615 125.588 86.2188C125.155 86.776 124.939 87.6068 124.939 88.7109ZM139.753 93V87.4609C139.753 86.763 139.594 86.2422 139.277 85.8984C138.959 85.5547 138.461 85.3828 137.784 85.3828C136.889 85.3828 136.232 85.625 135.816 86.1094C135.399 86.5938 135.191 87.3932 135.191 88.5078V93H133.894V84.4375H134.948L135.159 85.6094H135.222C135.488 85.1875 135.86 84.862 136.339 84.6328C136.818 84.3984 137.352 84.2812 137.941 84.2812C138.972 84.2812 139.748 84.5312 140.269 85.0312C140.79 85.526 141.05 86.3203 141.05 87.4141V93H139.753Z" fill="black"/>
<path d="M19 122V136H5V122H19ZM19 120H5C3.9 120 3 120.9 3 122V136C3 137.1 3.9 138 5 138H19C20.1 138 21 137.1 21 136V122C21 120.9 20.1 120 19 120Z" fill="black" fill-opacity="0.56"/>
<path d="M38.0859 135H36.7578V124.758H33.1406V123.578H41.7031V124.758H38.0859V135ZM49.2437 135V129.461C49.2437 128.763 49.0849 128.242 48.7672 127.898C48.4495 127.555 47.9521 127.383 47.275 127.383C46.374 127.383 45.7151 127.628 45.2984 128.117C44.887 128.607 44.6812 129.409 44.6812 130.523V135H43.3844V122.844H44.6812V126.523C44.6812 126.966 44.6604 127.333 44.6187 127.625H44.6969C44.9521 127.214 45.3141 126.891 45.7828 126.656C46.2568 126.417 46.7958 126.297 47.4 126.297C48.4469 126.297 49.2307 126.547 49.7516 127.047C50.2776 127.542 50.5406 128.331 50.5406 129.414V135H49.2437ZM54.6594 135H53.3625V126.438H54.6594V135ZM53.2531 124.117C53.2531 123.82 53.326 123.604 53.4719 123.469C53.6177 123.328 53.8 123.258 54.0187 123.258C54.2271 123.258 54.4068 123.328 54.5578 123.469C54.7089 123.609 54.7844 123.826 54.7844 124.117C54.7844 124.409 54.7089 124.628 54.5578 124.773C54.4068 124.914 54.2271 124.984 54.0187 124.984C53.8 124.984 53.6177 124.914 53.4719 124.773C53.326 124.628 53.2531 124.409 53.2531 124.117ZM61.4656 126.281C61.8458 126.281 62.187 126.312 62.4891 126.375L62.3094 127.578C61.9552 127.5 61.6427 127.461 61.3719 127.461C60.6792 127.461 60.0854 127.742 59.5906 128.305C59.101 128.867 58.8563 129.568 58.8563 130.406V135H57.5594V126.438H58.6297L58.7781 128.023H58.8406C59.1583 127.466 59.5411 127.036 59.9891 126.734C60.437 126.432 60.9292 126.281 61.4656 126.281ZM70.0688 133.852H69.9984C69.3995 134.721 68.5036 135.156 67.3109 135.156C66.1911 135.156 65.3188 134.773 64.6938 134.008C64.074 133.242 63.7641 132.154 63.7641 130.742C63.7641 129.331 64.0766 128.234 64.7016 127.453C65.3266 126.672 66.1964 126.281 67.3109 126.281C68.4724 126.281 69.363 126.703 69.9828 127.547H70.0844L70.0297 126.93L69.9984 126.328V122.844H71.2953V135H70.2406L70.0688 133.852ZM67.475 134.07C68.3604 134.07 69.001 133.831 69.3969 133.352C69.7979 132.867 69.9984 132.089 69.9984 131.016V130.742C69.9984 129.529 69.7953 128.664 69.3891 128.148C68.988 127.628 68.3448 127.367 67.4594 127.367C66.699 127.367 66.1156 127.664 65.7094 128.258C65.3083 128.846 65.1078 129.68 65.1078 130.758C65.1078 131.852 65.3083 132.677 65.7094 133.234C66.1104 133.792 66.699 134.07 67.475 134.07ZM85.9 130.711C85.9 132.107 85.5484 133.198 84.8453 133.984C84.1422 134.766 83.1708 135.156 81.9313 135.156C81.1656 135.156 80.4859 134.977 79.8922 134.617C79.2984 134.258 78.8401 133.742 78.5172 133.07C78.1943 132.398 78.0328 131.612 78.0328 130.711C78.0328 129.315 78.3818 128.229 79.0797 127.453C79.7776 126.672 80.7464 126.281 81.9859 126.281C83.1839 126.281 84.1344 126.68 84.8375 127.477C85.5458 128.273 85.9 129.352 85.9 130.711ZM79.3766 130.711C79.3766 131.805 79.5953 132.638 80.0328 133.211C80.4703 133.784 81.1135 134.07 81.9625 134.07C82.8115 134.07 83.4547 133.786 83.8922 133.219C84.3349 132.646 84.5563 131.81 84.5563 130.711C84.5563 129.622 84.3349 128.797 83.8922 128.234C83.4547 127.667 82.8063 127.383 81.9469 127.383C81.0979 127.383 80.4573 127.661 80.025 128.219C79.5927 128.776 79.3766 129.607 79.3766 130.711ZM92.3156 135.156C91.7583 135.156 91.2479 135.055 90.7844 134.852C90.326 134.643 89.9406 134.326 89.6281 133.898H89.5344C89.5969 134.398 89.6281 134.872 89.6281 135.32V138.844H88.3312V126.438H89.3859L89.5656 127.609H89.6281C89.9615 127.141 90.3495 126.802 90.7922 126.594C91.2349 126.385 91.7427 126.281 92.3156 126.281C93.451 126.281 94.326 126.669 94.9406 127.445C95.5604 128.221 95.8703 129.31 95.8703 130.711C95.8703 132.117 95.5552 133.211 94.925 133.992C94.3 134.768 93.4302 135.156 92.3156 135.156ZM92.1281 127.383C91.2531 127.383 90.6203 127.625 90.2297 128.109C89.8391 128.594 89.6385 129.365 89.6281 130.422V130.711C89.6281 131.914 89.8286 132.776 90.2297 133.297C90.6307 133.812 91.274 134.07 92.1594 134.07C92.899 134.07 93.4771 133.771 93.8937 133.172C94.3156 132.573 94.5266 131.747 94.5266 130.695C94.5266 129.628 94.3156 128.81 93.8937 128.242C93.4771 127.669 92.8885 127.383 92.1281 127.383ZM101.059 134.086C101.289 134.086 101.51 134.07 101.723 134.039C101.937 134.003 102.106 133.966 102.231 133.93V134.922C102.091 134.99 101.882 135.044 101.606 135.086C101.335 135.133 101.091 135.156 100.872 135.156C99.2156 135.156 98.3875 134.284 98.3875 132.539V127.445H97.1609V126.82L98.3875 126.281L98.9344 124.453H99.6844V126.438H102.169V127.445H99.6844V132.484C99.6844 133 99.8068 133.396 100.052 133.672C100.296 133.948 100.632 134.086 101.059 134.086ZM105.397 135H104.1V126.438H105.397V135ZM103.991 124.117C103.991 123.82 104.064 123.604 104.209 123.469C104.355 123.328 104.537 123.258 104.756 123.258C104.965 123.258 105.144 123.328 105.295 123.469C105.446 123.609 105.522 123.826 105.522 124.117C105.522 124.409 105.446 124.628 105.295 124.773C105.144 124.914 104.965 124.984 104.756 124.984C104.537 124.984 104.355 124.914 104.209 124.773C104.064 124.628 103.991 124.409 103.991 124.117ZM115.688 130.711C115.688 132.107 115.336 133.198 114.633 133.984C113.93 134.766 112.958 135.156 111.719 135.156C110.953 135.156 110.273 134.977 109.68 134.617C109.086 134.258 108.628 133.742 108.305 133.07C107.982 132.398 107.82 131.612 107.82 130.711C107.82 129.315 108.169 128.229 108.867 127.453C109.565 126.672 110.534 126.281 111.773 126.281C112.971 126.281 113.922 126.68 114.625 127.477C115.333 128.273 115.688 129.352 115.688 130.711ZM109.164 130.711C109.164 131.805 109.383 132.638 109.82 133.211C110.258 133.784 110.901 134.07 111.75 134.07C112.599 134.07 113.242 133.786 113.68 133.219C114.122 132.646 114.344 131.81 114.344 130.711C114.344 129.622 114.122 128.797 113.68 128.234C113.242 127.667 112.594 127.383 111.734 127.383C110.885 127.383 110.245 127.661 109.812 128.219C109.38 128.776 109.164 129.607 109.164 130.711ZM123.978 135V129.461C123.978 128.763 123.819 128.242 123.502 127.898C123.184 127.555 122.686 127.383 122.009 127.383C121.114 127.383 120.457 127.625 120.041 128.109C119.624 128.594 119.416 129.393 119.416 130.508V135H118.119V126.438H119.173L119.384 127.609H119.447C119.713 127.188 120.085 126.862 120.564 126.633C121.043 126.398 121.577 126.281 122.166 126.281C123.197 126.281 123.973 126.531 124.494 127.031C125.015 127.526 125.275 128.32 125.275 129.414V135H123.978Z" fill="black"/>
</svg>
