<svg width="430" height="64" viewBox="0 0 430 64" fill="none" xmlns="http://www.w3.org/2000/svg">
<rect x="0.5" y="8.5" width="429" height="55" stroke="#CCCCCC"/>
<path d="M19.8047 42H18.4609L20.625 31.7578H17.4531L17.7109 30.5781H25.4062L25.1719 31.7578H21.9844L19.8047 42ZM24.8844 33.4375H26.1969L26.775 37.6953C26.8271 38.0547 26.8766 38.5859 26.9234 39.2891C26.9755 39.987 27.0016 40.5495 27.0016 40.9766H27.0484C27.2307 40.5234 27.4573 40.0026 27.7281 39.4141C27.999 38.8255 28.1995 38.4193 28.3297 38.1953L30.8687 33.4375H32.2594L26.8219 43.4531C26.3375 44.349 25.8583 44.9714 25.3844 45.3203C24.9104 45.6693 24.3401 45.8438 23.6734 45.8438C23.2984 45.8438 22.9339 45.7891 22.5797 45.6797V44.625C22.9078 44.7188 23.249 44.7656 23.6031 44.7656C24.0302 44.7656 24.3948 44.6328 24.6969 44.3672C25.0042 44.1068 25.301 43.7188 25.5875 43.2031L26.1812 42.1406L24.8844 33.4375ZM35.9172 42.1562C35.412 42.1562 34.9693 42.026 34.5891 41.7656C34.2089 41.5052 33.9146 41.1406 33.7063 40.6719H33.6281L33.5969 40.9688C33.5813 41.099 33.5526 41.2812 33.5109 41.5156C33.4745 41.75 33.1776 43.1927 32.6203 45.8438H31.3234L33.9484 33.4375H35.0344L34.8313 35.0703H34.8938C35.826 33.888 36.7948 33.2969 37.8 33.2969C38.5135 33.2969 39.076 33.5521 39.4875 34.0625C39.899 34.5677 40.1047 35.2786 40.1047 36.1953C40.1047 37.2995 39.925 38.3125 39.5656 39.2344C39.2063 40.1562 38.7089 40.875 38.0734 41.3906C37.438 41.901 36.7193 42.1562 35.9172 42.1562ZM37.3703 34.3828C36.8703 34.3828 36.3599 34.6302 35.8391 35.125C35.3234 35.6198 34.912 36.2422 34.6047 36.9922C34.3026 37.7422 34.1516 38.5104 34.1516 39.2969C34.1516 39.8698 34.2948 40.3099 34.5813 40.6172C34.8729 40.9193 35.2922 41.0703 35.8391 41.0703C36.3547 41.0703 36.8339 40.8594 37.2766 40.4375C37.7245 40.0156 38.0839 39.4167 38.3547 38.6406C38.6255 37.8594 38.7609 37.0312 38.7609 36.1562C38.7609 34.974 38.2974 34.3828 37.3703 34.3828ZM44.8875 42.1562C43.9292 42.1562 43.1766 41.8724 42.6297 41.3047C42.0828 40.737 41.8094 39.9505 41.8094 38.9453C41.8094 37.9661 42.0021 37.0286 42.3875 36.1328C42.7781 35.2318 43.2938 34.5312 43.9344 34.0312C44.575 33.5312 45.2807 33.2812 46.0516 33.2812C46.8484 33.2812 47.4474 33.4557 47.8484 33.8047C48.2495 34.1484 48.45 34.6302 48.45 35.25C48.45 36.1875 48.0177 36.9245 47.1531 37.4609C46.2885 37.9922 45.0516 38.2578 43.4422 38.2578H43.1844L43.1531 38.8828C43.1531 39.5651 43.312 40.099 43.6297 40.4844C43.9526 40.8646 44.45 41.0547 45.1219 41.0547C45.45 41.0547 45.7859 41.0078 46.1297 40.9141C46.4786 40.8203 46.9109 40.6484 47.4266 40.3984V41.5391C46.937 41.7682 46.5047 41.9271 46.1297 42.0156C45.7547 42.1094 45.3406 42.1562 44.8875 42.1562ZM45.9734 34.3984C45.437 34.3984 44.9318 34.6432 44.4578 35.1328C43.9891 35.6224 43.6297 36.3021 43.3797 37.1719H43.4734C44.6609 37.1719 45.5698 37.0182 46.2 36.7109C46.8354 36.3984 47.1531 35.9479 47.1531 35.3594C47.1531 35.0833 47.0568 34.8542 46.8641 34.6719C46.6766 34.4896 46.3797 34.3984 45.9734 34.3984ZM56.4766 41.0859C56.763 41.0859 57.138 41.0182 57.6016 40.8828V41.8906C57.4245 41.9635 57.2057 42.026 56.9453 42.0781C56.6849 42.1302 56.4766 42.1562 56.3203 42.1562C55.6693 42.1562 55.1693 42.0026 54.8203 41.6953C54.4766 41.3828 54.3047 40.9193 54.3047 40.3047C54.3047 39.9609 54.3516 39.5703 54.4453 39.1328L55.4375 34.4297H54.0938L54.2031 33.8594L55.6484 33.25L56.625 31.4688H57.3906L56.9609 33.4375H59.1016L58.8984 34.4297H56.7656L55.7578 39.1484C55.6641 39.6016 55.6172 39.9453 55.6172 40.1797C55.6172 40.4714 55.6927 40.6953 55.8438 40.8516C55.9948 41.0078 56.2057 41.0859 56.4766 41.0859ZM63.7516 33.3281C64.7411 33.3281 65.5224 33.6224 66.0953 34.2109C66.6682 34.7943 66.9547 35.599 66.9547 36.625C66.9547 37.6042 66.7672 38.5286 66.3922 39.3984C66.0172 40.2682 65.5094 40.9401 64.8688 41.4141C64.2281 41.888 63.5042 42.125 62.6969 42.125C61.6969 42.125 60.913 41.8307 60.3453 41.2422C59.7776 40.6536 59.4938 39.849 59.4938 38.8281C59.4938 37.8385 59.6839 36.9089 60.0641 36.0391C60.4443 35.1641 60.9573 34.4948 61.6031 34.0312C62.249 33.5625 62.9651 33.3281 63.7516 33.3281ZM65.5953 36.4453C65.5953 35.8464 65.4313 35.362 65.1031 34.9922C64.7802 34.6172 64.3401 34.4297 63.7828 34.4297C63.2151 34.4297 62.7047 34.6224 62.2516 35.0078C61.8036 35.3932 61.4547 35.9297 61.2047 36.6172C60.9599 37.2995 60.8375 38.0599 60.8375 38.8984C60.8375 39.5807 61.0016 40.1094 61.3297 40.4844C61.663 40.8542 62.1396 41.0391 62.7594 41.0391C63.301 41.0391 63.788 40.849 64.2203 40.4688C64.6526 40.0885 64.9885 39.5495 65.2281 38.8516C65.4729 38.1484 65.5953 37.3464 65.5953 36.4453ZM77.9109 39.5703C77.9109 40.3828 77.6219 41.0182 77.0438 41.4766C76.4708 41.9297 75.6609 42.1562 74.6141 42.1562C73.7339 42.1562 72.9396 41.9766 72.2313 41.6172V40.3828C72.5958 40.6016 72.9891 40.7708 73.4109 40.8906C73.8328 41.0104 74.2234 41.0703 74.5828 41.0703C75.2391 41.0703 75.7339 40.9401 76.0672 40.6797C76.4005 40.4193 76.5672 40.0859 76.5672 39.6797C76.5672 39.3828 76.476 39.1328 76.2938 38.9297C76.1115 38.7266 75.7182 38.4479 75.1141 38.0938C74.437 37.7135 73.9578 37.3411 73.6766 36.9766C73.3953 36.612 73.2547 36.1797 73.2547 35.6797C73.2547 34.9609 73.5177 34.3828 74.0438 33.9453C74.5698 33.5026 75.2625 33.2812 76.1219 33.2812C77.0125 33.2812 77.8719 33.474 78.7 33.8594L78.2781 34.9297L77.8406 34.7344C77.3146 34.5104 76.7417 34.3984 76.1219 34.3984C75.6375 34.3984 75.2573 34.513 74.9813 34.7422C74.7052 34.9661 74.5672 35.2578 74.5672 35.6172C74.5672 35.9089 74.6583 36.1589 74.8406 36.3672C75.0281 36.5755 75.4109 36.8438 75.9891 37.1719C76.5464 37.4844 76.9448 37.7526 77.1844 37.9766C77.4292 38.2005 77.6115 38.4427 77.7313 38.7031C77.851 38.9583 77.9109 39.2474 77.9109 39.5703ZM83.0219 42.1562C82.0635 42.1562 81.3109 41.8724 80.7641 41.3047C80.2172 40.737 79.9437 39.9505 79.9437 38.9453C79.9437 37.9661 80.1365 37.0286 80.5219 36.1328C80.9125 35.2318 81.4281 34.5312 82.0687 34.0312C82.7094 33.5312 83.4151 33.2812 84.1859 33.2812C84.9828 33.2812 85.5818 33.4557 85.9828 33.8047C86.3839 34.1484 86.5844 34.6302 86.5844 35.25C86.5844 36.1875 86.1521 36.9245 85.2875 37.4609C84.4229 37.9922 83.1859 38.2578 81.5766 38.2578H81.3187L81.2875 38.8828C81.2875 39.5651 81.4464 40.099 81.7641 40.4844C82.087 40.8646 82.5844 41.0547 83.2562 41.0547C83.5844 41.0547 83.9203 41.0078 84.2641 40.9141C84.613 40.8203 85.0453 40.6484 85.5609 40.3984V41.5391C85.0714 41.7682 84.6391 41.9271 84.2641 42.0156C83.8891 42.1094 83.475 42.1562 83.0219 42.1562ZM84.1078 34.3984C83.5714 34.3984 83.0661 34.6432 82.5922 35.1328C82.1234 35.6224 81.7641 36.3021 81.5141 37.1719H81.6078C82.7953 37.1719 83.7042 37.0182 84.3344 36.7109C84.9698 36.3984 85.2875 35.9479 85.2875 35.3594C85.2875 35.0833 85.1911 34.8542 84.9984 34.6719C84.8109 34.4896 84.5141 34.3984 84.1078 34.3984ZM88.9766 42H87.6641L90.2578 29.8438H91.5703L88.9766 42ZM95.275 42.1562C94.3167 42.1562 93.5641 41.8724 93.0172 41.3047C92.4703 40.737 92.1969 39.9505 92.1969 38.9453C92.1969 37.9661 92.3896 37.0286 92.775 36.1328C93.1656 35.2318 93.6813 34.5312 94.3219 34.0312C94.9625 33.5312 95.6682 33.2812 96.4391 33.2812C97.2359 33.2812 97.8349 33.4557 98.2359 33.8047C98.637 34.1484 98.8375 34.6302 98.8375 35.25C98.8375 36.1875 98.4052 36.9245 97.5406 37.4609C96.676 37.9922 95.4391 38.2578 93.8297 38.2578H93.5719L93.5406 38.8828C93.5406 39.5651 93.6995 40.099 94.0172 40.4844C94.3401 40.8646 94.8375 41.0547 95.5094 41.0547C95.8375 41.0547 96.1734 41.0078 96.5172 40.9141C96.8661 40.8203 97.2984 40.6484 97.8141 40.3984V41.5391C97.3245 41.7682 96.8922 41.9271 96.5172 42.0156C96.1422 42.1094 95.7281 42.1562 95.275 42.1562ZM96.3609 34.3984C95.8245 34.3984 95.3193 34.6432 94.8453 35.1328C94.3766 35.6224 94.0172 36.3021 93.7672 37.1719H93.8609C95.0484 37.1719 95.9573 37.0182 96.5875 36.7109C97.2229 36.3984 97.5406 35.9479 97.5406 35.3594C97.5406 35.0833 97.4443 34.8542 97.2516 34.6719C97.0641 34.4896 96.7672 34.3984 96.3609 34.3984ZM103.425 42.1562C102.415 42.1562 101.631 41.8776 101.073 41.3203C100.516 40.763 100.238 39.9766 100.238 38.9609C100.238 37.9193 100.43 36.9583 100.816 36.0781C101.201 35.1979 101.732 34.513 102.409 34.0234C103.092 33.5286 103.857 33.2812 104.706 33.2812C105.42 33.2812 106.118 33.4141 106.8 33.6797L106.433 34.7812C105.808 34.5156 105.238 34.3828 104.722 34.3828C104.139 34.3828 103.605 34.5833 103.12 34.9844C102.641 35.3802 102.264 35.9349 101.988 36.6484C101.717 37.3568 101.581 38.1276 101.581 38.9609C101.581 39.6276 101.753 40.1458 102.097 40.5156C102.446 40.8854 102.925 41.0703 103.534 41.0703C103.909 41.0703 104.264 41.0182 104.597 40.9141C104.93 40.8099 105.258 40.6875 105.581 40.5469V41.6641C104.935 41.9922 104.217 42.1562 103.425 42.1562ZM109.911 41.0859C110.197 41.0859 110.572 41.0182 111.036 40.8828V41.8906C110.859 41.9635 110.64 42.026 110.38 42.0781C110.119 42.1302 109.911 42.1562 109.755 42.1562C109.104 42.1562 108.604 42.0026 108.255 41.6953C107.911 41.3828 107.739 40.9193 107.739 40.3047C107.739 39.9609 107.786 39.5703 107.88 39.1328L108.872 34.4297H107.528L107.637 33.8594L109.083 33.25L110.059 31.4688H110.825L110.395 33.4375H112.536L112.333 34.4297H110.2L109.192 39.1484C109.098 39.6016 109.052 39.9453 109.052 40.1797C109.052 40.4714 109.127 40.6953 109.278 40.8516C109.429 41.0078 109.64 41.0859 109.911 41.0859ZM121.492 33.3281C122.482 33.3281 123.263 33.6224 123.836 34.2109C124.409 34.7943 124.695 35.599 124.695 36.625C124.695 37.6042 124.508 38.5286 124.133 39.3984C123.758 40.2682 123.25 40.9401 122.609 41.4141C121.969 41.888 121.245 42.125 120.438 42.125C119.438 42.125 118.654 41.8307 118.086 41.2422C117.518 40.6536 117.234 39.849 117.234 38.8281C117.234 37.8385 117.424 36.9089 117.805 36.0391C118.185 35.1641 118.698 34.4948 119.344 34.0312C119.99 33.5625 120.706 33.3281 121.492 33.3281ZM123.336 36.4453C123.336 35.8464 123.172 35.362 122.844 34.9922C122.521 34.6172 122.081 34.4297 121.523 34.4297C120.956 34.4297 120.445 34.6224 119.992 35.0078C119.544 35.3932 119.195 35.9297 118.945 36.6172C118.701 37.2995 118.578 38.0599 118.578 38.8984C118.578 39.5807 118.742 40.1094 119.07 40.4844C119.404 40.8542 119.88 41.0391 120.5 41.0391C121.042 41.0391 121.529 40.849 121.961 40.4688C122.393 40.0885 122.729 39.5495 122.969 38.8516C123.214 38.1484 123.336 37.3464 123.336 36.4453ZM129.861 42.1562C129.356 42.1562 128.91 42.0234 128.525 41.7578C128.145 41.4922 127.858 41.1302 127.666 40.6719H127.588L127.041 42H126.064L128.642 29.8438H129.955C129.689 31.1042 129.483 32.0703 129.338 32.7422C129.197 33.4089 129.002 34.1901 128.752 35.0859H128.822C129.306 34.4714 129.783 34.0208 130.252 33.7344C130.726 33.4427 131.213 33.2969 131.713 33.2969C132.447 33.2969 133.02 33.5547 133.431 34.0703C133.843 34.5859 134.048 35.2943 134.048 36.1953C134.048 37.2839 133.869 38.2917 133.509 39.2188C133.155 40.1406 132.658 40.862 132.017 41.3828C131.382 41.8984 130.663 42.1562 129.861 42.1562ZM131.314 34.3828C130.814 34.3828 130.304 34.6302 129.783 35.125C129.267 35.6198 128.856 36.2422 128.548 36.9922C128.246 37.7422 128.095 38.5104 128.095 39.2969C128.095 39.8698 128.239 40.3099 128.525 40.6172C128.817 40.9193 129.236 41.0703 129.783 41.0703C130.298 41.0703 130.778 40.8594 131.22 40.4375C131.668 40.0156 132.028 39.4167 132.298 38.6406C132.569 37.8594 132.705 37.0312 132.705 36.1562C132.705 34.974 132.241 34.3828 131.314 34.3828ZM133.933 45.8438C133.573 45.8438 133.253 45.7891 132.972 45.6797V44.5781C133.29 44.6927 133.599 44.75 133.902 44.75C134.553 44.75 134.99 44.2161 135.214 43.1484L137.277 33.4375H138.573L136.495 43.2656C136.308 44.1562 136.008 44.8073 135.597 45.2188C135.191 45.6354 134.636 45.8438 133.933 45.8438ZM137.644 31.25C137.644 30.9583 137.727 30.7214 137.894 30.5391C138.06 30.3516 138.277 30.2578 138.542 30.2578C138.99 30.2578 139.214 30.4922 139.214 30.9609C139.214 31.2474 139.126 31.4896 138.948 31.6875C138.777 31.8854 138.576 31.9844 138.347 31.9844C138.149 31.9844 137.982 31.9219 137.847 31.7969C137.711 31.6667 137.644 31.4844 137.644 31.25ZM143.044 42.1562C142.085 42.1562 141.333 41.8724 140.786 41.3047C140.239 40.737 139.966 39.9505 139.966 38.9453C139.966 37.9661 140.158 37.0286 140.544 36.1328C140.934 35.2318 141.45 34.5312 142.091 34.0312C142.731 33.5312 143.437 33.2812 144.208 33.2812C145.005 33.2812 145.604 33.4557 146.005 33.8047C146.406 34.1484 146.606 34.6302 146.606 35.25C146.606 36.1875 146.174 36.9245 145.309 37.4609C144.445 37.9922 143.208 38.2578 141.598 38.2578H141.341L141.309 38.8828C141.309 39.5651 141.468 40.099 141.786 40.4844C142.109 40.8646 142.606 41.0547 143.278 41.0547C143.606 41.0547 143.942 41.0078 144.286 40.9141C144.635 40.8203 145.067 40.6484 145.583 40.3984V41.5391C145.093 41.7682 144.661 41.9271 144.286 42.0156C143.911 42.1094 143.497 42.1562 143.044 42.1562ZM144.13 34.3984C143.593 34.3984 143.088 34.6432 142.614 35.1328C142.145 35.6224 141.786 36.3021 141.536 37.1719H141.63C142.817 37.1719 143.726 37.0182 144.356 36.7109C144.992 36.3984 145.309 35.9479 145.309 35.3594C145.309 35.0833 145.213 34.8542 145.02 34.6719C144.833 34.4896 144.536 34.3984 144.13 34.3984ZM151.194 42.1562C150.183 42.1562 149.399 41.8776 148.842 41.3203C148.285 40.763 148.006 39.9766 148.006 38.9609C148.006 37.9193 148.199 36.9583 148.584 36.0781C148.97 35.1979 149.501 34.513 150.178 34.0234C150.86 33.5286 151.626 33.2812 152.475 33.2812C153.189 33.2812 153.886 33.4141 154.569 33.6797L154.202 34.7812C153.577 34.5156 153.006 34.3828 152.491 34.3828C151.907 34.3828 151.373 34.5833 150.889 34.9844C150.41 35.3802 150.032 35.9349 149.756 36.6484C149.485 37.3568 149.35 38.1276 149.35 38.9609C149.35 39.6276 149.522 40.1458 149.866 40.5156C150.215 40.8854 150.694 41.0703 151.303 41.0703C151.678 41.0703 152.032 41.0182 152.366 40.9141C152.699 40.8099 153.027 40.6875 153.35 40.5469V41.6641C152.704 41.9922 151.985 42.1562 151.194 42.1562ZM157.68 41.0859C157.966 41.0859 158.341 41.0182 158.805 40.8828V41.8906C158.628 41.9635 158.409 42.026 158.148 42.0781C157.888 42.1302 157.68 42.1562 157.523 42.1562C156.872 42.1562 156.372 42.0026 156.023 41.6953C155.68 41.3828 155.508 40.9193 155.508 40.3047C155.508 39.9609 155.555 39.5703 155.648 39.1328L156.641 34.4297H155.297L155.406 33.8594L156.852 33.25L157.828 31.4688H158.594L158.164 33.4375H160.305L160.102 34.4297H157.969L156.961 39.1484C156.867 39.6016 156.82 39.9453 156.82 40.1797C156.82 40.4714 156.896 40.6953 157.047 40.8516C157.198 41.0078 157.409 41.0859 157.68 41.0859ZM165.673 39.5703C165.673 40.3828 165.384 41.0182 164.806 41.4766C164.233 41.9297 163.423 42.1562 162.377 42.1562C161.496 42.1562 160.702 41.9766 159.994 41.6172V40.3828C160.358 40.6016 160.752 40.7708 161.173 40.8906C161.595 41.0104 161.986 41.0703 162.345 41.0703C163.002 41.0703 163.496 40.9401 163.83 40.6797C164.163 40.4193 164.33 40.0859 164.33 39.6797C164.33 39.3828 164.239 39.1328 164.056 38.9297C163.874 38.7266 163.481 38.4479 162.877 38.0938C162.199 37.7135 161.72 37.3411 161.439 36.9766C161.158 36.612 161.017 36.1797 161.017 35.6797C161.017 34.9609 161.28 34.3828 161.806 33.9453C162.332 33.5026 163.025 33.2812 163.884 33.2812C164.775 33.2812 165.634 33.474 166.462 33.8594L166.041 34.9297L165.603 34.7344C165.077 34.5104 164.504 34.3984 163.884 34.3984C163.4 34.3984 163.02 34.513 162.744 34.7422C162.468 34.9661 162.33 35.2578 162.33 35.6172C162.33 35.9089 162.421 36.1589 162.603 36.3672C162.791 36.5755 163.173 36.8438 163.752 37.1719C164.309 37.4844 164.707 37.7526 164.947 37.9766C165.192 38.2005 165.374 38.4427 165.494 38.7031C165.614 38.9583 165.673 39.2474 165.673 39.5703Z" fill="#595959"/>
<path fill-rule="evenodd" clip-rule="evenodd" d="M405.326 30.8667C402.863 30.8667 400.867 32.8632 400.867 35.326C400.867 37.7887 402.863 39.7852 405.326 39.7852C406.521 39.7852 407.606 39.3151 408.407 38.5497C408.428 38.5237 408.45 38.4986 408.474 38.4745C408.499 38.4504 408.524 38.4279 408.55 38.4069C409.315 37.6063 409.785 36.521 409.785 35.326C409.785 32.8632 407.789 30.8667 405.326 30.8667ZM410.41 39.0904C411.19 38.0385 411.652 36.7361 411.652 35.326C411.652 31.8322 408.82 29 405.326 29C401.832 29 399 31.8322 399 35.326C399 38.8197 401.832 41.6519 405.326 41.6519C406.736 41.6519 408.039 41.1905 409.09 40.4104L411.407 42.7267C411.771 43.0911 412.362 43.0911 412.727 42.7267C413.091 42.3622 413.091 41.7712 412.727 41.4067L410.41 39.0904Z" fill="#1C1D1E"/>
<rect width="59" height="14" transform="translate(12 1)" fill="white"/>
<path d="M26.0488 7.98926C26.0488 9.58887 25.6432 10.8467 24.832 11.7627C24.0254 12.6787 22.902 13.1367 21.4619 13.1367C19.9899 13.1367 18.8529 12.6878 18.0508 11.79C17.2533 10.8877 16.8545 9.61621 16.8545 7.97559C16.8545 6.34863 17.2555 5.08854 18.0576 4.19531C18.8597 3.29753 19.999 2.84863 21.4756 2.84863C22.9111 2.84863 24.0322 3.30436 24.8389 4.21582C25.6455 5.12728 26.0488 6.38509 26.0488 7.98926ZM18.085 7.98926C18.085 9.34277 18.3721 10.3704 18.9463 11.0723C19.5251 11.7695 20.3636 12.1182 21.4619 12.1182C22.5693 12.1182 23.4056 11.7695 23.9707 11.0723C24.5358 10.375 24.8184 9.34733 24.8184 7.98926C24.8184 6.64486 24.5358 5.6263 23.9707 4.93359C23.4102 4.23633 22.5785 3.8877 21.4756 3.8877C20.3682 3.8877 19.5251 4.23861 18.9463 4.94043C18.3721 5.6377 18.085 6.65397 18.085 7.98926ZM31.7496 5.38477C32.734 5.38477 33.4973 5.72201 34.0396 6.39648C34.5865 7.06641 34.86 8.0166 34.86 9.24707C34.86 10.4775 34.5842 11.4346 34.0328 12.1182C33.4859 12.7972 32.7249 13.1367 31.7496 13.1367C31.262 13.1367 30.8154 13.0479 30.4098 12.8701C30.0087 12.6878 29.6715 12.4098 29.398 12.0361H29.316L29.0768 13H28.2633V2.36328H29.398V4.94727C29.398 5.52604 29.3798 6.04557 29.3434 6.50586H29.398C29.9267 5.75846 30.7105 5.38477 31.7496 5.38477ZM31.5855 6.33496C30.8108 6.33496 30.2525 6.55827 29.9107 7.00488C29.5689 7.44694 29.398 8.19434 29.398 9.24707C29.398 10.2998 29.5735 11.054 29.9244 11.5098C30.2753 11.9609 30.8382 12.1865 31.6129 12.1865C32.3102 12.1865 32.8297 11.9336 33.1715 11.4277C33.5133 10.9173 33.6842 10.1859 33.6842 9.2334C33.6842 8.25814 33.5133 7.53125 33.1715 7.05273C32.8297 6.57422 32.301 6.33496 31.5855 6.33496ZM36.09 16.3633C35.6571 16.3633 35.3062 16.3063 35.0373 16.1924V15.2695C35.3518 15.3607 35.6617 15.4062 35.967 15.4062C36.3225 15.4062 36.5822 15.3083 36.7463 15.1123C36.9149 14.9209 36.9992 14.627 36.9992 14.2305V5.50781H38.134V14.1484C38.134 15.625 37.4527 16.3633 36.09 16.3633ZM36.9035 3.47754C36.9035 3.21777 36.9673 3.02865 37.0949 2.91016C37.2225 2.78711 37.382 2.72559 37.5734 2.72559C37.7557 2.72559 37.913 2.78711 38.0451 2.91016C38.1773 3.0332 38.2434 3.22233 38.2434 3.47754C38.2434 3.73275 38.1773 3.92415 38.0451 4.05176C37.913 4.1748 37.7557 4.23633 37.5734 4.23633C37.382 4.23633 37.2225 4.1748 37.0949 4.05176C36.9673 3.92415 36.9035 3.73275 36.9035 3.47754ZM43.8553 13.1367C42.7479 13.1367 41.8729 12.7995 41.2303 12.125C40.5923 11.4505 40.2732 10.514 40.2732 9.31543C40.2732 8.10775 40.5695 7.14844 41.1619 6.4375C41.7589 5.72656 42.5587 5.37109 43.5613 5.37109C44.5001 5.37109 45.243 5.68099 45.7898 6.30078C46.3367 6.91602 46.6102 7.72949 46.6102 8.74121V9.45898H41.449C41.4718 10.3385 41.6928 11.0062 42.1121 11.4619C42.5359 11.9176 43.1307 12.1455 43.8963 12.1455C44.7029 12.1455 45.5005 11.9769 46.2889 11.6396V12.6514C45.8878 12.8245 45.5073 12.9476 45.1473 13.0205C44.7918 13.098 44.3611 13.1367 43.8553 13.1367ZM43.5477 6.32129C42.9461 6.32129 42.4653 6.51725 42.1053 6.90918C41.7498 7.30111 41.5402 7.84342 41.4764 8.53613H45.3934C45.3934 7.82064 45.2339 7.27376 44.9148 6.89551C44.5958 6.5127 44.1401 6.32129 43.5477 6.32129ZM51.6957 13.1367C50.6111 13.1367 49.7702 12.804 49.1732 12.1387C48.5808 11.4688 48.2846 10.5231 48.2846 9.30176C48.2846 8.0485 48.5854 7.08008 49.1869 6.39648C49.793 5.71289 50.6544 5.37109 51.7709 5.37109C52.1309 5.37109 52.491 5.40983 52.851 5.4873C53.211 5.56478 53.4936 5.65592 53.6986 5.76074L53.35 6.72461C53.0993 6.62435 52.8259 6.54232 52.5297 6.47852C52.2335 6.41016 51.9714 6.37598 51.7436 6.37598C50.2214 6.37598 49.4604 7.34668 49.4604 9.28809C49.4604 10.2087 49.6449 10.915 50.0141 11.4072C50.3878 11.8994 50.9392 12.1455 51.6684 12.1455C52.2927 12.1455 52.933 12.0111 53.5893 11.7422V12.7471C53.088 13.0068 52.4568 13.1367 51.6957 13.1367ZM57.9434 12.2002C58.1439 12.2002 58.3376 12.1865 58.5244 12.1592C58.7113 12.1273 58.8594 12.0954 58.9688 12.0635V12.9316C58.8457 12.9909 58.6634 13.0387 58.4219 13.0752C58.1849 13.1162 57.9707 13.1367 57.7793 13.1367C56.3301 13.1367 55.6055 12.3734 55.6055 10.8467V6.38965H54.5322V5.84277L55.6055 5.37109L56.084 3.77148H56.7402V5.50781H58.9141V6.38965H56.7402V10.7988C56.7402 11.25 56.8473 11.5964 57.0615 11.8379C57.2757 12.0794 57.5697 12.2002 57.9434 12.2002ZM65.4557 10.9561C65.4557 11.6533 65.1959 12.1911 64.6764 12.5693C64.1568 12.9476 63.4277 13.1367 62.4889 13.1367C61.4954 13.1367 60.7206 12.9795 60.1646 12.665V11.6123C60.5247 11.7946 60.9098 11.9382 61.3199 12.043C61.7346 12.1478 62.1334 12.2002 62.5162 12.2002C63.1087 12.2002 63.5644 12.1068 63.8834 11.9199C64.2024 11.7285 64.3619 11.4391 64.3619 11.0518C64.3619 10.7601 64.2343 10.5117 63.9791 10.3066C63.7285 10.097 63.2363 9.85091 62.5025 9.56836C61.8053 9.30859 61.3085 9.08301 61.0123 8.8916C60.7206 8.69564 60.5019 8.47461 60.3561 8.22852C60.2148 7.98242 60.1441 7.68848 60.1441 7.34668C60.1441 6.736 60.3925 6.25521 60.8893 5.9043C61.386 5.54883 62.0673 5.37109 62.9332 5.37109C63.7398 5.37109 64.5283 5.53516 65.2984 5.86328L64.8951 6.78613C64.1432 6.47624 63.4619 6.32129 62.8512 6.32129C62.3134 6.32129 61.9078 6.4056 61.6344 6.57422C61.3609 6.74284 61.2242 6.97526 61.2242 7.27148C61.2242 7.47201 61.2744 7.6429 61.3746 7.78418C61.4794 7.92546 61.6458 8.0599 61.8736 8.1875C62.1015 8.3151 62.539 8.49967 63.1861 8.74121C64.0748 9.06478 64.6741 9.39062 64.984 9.71875C65.2984 10.0469 65.4557 10.4593 65.4557 10.9561Z" fill="#1C1D1E"/>
<rect width="24" height="16" transform="translate(394)" fill="white"/>
<path d="M399.846 12.3599C399.468 13.0266 399.95 13.8529 400.716 13.8529H411.284C412.05 13.8529 412.532 13.0266 412.154 12.3599L406.87 3.03533C406.487 2.35935 405.513 2.35935 405.13 3.03533L399.846 12.3599ZM406.824 11.3824C406.824 11.8372 406.455 12.2059 406 12.2059C405.545 12.2059 405.176 11.8372 405.176 11.3824C405.176 10.9275 405.545 10.5588 406 10.5588C406.455 10.5588 406.824 10.9275 406.824 11.3824ZM406.824 8.91176C406.824 9.36659 406.455 9.73529 406 9.73529C405.545 9.73529 405.176 9.36659 405.176 8.91176V6.26471C405.176 5.80988 405.545 5.44118 406 5.44118C406.455 5.44118 406.824 5.80988 406.824 6.26471V8.91176Z" fill="#CC4E00"/>
</svg>
