<svg width="502" height="64" viewBox="0 0 502 64" fill="none" xmlns="http://www.w3.org/2000/svg">
<rect x="0.5" y="8.5" width="501" height="55" stroke="#CCCCCC"/>
<path d="M18.8984 42H17.5703V30.5781H23.9375V31.7578H18.8984V35.9375H23.6328V37.1172H18.8984V42ZM27.0875 42H25.7906V33.4375H27.0875V42ZM25.6812 31.1172C25.6812 30.8203 25.7542 30.6042 25.9 30.4688C26.0458 30.3281 26.2281 30.2578 26.4469 30.2578C26.6552 30.2578 26.8349 30.3281 26.9859 30.4688C27.137 30.6094 27.2125 30.8255 27.2125 31.1172C27.2125 31.4089 27.137 31.6276 26.9859 31.7734C26.8349 31.9141 26.6552 31.9844 26.4469 31.9844C26.2281 31.9844 26.0458 31.9141 25.9 31.7734C25.7542 31.6276 25.6812 31.4089 25.6812 31.1172ZM33.8938 33.2812C34.274 33.2812 34.6151 33.3125 34.9172 33.375L34.7375 34.5781C34.3833 34.5 34.0708 34.4609 33.8 34.4609C33.1073 34.4609 32.5135 34.7422 32.0188 35.3047C31.5292 35.8672 31.2844 36.5677 31.2844 37.4062V42H29.9875V33.4375H31.0578L31.2063 35.0234H31.2688C31.5865 34.4661 31.9693 34.0365 32.4172 33.7344C32.8651 33.4323 33.3573 33.2812 33.8938 33.2812ZM42.1922 39.6641C42.1922 40.4609 41.8953 41.0755 41.3016 41.5078C40.7078 41.9401 39.8745 42.1562 38.8016 42.1562C37.6661 42.1562 36.7807 41.9766 36.1453 41.6172V40.4141C36.5568 40.6224 36.9969 40.7865 37.4656 40.9062C37.9396 41.026 38.3953 41.0859 38.8328 41.0859C39.5099 41.0859 40.0307 40.9792 40.3953 40.7656C40.7599 40.5469 40.9422 40.2161 40.9422 39.7734C40.9422 39.4401 40.7964 39.1562 40.5047 38.9219C40.2182 38.6823 39.6557 38.401 38.8172 38.0781C38.0203 37.7812 37.4526 37.5234 37.1141 37.3047C36.7807 37.0807 36.5307 36.8281 36.3641 36.5469C36.2026 36.2656 36.1219 35.9297 36.1219 35.5391C36.1219 34.8411 36.4057 34.2917 36.9734 33.8906C37.5411 33.4844 38.3198 33.2812 39.3094 33.2812C40.2313 33.2812 41.1323 33.4688 42.0125 33.8438L41.5516 34.8984C40.6922 34.5443 39.9135 34.3672 39.2156 34.3672C38.601 34.3672 38.1375 34.4635 37.825 34.6562C37.5125 34.849 37.3563 35.1146 37.3563 35.4531C37.3563 35.6823 37.4135 35.8776 37.5281 36.0391C37.6479 36.2005 37.838 36.3542 38.0984 36.5C38.3589 36.6458 38.8589 36.8568 39.5984 37.1328C40.6141 37.5026 41.299 37.875 41.6531 38.25C42.0125 38.625 42.1922 39.0964 42.1922 39.6641ZM47.225 41.0859C47.4542 41.0859 47.6755 41.0703 47.8891 41.0391C48.1026 41.0026 48.2719 40.9661 48.3969 40.9297V41.9219C48.2563 41.9896 48.0479 42.0443 47.7719 42.0859C47.501 42.1328 47.2563 42.1562 47.0375 42.1562C45.3813 42.1562 44.5531 41.2839 44.5531 39.5391V34.4453H43.3266V33.8203L44.5531 33.2812L45.1 31.4531H45.85V33.4375H48.3344V34.4453H45.85V39.4844C45.85 40 45.9724 40.3958 46.2172 40.6719C46.462 40.9479 46.7979 41.0859 47.225 41.0859ZM55.8688 42H54.5719V33.4375H55.8688V42ZM54.4625 31.1172C54.4625 30.8203 54.5354 30.6042 54.6813 30.4688C54.8271 30.3281 55.0094 30.2578 55.2281 30.2578C55.4365 30.2578 55.6161 30.3281 55.7672 30.4688C55.9182 30.6094 55.9938 30.8255 55.9938 31.1172C55.9938 31.4089 55.9182 31.6276 55.7672 31.7734C55.6161 31.9141 55.4365 31.9844 55.2281 31.9844C55.0094 31.9844 54.8271 31.9141 54.6813 31.7734C54.5354 31.6276 54.4625 31.4089 54.4625 31.1172ZM61.5344 41.0859C61.7635 41.0859 61.9849 41.0703 62.1984 41.0391C62.412 41.0026 62.5812 40.9661 62.7062 40.9297V41.9219C62.5656 41.9896 62.3573 42.0443 62.0812 42.0859C61.8104 42.1328 61.5656 42.1562 61.3469 42.1562C59.6906 42.1562 58.8625 41.2839 58.8625 39.5391V34.4453H57.6359V33.8203L58.8625 33.2812L59.4094 31.4531H60.1594V33.4375H62.6437V34.4453H60.1594V39.4844C60.1594 40 60.2818 40.3958 60.5266 40.6719C60.7714 40.9479 61.1073 41.0859 61.5344 41.0859ZM68.1922 42.1562C66.9266 42.1562 65.9266 41.7708 65.1922 41C64.463 40.2292 64.0984 39.1589 64.0984 37.7891C64.0984 36.4089 64.437 35.3125 65.1141 34.5C65.7964 33.6875 66.7104 33.2812 67.8563 33.2812C68.9292 33.2812 69.7781 33.6354 70.4031 34.3438C71.0281 35.0469 71.3406 35.9766 71.3406 37.1328V37.9531H65.4422C65.4682 38.9583 65.7208 39.7214 66.2 40.2422C66.6844 40.763 67.3641 41.0234 68.2391 41.0234C69.1609 41.0234 70.0724 40.8307 70.9734 40.4453V41.6016C70.5151 41.7995 70.0802 41.9401 69.6688 42.0234C69.2625 42.112 68.7703 42.1562 68.1922 42.1562ZM67.8406 34.3672C67.1531 34.3672 66.6036 34.5911 66.1922 35.0391C65.7859 35.487 65.5464 36.1068 65.4734 36.8984H69.95C69.95 36.0807 69.7677 35.4557 69.4031 35.0234C69.0385 34.5859 68.5177 34.3672 67.8406 34.3672ZM84.6234 42V36.4297C84.6234 35.7474 84.4776 35.237 84.1859 34.8984C83.8943 34.5547 83.4411 34.3828 82.8266 34.3828C82.0193 34.3828 81.4229 34.6146 81.0375 35.0781C80.6521 35.5417 80.4594 36.2552 80.4594 37.2188V42H79.1625V36.4297C79.1625 35.7474 79.0167 35.237 78.725 34.8984C78.4333 34.5547 77.9776 34.3828 77.3578 34.3828C76.5453 34.3828 75.949 34.6276 75.5687 35.1172C75.1937 35.6016 75.0062 36.3984 75.0062 37.5078V42H73.7094V33.4375H74.7641L74.975 34.6094H75.0375C75.2823 34.1927 75.626 33.8672 76.0687 33.6328C76.5167 33.3984 77.0167 33.2812 77.5687 33.2812C78.9073 33.2812 79.7823 33.7656 80.1937 34.7344H80.2562C80.5115 34.2865 80.8812 33.9323 81.3656 33.6719C81.85 33.4115 82.4021 33.2812 83.0219 33.2812C83.9906 33.2812 84.7146 33.5312 85.1937 34.0312C85.6781 34.526 85.9203 35.3203 85.9203 36.4141V42H84.6234Z" fill="black"/>
<path d="M477.973 39.8659C477.789 39.867 477.607 39.8318 477.438 39.7625C477.268 39.6931 477.113 39.591 476.983 39.4618L471.41 33.8884C471.28 33.7585 471.177 33.6042 471.106 33.4345C471.036 33.2648 471 33.0828 471 32.8991C471 32.7154 471.036 32.5334 471.106 32.3637C471.177 32.194 471.28 32.0397 471.41 31.9098C471.54 31.7799 471.694 31.6768 471.864 31.6065C472.033 31.5362 472.215 31.5 472.399 31.5C472.583 31.5 472.765 31.5362 472.934 31.6065C473.104 31.6768 473.258 31.7799 473.388 31.9098L477.973 36.5218L482.571 32.0909C482.699 31.9484 482.855 31.8339 483.029 31.7545C483.204 31.6751 483.393 31.6325 483.585 31.6295C483.776 31.6264 483.966 31.663 484.143 31.7368C484.32 31.8107 484.48 31.9202 484.613 32.0586C484.745 32.197 484.848 32.3613 484.914 32.5411C484.98 32.721 485.009 32.9126 484.998 33.104C484.986 33.2953 484.936 33.4823 484.849 33.6533C484.762 33.8242 484.641 33.9754 484.493 34.0974L478.92 39.4758C478.665 39.7214 478.326 39.8609 477.973 39.8659Z" fill="#595959"/>
<rect width="48" height="14" transform="translate(12 1)" fill="white"/>
<path d="M23.0137 10.3408C23.0137 11.2204 22.6947 11.9062 22.0566 12.3984C21.4186 12.8906 20.5527 13.1367 19.459 13.1367C18.2741 13.1367 17.3626 12.984 16.7246 12.6787V11.5576C17.1348 11.7308 17.5814 11.8675 18.0645 11.9678C18.5475 12.068 19.026 12.1182 19.5 12.1182C20.2747 12.1182 20.8581 11.9723 21.25 11.6807C21.6419 11.3844 21.8379 10.9743 21.8379 10.4502C21.8379 10.1038 21.7673 9.82129 21.626 9.60254C21.4893 9.37923 21.2568 9.17415 20.9287 8.9873C20.6051 8.80046 20.1107 8.58854 19.4453 8.35156C18.5156 8.01888 17.8503 7.62467 17.4492 7.16895C17.0527 6.71322 16.8545 6.11849 16.8545 5.38477C16.8545 4.61458 17.1439 4.00163 17.7227 3.5459C18.3014 3.09017 19.0671 2.8623 20.0195 2.8623C21.013 2.8623 21.9268 3.0446 22.7607 3.40918L22.3984 4.4209C21.5736 4.07454 20.7715 3.90137 19.9922 3.90137C19.377 3.90137 18.8962 4.03353 18.5498 4.29785C18.2035 4.56217 18.0303 4.92904 18.0303 5.39844C18.0303 5.74479 18.0941 6.02962 18.2217 6.25293C18.3493 6.47168 18.5635 6.67448 18.8643 6.86133C19.1696 7.04362 19.6344 7.24642 20.2588 7.46973C21.307 7.84342 22.027 8.24447 22.4189 8.67285C22.8154 9.10124 23.0137 9.65723 23.0137 10.3408ZM28.2018 13.1367C27.0943 13.1367 26.2193 12.7995 25.5768 12.125C24.9387 11.4505 24.6197 10.514 24.6197 9.31543C24.6197 8.10775 24.916 7.14844 25.5084 6.4375C26.1054 5.72656 26.9052 5.37109 27.9078 5.37109C28.8466 5.37109 29.5895 5.68099 30.1363 6.30078C30.6832 6.91602 30.9566 7.72949 30.9566 8.74121V9.45898H25.7955C25.8183 10.3385 26.0393 11.0062 26.4586 11.4619C26.8824 11.9176 27.4771 12.1455 28.2428 12.1455C29.0494 12.1455 29.8469 11.9769 30.6354 11.6396V12.6514C30.2343 12.8245 29.8538 12.9476 29.4938 13.0205C29.1383 13.098 28.7076 13.1367 28.2018 13.1367ZM27.8941 6.32129C27.2926 6.32129 26.8118 6.51725 26.4518 6.90918C26.0963 7.30111 25.8867 7.84342 25.8229 8.53613H29.7398C29.7398 7.82064 29.5803 7.27376 29.2613 6.89551C28.9423 6.5127 28.4866 6.32129 27.8941 6.32129ZM34.1828 13H33.048V2.36328H34.1828V13ZM39.9041 13.1367C38.7967 13.1367 37.9217 12.7995 37.2791 12.125C36.6411 11.4505 36.3221 10.514 36.3221 9.31543C36.3221 8.10775 36.6183 7.14844 37.2107 6.4375C37.8077 5.72656 38.6076 5.37109 39.6102 5.37109C40.549 5.37109 41.2918 5.68099 41.8387 6.30078C42.3855 6.91602 42.659 7.72949 42.659 8.74121V9.45898H37.4979C37.5206 10.3385 37.7417 11.0062 38.1609 11.4619C38.5848 11.9176 39.1795 12.1455 39.9451 12.1455C40.7518 12.1455 41.5493 11.9769 42.3377 11.6396V12.6514C41.9367 12.8245 41.5561 12.9476 41.1961 13.0205C40.8406 13.098 40.41 13.1367 39.9041 13.1367ZM39.5965 6.32129C38.9949 6.32129 38.5141 6.51725 38.1541 6.90918C37.7986 7.30111 37.589 7.84342 37.5252 8.53613H41.4422C41.4422 7.82064 41.2827 7.27376 40.9637 6.89551C40.6447 6.5127 40.1889 6.32129 39.5965 6.32129ZM47.7445 13.1367C46.6599 13.1367 45.8191 12.804 45.2221 12.1387C44.6296 11.4688 44.3334 10.5231 44.3334 9.30176C44.3334 8.0485 44.6342 7.08008 45.2357 6.39648C45.8419 5.71289 46.7032 5.37109 47.8197 5.37109C48.1798 5.37109 48.5398 5.40983 48.8998 5.4873C49.2598 5.56478 49.5424 5.65592 49.7475 5.76074L49.3988 6.72461C49.1482 6.62435 48.8747 6.54232 48.5785 6.47852C48.2823 6.41016 48.0202 6.37598 47.7924 6.37598C46.2702 6.37598 45.5092 7.34668 45.5092 9.28809C45.5092 10.2087 45.6938 10.915 46.0629 11.4072C46.4366 11.8994 46.988 12.1455 47.7172 12.1455C48.3415 12.1455 48.9818 12.0111 49.6381 11.7422V12.7471C49.1368 13.0068 48.5056 13.1367 47.7445 13.1367ZM53.9922 12.2002C54.1927 12.2002 54.3864 12.1865 54.5732 12.1592C54.7601 12.1273 54.9082 12.0954 55.0176 12.0635V12.9316C54.8945 12.9909 54.7122 13.0387 54.4707 13.0752C54.2337 13.1162 54.0195 13.1367 53.8281 13.1367C52.3789 13.1367 51.6543 12.3734 51.6543 10.8467V6.38965H50.5811V5.84277L51.6543 5.37109L52.1328 3.77148H52.7891V5.50781H54.9629V6.38965H52.7891V10.7988C52.7891 11.25 52.8962 11.5964 53.1104 11.8379C53.3245 12.0794 53.6185 12.2002 53.9922 12.2002Z" fill="#1C1D1E"/>
<rect width="24" height="16" transform="translate(466)" fill="white"/>
<path d="M482.812 1.00003C483.219 1.00003 483.617 1.11316 483.963 1.32673C484.308 1.54031 484.587 1.84589 484.769 2.20925C484.951 2.57261 485.028 2.97938 484.991 3.38398C484.955 3.78858 484.806 4.17503 484.562 4.50003L483.687 5.37503L480.625 2.31253L481.5 1.43753C481.866 1.16278 482.32 1.00003 482.812 1.00003ZM471.875 11.0625L471 15L474.937 14.125L483.031 6.03128L479.969 2.96878L471.875 11.0625ZM480.783 5.97091L474.658 12.0959L473.904 11.3417L480.029 5.21666L480.783 5.97091Z" fill="#005274"/>
</svg>
