<svg width="376" height="64" viewBox="0 0 376 64" fill="none" xmlns="http://www.w3.org/2000/svg">
<rect x="0.5" y="8.5" width="375" height="55" stroke="#CCCCCC"/>
<path d="M24.5312 34.0781C24.5312 35.6146 24.3255 37.0182 23.9141 38.2891C23.5078 39.5599 22.9505 40.5234 22.2422 41.1797C21.5391 41.8307 20.7214 42.1562 19.7891 42.1562C18.8724 42.1562 18.1693 41.8255 17.6797 41.1641C17.1901 40.4974 16.9453 39.5339 16.9453 38.2734C16.9453 36.8672 17.1589 35.5286 17.5859 34.2578C18.013 32.9818 18.5755 32.0208 19.2734 31.375C19.9766 30.724 20.7786 30.3984 21.6797 30.3984C23.5807 30.3984 24.5312 31.625 24.5312 34.0781ZM21.6016 31.5234C21.013 31.5234 20.4688 31.8255 19.9688 32.4297C19.4688 33.0286 19.0625 33.8698 18.75 34.9531C18.4427 36.0312 18.2891 37.1328 18.2891 38.2578C18.2891 39.1536 18.4193 39.8411 18.6797 40.3203C18.9401 40.7995 19.3594 41.0391 19.9375 41.0391C20.5365 41.0391 21.0807 40.7422 21.5703 40.1484C22.0599 39.5547 22.4505 38.7005 22.7422 37.5859C23.0391 36.4714 23.1875 35.2917 23.1875 34.0469C23.1875 32.3646 22.6589 31.5234 21.6016 31.5234ZM33.4937 34.0781C33.4937 35.6146 33.288 37.0182 32.8766 38.2891C32.4703 39.5599 31.913 40.5234 31.2047 41.1797C30.5016 41.8307 29.6839 42.1562 28.7516 42.1562C27.8349 42.1562 27.1318 41.8255 26.6422 41.1641C26.1526 40.4974 25.9078 39.5339 25.9078 38.2734C25.9078 36.8672 26.1214 35.5286 26.5484 34.2578C26.9755 32.9818 27.538 32.0208 28.2359 31.375C28.9391 30.724 29.7411 30.3984 30.6422 30.3984C32.5432 30.3984 33.4937 31.625 33.4937 34.0781ZM30.5641 31.5234C29.9755 31.5234 29.4312 31.8255 28.9312 32.4297C28.4312 33.0286 28.025 33.8698 27.7125 34.9531C27.4052 36.0312 27.2516 37.1328 27.2516 38.2578C27.2516 39.1536 27.3818 39.8411 27.6422 40.3203C27.9026 40.7995 28.3219 41.0391 28.9 41.0391C29.499 41.0391 30.0432 40.7422 30.5328 40.1484C31.0224 39.5547 31.413 38.7005 31.7047 37.5859C32.0016 36.4714 32.15 35.2917 32.15 34.0469C32.15 32.3646 31.6214 31.5234 30.5641 31.5234ZM34.3547 38.3359L34.6281 37.1016H38.3703L38.1047 38.3359H34.3547ZM47.6063 34.0781C47.6063 35.6146 47.4005 37.0182 46.9891 38.2891C46.5828 39.5599 46.0255 40.5234 45.3172 41.1797C44.6141 41.8307 43.7964 42.1562 42.8641 42.1562C41.9474 42.1562 41.2443 41.8255 40.7547 41.1641C40.2651 40.4974 40.0203 39.5339 40.0203 38.2734C40.0203 36.8672 40.2339 35.5286 40.6609 34.2578C41.088 32.9818 41.6505 32.0208 42.3484 31.375C43.0516 30.724 43.8536 30.3984 44.7547 30.3984C46.6557 30.3984 47.6063 31.625 47.6063 34.0781ZM44.6766 31.5234C44.088 31.5234 43.5438 31.8255 43.0438 32.4297C42.5438 33.0286 42.1375 33.8698 41.825 34.9531C41.5177 36.0312 41.3641 37.1328 41.3641 38.2578C41.3641 39.1536 41.4943 39.8411 41.7547 40.3203C42.0151 40.7995 42.4344 41.0391 43.0125 41.0391C43.6115 41.0391 44.1557 40.7422 44.6453 40.1484C45.1349 39.5547 45.5255 38.7005 45.8172 37.5859C46.1141 36.4714 46.2625 35.2917 46.2625 34.0469C46.2625 32.3646 45.7339 31.5234 44.6766 31.5234ZM56.5687 34.0781C56.5687 35.6146 56.363 37.0182 55.9516 38.2891C55.5453 39.5599 54.988 40.5234 54.2797 41.1797C53.5766 41.8307 52.7589 42.1562 51.8266 42.1562C50.9099 42.1562 50.2068 41.8255 49.7172 41.1641C49.2276 40.4974 48.9828 39.5339 48.9828 38.2734C48.9828 36.8672 49.1964 35.5286 49.6234 34.2578C50.0505 32.9818 50.613 32.0208 51.3109 31.375C52.0141 30.724 52.8161 30.3984 53.7172 30.3984C55.6182 30.3984 56.5687 31.625 56.5687 34.0781ZM53.6391 31.5234C53.0505 31.5234 52.5062 31.8255 52.0062 32.4297C51.5062 33.0286 51.1 33.8698 50.7875 34.9531C50.4802 36.0312 50.3266 37.1328 50.3266 38.2578C50.3266 39.1536 50.4568 39.8411 50.7172 40.3203C50.9776 40.7995 51.3969 41.0391 51.975 41.0391C52.574 41.0391 53.1182 40.7422 53.6078 40.1484C54.0974 39.5547 54.488 38.7005 54.7797 37.5859C55.0766 36.4714 55.225 35.2917 55.225 34.0469C55.225 32.3646 54.6964 31.5234 53.6391 31.5234ZM65.5312 34.0781C65.5312 35.6146 65.3255 37.0182 64.9141 38.2891C64.5078 39.5599 63.9505 40.5234 63.2422 41.1797C62.5391 41.8307 61.7214 42.1562 60.7891 42.1562C59.8724 42.1562 59.1693 41.8255 58.6797 41.1641C58.1901 40.4974 57.9453 39.5339 57.9453 38.2734C57.9453 36.8672 58.1589 35.5286 58.5859 34.2578C59.013 32.9818 59.5755 32.0208 60.2734 31.375C60.9766 30.724 61.7786 30.3984 62.6797 30.3984C64.5807 30.3984 65.5312 31.625 65.5312 34.0781ZM62.6016 31.5234C62.013 31.5234 61.4688 31.8255 60.9688 32.4297C60.4688 33.0286 60.0625 33.8698 59.75 34.9531C59.4427 36.0312 59.2891 37.1328 59.2891 38.2578C59.2891 39.1536 59.4193 39.8411 59.6797 40.3203C59.9401 40.7995 60.3594 41.0391 60.9375 41.0391C61.5365 41.0391 62.0807 40.7422 62.5703 40.1484C63.0599 39.5547 63.4505 38.7005 63.7422 37.5859C64.0391 36.4714 64.1875 35.2917 64.1875 34.0469C64.1875 32.3646 63.6589 31.5234 62.6016 31.5234ZM74.4938 34.0781C74.4938 35.6146 74.288 37.0182 73.8766 38.2891C73.4703 39.5599 72.913 40.5234 72.2047 41.1797C71.5016 41.8307 70.6839 42.1562 69.7516 42.1562C68.8349 42.1562 68.1318 41.8255 67.6422 41.1641C67.1526 40.4974 66.9078 39.5339 66.9078 38.2734C66.9078 36.8672 67.1214 35.5286 67.5484 34.2578C67.9755 32.9818 68.538 32.0208 69.2359 31.375C69.9391 30.724 70.7411 30.3984 71.6422 30.3984C73.5432 30.3984 74.4938 31.625 74.4938 34.0781ZM71.5641 31.5234C70.9755 31.5234 70.4313 31.8255 69.9313 32.4297C69.4313 33.0286 69.025 33.8698 68.7125 34.9531C68.4052 36.0312 68.2516 37.1328 68.2516 38.2578C68.2516 39.1536 68.3818 39.8411 68.6422 40.3203C68.9026 40.7995 69.3219 41.0391 69.9 41.0391C70.499 41.0391 71.0432 40.7422 71.5328 40.1484C72.0224 39.5547 72.413 38.7005 72.7047 37.5859C73.0016 36.4714 73.15 35.2917 73.15 34.0469C73.15 32.3646 72.6214 31.5234 71.5641 31.5234ZM75.3547 38.3359L75.6281 37.1016H79.3703L79.1047 38.3359H75.3547ZM88.6062 34.0781C88.6062 35.6146 88.4005 37.0182 87.9891 38.2891C87.5828 39.5599 87.0255 40.5234 86.3172 41.1797C85.6141 41.8307 84.7964 42.1562 83.8641 42.1562C82.9474 42.1562 82.2443 41.8255 81.7547 41.1641C81.2651 40.4974 81.0203 39.5339 81.0203 38.2734C81.0203 36.8672 81.2339 35.5286 81.6609 34.2578C82.088 32.9818 82.6505 32.0208 83.3484 31.375C84.0516 30.724 84.8536 30.3984 85.7547 30.3984C87.6557 30.3984 88.6062 31.625 88.6062 34.0781ZM85.6766 31.5234C85.088 31.5234 84.5437 31.8255 84.0437 32.4297C83.5437 33.0286 83.1375 33.8698 82.825 34.9531C82.5177 36.0312 82.3641 37.1328 82.3641 38.2578C82.3641 39.1536 82.4943 39.8411 82.7547 40.3203C83.0151 40.7995 83.4344 41.0391 84.0125 41.0391C84.6115 41.0391 85.1557 40.7422 85.6453 40.1484C86.1349 39.5547 86.5255 38.7005 86.8172 37.5859C87.1141 36.4714 87.2625 35.2917 87.2625 34.0469C87.2625 32.3646 86.7339 31.5234 85.6766 31.5234ZM97.5687 34.0781C97.5687 35.6146 97.363 37.0182 96.9516 38.2891C96.5453 39.5599 95.988 40.5234 95.2797 41.1797C94.5766 41.8307 93.7589 42.1562 92.8266 42.1562C91.9099 42.1562 91.2068 41.8255 90.7172 41.1641C90.2276 40.4974 89.9828 39.5339 89.9828 38.2734C89.9828 36.8672 90.1964 35.5286 90.6234 34.2578C91.0505 32.9818 91.613 32.0208 92.3109 31.375C93.0141 30.724 93.8161 30.3984 94.7172 30.3984C96.6182 30.3984 97.5687 31.625 97.5687 34.0781ZM94.6391 31.5234C94.0505 31.5234 93.5062 31.8255 93.0062 32.4297C92.5062 33.0286 92.1 33.8698 91.7875 34.9531C91.4802 36.0312 91.3266 37.1328 91.3266 38.2578C91.3266 39.1536 91.4568 39.8411 91.7172 40.3203C91.9776 40.7995 92.3969 41.0391 92.975 41.0391C93.574 41.0391 94.1182 40.7422 94.6078 40.1484C95.0974 39.5547 95.488 38.7005 95.7797 37.5859C96.0766 36.4714 96.225 35.2917 96.225 34.0469C96.225 32.3646 95.6964 31.5234 94.6391 31.5234Z" fill="#595959"/>
<rect width="64" height="16" transform="translate(12)" fill="white"/>
<path d="M17.374 13V3.00586H18.5361V13H17.374ZM26.3902 13V8.15332C26.3902 7.54264 26.2512 7.08691 25.9732 6.78613C25.6952 6.48535 25.26 6.33496 24.6676 6.33496C23.8837 6.33496 23.3095 6.54688 22.9449 6.9707C22.5803 7.39453 22.398 8.09408 22.398 9.06934V13H21.2633V5.50781H22.1861L22.3707 6.5332H22.4254C22.6578 6.16406 22.9837 5.87923 23.4029 5.67871C23.8222 5.47363 24.2893 5.37109 24.8043 5.37109C25.7066 5.37109 26.3857 5.58984 26.8414 6.02734C27.2971 6.46029 27.525 7.15527 27.525 8.1123V13H26.3902ZM33.4992 13.1367C33.0116 13.1367 32.565 13.0479 32.1594 12.8701C31.7583 12.6878 31.4211 12.4098 31.1477 12.0361H31.0656C31.1203 12.4736 31.1477 12.8883 31.1477 13.2803V16.3633H30.0129V5.50781H30.9357L31.093 6.5332H31.1477C31.4393 6.12305 31.7788 5.82682 32.1662 5.64453C32.5536 5.46224 32.9979 5.37109 33.4992 5.37109C34.4927 5.37109 35.2583 5.71061 35.7961 6.38965C36.3384 7.06868 36.6096 8.02116 36.6096 9.24707C36.6096 10.4775 36.3339 11.4346 35.7824 12.1182C35.2355 12.7972 34.4745 13.1367 33.4992 13.1367ZM33.3352 6.33496C32.5695 6.33496 32.0158 6.54688 31.674 6.9707C31.3322 7.39453 31.1568 8.06901 31.1477 8.99414V9.24707C31.1477 10.2998 31.3231 11.054 31.674 11.5098C32.0249 11.9609 32.5878 12.1865 33.3625 12.1865C34.0096 12.1865 34.5155 11.9245 34.8801 11.4004C35.2492 10.8763 35.4338 10.154 35.4338 9.2334C35.4338 8.29915 35.2492 7.58366 34.8801 7.08691C34.5155 6.58561 34.0005 6.33496 33.3352 6.33496ZM39.8152 5.50781V10.3682C39.8152 10.9788 39.9542 11.4346 40.2322 11.7354C40.5102 12.0361 40.9454 12.1865 41.5379 12.1865C42.3217 12.1865 42.8937 11.9723 43.2537 11.5439C43.6183 11.1156 43.8006 10.416 43.8006 9.44531V5.50781H44.9354V13H43.9988L43.8348 11.9951H43.7732C43.5408 12.3643 43.2173 12.6468 42.8025 12.8428C42.3924 13.0387 41.923 13.1367 41.3943 13.1367C40.4829 13.1367 39.7993 12.9202 39.3436 12.4873C38.8924 12.0544 38.6668 11.3617 38.6668 10.4092V5.50781H39.8152ZM49.9184 12.2002C50.1189 12.2002 50.3126 12.1865 50.4994 12.1592C50.6863 12.1273 50.8344 12.0954 50.9438 12.0635V12.9316C50.8207 12.9909 50.6384 13.0387 50.3969 13.0752C50.1599 13.1162 49.9457 13.1367 49.7543 13.1367C48.3051 13.1367 47.5805 12.3734 47.5805 10.8467V6.38965H46.5072V5.84277L47.5805 5.37109L48.059 3.77148H48.7152V5.50781H50.8891V6.38965H48.7152V10.7988C48.7152 11.25 48.8223 11.5964 49.0365 11.8379C49.2507 12.0794 49.5447 12.2002 49.9184 12.2002Z" fill="#1C1D1E"/>
<path d="M64 1C67.866 1 71 4.13401 71 8C71 11.866 67.866 15 64 15C60.134 15 57 11.866 57 8C57 4.13401 60.134 1 64 1ZM62 6.7002V7.7002H63V10.7002H62V11.7002H66V10.7002H65V6.7002H62ZM63.75 3.7002C63.338 3.7002 63 4.0382 63 4.4502V4.9502C63.0008 5.14879 63.0803 5.33906 63.2207 5.47949C63.3612 5.61991 63.5514 5.69941 63.75 5.7002H64.25C64.6619 5.7002 64.9999 5.36211 65 4.9502V4.4502C65 4.0382 64.662 3.7002 64.25 3.7002H63.75Z" fill="#005274"/>
<rect width="24" height="16" transform="translate(340)" fill="white"/>
<path d="M345.846 12.3599C345.468 13.0266 345.95 13.8529 346.716 13.8529H357.284C358.05 13.8529 358.532 13.0266 358.154 12.3599L352.87 3.03533C352.487 2.35935 351.513 2.35935 351.13 3.03533L345.846 12.3599ZM352.824 11.3824C352.824 11.8372 352.455 12.2059 352 12.2059C351.545 12.2059 351.176 11.8372 351.176 11.3824C351.176 10.9275 351.545 10.5588 352 10.5588C352.455 10.5588 352.824 10.9275 352.824 11.3824ZM352.824 8.91176C352.824 9.36659 352.455 9.73529 352 9.73529C351.545 9.73529 351.176 9.36659 351.176 8.91176V6.26471C351.176 5.80988 351.545 5.44118 352 5.44118C352.455 5.44118 352.824 5.80988 352.824 6.26471V8.91176Z" fill="#CC4E00"/>
</svg>
