<svg width="502" height="64" viewBox="0 0 502 64" fill="none" xmlns="http://www.w3.org/2000/svg">
<rect x="0.5" y="8.5" width="501" height="55" stroke="#CCCCCC"/>
<path d="M17.5703 42V30.5781H18.8984V40.7969H23.9375V42H17.5703ZM33.2281 37.7109C33.2281 39.1068 32.8766 40.1979 32.1734 40.9844C31.4703 41.7656 30.499 42.1562 29.2594 42.1562C28.4937 42.1562 27.8141 41.9766 27.2203 41.6172C26.6266 41.2578 26.1682 40.7422 25.8453 40.0703C25.5224 39.3984 25.3609 38.612 25.3609 37.7109C25.3609 36.3151 25.7099 35.2292 26.4078 34.4531C27.1057 33.6719 28.0745 33.2812 29.3141 33.2812C30.512 33.2812 31.4625 33.6797 32.1656 34.4766C32.874 35.2734 33.2281 36.3516 33.2281 37.7109ZM26.7047 37.7109C26.7047 38.8047 26.9234 39.638 27.3609 40.2109C27.7984 40.7839 28.4417 41.0703 29.2906 41.0703C30.1396 41.0703 30.7828 40.7865 31.2203 40.2188C31.663 39.6458 31.8844 38.8099 31.8844 37.7109C31.8844 36.6224 31.663 35.7969 31.2203 35.2344C30.7828 34.6667 30.1344 34.3828 29.275 34.3828C28.426 34.3828 27.7854 34.6615 27.3531 35.2188C26.9208 35.776 26.7047 36.6068 26.7047 37.7109ZM39.5656 33.2812C39.9458 33.2812 40.287 33.3125 40.5891 33.375L40.4094 34.5781C40.0552 34.5 39.7427 34.4609 39.4719 34.4609C38.7792 34.4609 38.1854 34.7422 37.6906 35.3047C37.201 35.8672 36.9562 36.5677 36.9562 37.4062V42H35.6594V33.4375H36.7297L36.8781 35.0234H36.9406C37.2583 34.4661 37.6411 34.0365 38.0891 33.7344C38.537 33.4323 39.0292 33.2812 39.5656 33.2812ZM45.9578 42.1562C44.6922 42.1562 43.6922 41.7708 42.9578 41C42.2286 40.2292 41.8641 39.1589 41.8641 37.7891C41.8641 36.4089 42.2026 35.3125 42.8797 34.5C43.562 33.6875 44.476 33.2812 45.6219 33.2812C46.6948 33.2812 47.5438 33.6354 48.1688 34.3438C48.7938 35.0469 49.1063 35.9766 49.1063 37.1328V37.9531H43.2078C43.2339 38.9583 43.4865 39.7214 43.9656 40.2422C44.45 40.763 45.1297 41.0234 46.0047 41.0234C46.9266 41.0234 47.838 40.8307 48.7391 40.4453V41.6016C48.2807 41.7995 47.8458 41.9401 47.4344 42.0234C47.0281 42.112 46.5359 42.1562 45.9578 42.1562ZM45.6063 34.3672C44.9188 34.3672 44.3693 34.5911 43.9578 35.0391C43.5516 35.487 43.312 36.1068 43.2391 36.8984H47.7156C47.7156 36.0807 47.5333 35.4557 47.1688 35.0234C46.8042 34.5859 46.2833 34.3672 45.6063 34.3672ZM62.3891 42V36.4297C62.3891 35.7474 62.2432 35.237 61.9516 34.8984C61.6599 34.5547 61.2068 34.3828 60.5922 34.3828C59.7849 34.3828 59.1885 34.6146 58.8031 35.0781C58.4177 35.5417 58.225 36.2552 58.225 37.2188V42H56.9281V36.4297C56.9281 35.7474 56.7823 35.237 56.4906 34.8984C56.199 34.5547 55.7432 34.3828 55.1234 34.3828C54.3109 34.3828 53.7146 34.6276 53.3344 35.1172C52.9594 35.6016 52.7719 36.3984 52.7719 37.5078V42H51.475V33.4375H52.5297L52.7406 34.6094H52.8031C53.0479 34.1927 53.3917 33.8672 53.8344 33.6328C54.2823 33.3984 54.7823 33.2812 55.3344 33.2812C56.6729 33.2812 57.5479 33.7656 57.9594 34.7344H58.0219C58.2771 34.2865 58.6469 33.9323 59.1312 33.6719C59.6156 33.4115 60.1677 33.2812 60.7875 33.2812C61.7562 33.2812 62.4802 33.5312 62.9594 34.0312C63.4437 34.526 63.6859 35.3203 63.6859 36.4141V42H62.3891ZM72.1188 42H70.8219V33.4375H72.1188V42ZM70.7125 31.1172C70.7125 30.8203 70.7854 30.6042 70.9313 30.4688C71.0771 30.3281 71.2594 30.2578 71.4781 30.2578C71.6865 30.2578 71.8661 30.3281 72.0172 30.4688C72.1682 30.6094 72.2438 30.8255 72.2438 31.1172C72.2438 31.4089 72.1682 31.6276 72.0172 31.7734C71.8661 31.9141 71.6865 31.9844 71.4781 31.9844C71.2594 31.9844 71.0771 31.9141 70.9313 31.7734C70.7854 31.6276 70.7125 31.4089 70.7125 31.1172ZM79.0031 42.1562C78.4458 42.1562 77.9354 42.0547 77.4719 41.8516C77.0135 41.6432 76.6281 41.3255 76.3156 40.8984H76.2219C76.2844 41.3984 76.3156 41.8724 76.3156 42.3203V45.8438H75.0187V33.4375H76.0734L76.2531 34.6094H76.3156C76.649 34.1406 77.037 33.8021 77.4797 33.5938C77.9224 33.3854 78.4302 33.2812 79.0031 33.2812C80.1385 33.2812 81.0135 33.6693 81.6281 34.4453C82.2479 35.2214 82.5578 36.3099 82.5578 37.7109C82.5578 39.1172 82.2427 40.2109 81.6125 40.9922C80.9875 41.7682 80.1177 42.1562 79.0031 42.1562ZM78.8156 34.3828C77.9406 34.3828 77.3078 34.625 76.9172 35.1094C76.5266 35.5938 76.326 36.3646 76.3156 37.4219V37.7109C76.3156 38.9141 76.5161 39.776 76.9172 40.2969C77.3182 40.8125 77.9615 41.0703 78.8469 41.0703C79.5865 41.0703 80.1646 40.7708 80.5812 40.1719C81.0031 39.5729 81.2141 38.7474 81.2141 37.6953C81.2141 36.6276 81.0031 35.8099 80.5812 35.2422C80.1646 34.6693 79.576 34.3828 78.8156 34.3828ZM90.5047 39.6641C90.5047 40.4609 90.2078 41.0755 89.6141 41.5078C89.0203 41.9401 88.187 42.1562 87.1141 42.1562C85.9786 42.1562 85.0932 41.9766 84.4578 41.6172V40.4141C84.8693 40.6224 85.3094 40.7865 85.7781 40.9062C86.2521 41.026 86.7078 41.0859 87.1453 41.0859C87.8224 41.0859 88.3432 40.9792 88.7078 40.7656C89.0724 40.5469 89.2547 40.2161 89.2547 39.7734C89.2547 39.4401 89.1089 39.1562 88.8172 38.9219C88.5307 38.6823 87.9682 38.401 87.1297 38.0781C86.3328 37.7812 85.7651 37.5234 85.4266 37.3047C85.0932 37.0807 84.8432 36.8281 84.6766 36.5469C84.5151 36.2656 84.4344 35.9297 84.4344 35.5391C84.4344 34.8411 84.7182 34.2917 85.2859 33.8906C85.8536 33.4844 86.6323 33.2812 87.6219 33.2812C88.5437 33.2812 89.4448 33.4688 90.325 33.8438L89.8641 34.8984C89.0047 34.5443 88.226 34.3672 87.5281 34.3672C86.9135 34.3672 86.45 34.4635 86.1375 34.6562C85.825 34.849 85.6687 35.1146 85.6687 35.4531C85.6687 35.6823 85.726 35.8776 85.8406 36.0391C85.9604 36.2005 86.1505 36.3542 86.4109 36.5C86.6714 36.6458 87.1714 36.8568 87.9109 37.1328C88.9266 37.5026 89.6115 37.875 89.9656 38.25C90.325 38.625 90.5047 39.0964 90.5047 39.6641ZM93.9906 33.4375V38.9922C93.9906 39.6901 94.1495 40.2109 94.4672 40.5547C94.7849 40.8984 95.2823 41.0703 95.9594 41.0703C96.8552 41.0703 97.5089 40.8255 97.9203 40.3359C98.337 39.8464 98.5453 39.0469 98.5453 37.9375V33.4375H99.8422V42H98.7719L98.5844 40.8516H98.5141C98.2484 41.2734 97.8786 41.5964 97.4047 41.8203C96.9359 42.0443 96.3995 42.1562 95.7953 42.1562C94.7536 42.1562 93.9724 41.9089 93.4516 41.4141C92.9359 40.9193 92.6781 40.1276 92.6781 39.0391V33.4375H93.9906ZM113.664 42V36.4297C113.664 35.7474 113.518 35.237 113.227 34.8984C112.935 34.5547 112.482 34.3828 111.867 34.3828C111.06 34.3828 110.464 34.6146 110.078 35.0781C109.693 35.5417 109.5 36.2552 109.5 37.2188V42H108.203V36.4297C108.203 35.7474 108.057 35.237 107.766 34.8984C107.474 34.5547 107.018 34.3828 106.398 34.3828C105.586 34.3828 104.99 34.6276 104.609 35.1172C104.234 35.6016 104.047 36.3984 104.047 37.5078V42H102.75V33.4375H103.805L104.016 34.6094H104.078C104.323 34.1927 104.667 33.8672 105.109 33.6328C105.557 33.3984 106.057 33.2812 106.609 33.2812C107.948 33.2812 108.823 33.7656 109.234 34.7344H109.297C109.552 34.2865 109.922 33.9323 110.406 33.6719C110.891 33.4115 111.443 33.2812 112.062 33.2812C113.031 33.2812 113.755 33.5312 114.234 34.0312C114.719 34.526 114.961 35.3203 114.961 36.4141V42H113.664ZM127.925 40.8516H127.855C127.256 41.7214 126.36 42.1562 125.167 42.1562C124.047 42.1562 123.175 41.7734 122.55 41.0078C121.93 40.2422 121.62 39.1536 121.62 37.7422C121.62 36.3307 121.933 35.2344 122.558 34.4531C123.183 33.6719 124.053 33.2812 125.167 33.2812C126.329 33.2812 127.219 33.7031 127.839 34.5469H127.941L127.886 33.9297L127.855 33.3281V29.8438H129.152V42H128.097L127.925 40.8516ZM125.331 41.0703C126.217 41.0703 126.857 40.8307 127.253 40.3516C127.654 39.8672 127.855 39.0885 127.855 38.0156V37.7422C127.855 36.5286 127.652 35.6641 127.245 35.1484C126.844 34.6276 126.201 34.3672 125.316 34.3672C124.555 34.3672 123.972 34.6641 123.566 35.2578C123.165 35.8464 122.964 36.6797 122.964 37.7578C122.964 38.8516 123.165 39.6771 123.566 40.2344C123.967 40.7917 124.555 41.0703 125.331 41.0703ZM139.45 37.7109C139.45 39.1068 139.098 40.1979 138.395 40.9844C137.692 41.7656 136.721 42.1562 135.481 42.1562C134.716 42.1562 134.036 41.9766 133.442 41.6172C132.848 41.2578 132.39 40.7422 132.067 40.0703C131.744 39.3984 131.583 38.612 131.583 37.7109C131.583 36.3151 131.932 35.2292 132.63 34.4531C133.328 33.6719 134.296 33.2812 135.536 33.2812C136.734 33.2812 137.684 33.6797 138.387 34.4766C139.096 35.2734 139.45 36.3516 139.45 37.7109ZM132.927 37.7109C132.927 38.8047 133.145 39.638 133.583 40.2109C134.02 40.7839 134.664 41.0703 135.512 41.0703C136.361 41.0703 137.005 40.7865 137.442 40.2188C137.885 39.6458 138.106 38.8099 138.106 37.7109C138.106 36.6224 137.885 35.7969 137.442 35.2344C137.005 34.6667 136.356 34.3828 135.497 34.3828C134.648 34.3828 134.007 34.6615 133.575 35.2188C133.143 35.776 132.927 36.6068 132.927 37.7109ZM143.178 42H141.881V29.8438H143.178V42ZM153.469 37.7109C153.469 39.1068 153.117 40.1979 152.414 40.9844C151.711 41.7656 150.74 42.1562 149.5 42.1562C148.734 42.1562 148.055 41.9766 147.461 41.6172C146.867 41.2578 146.409 40.7422 146.086 40.0703C145.763 39.3984 145.602 38.612 145.602 37.7109C145.602 36.3151 145.951 35.2292 146.648 34.4531C147.346 33.6719 148.315 33.2812 149.555 33.2812C150.753 33.2812 151.703 33.6797 152.406 34.4766C153.115 35.2734 153.469 36.3516 153.469 37.7109ZM146.945 37.7109C146.945 38.8047 147.164 39.638 147.602 40.2109C148.039 40.7839 148.682 41.0703 149.531 41.0703C150.38 41.0703 151.023 40.7865 151.461 40.2188C151.904 39.6458 152.125 38.8099 152.125 37.7109C152.125 36.6224 151.904 35.7969 151.461 35.2344C151.023 34.6667 150.375 34.3828 149.516 34.3828C148.667 34.3828 148.026 34.6615 147.594 35.2188C147.161 35.776 146.945 36.6068 146.945 37.7109ZM159.806 33.2812C160.186 33.2812 160.528 33.3125 160.83 33.375L160.65 34.5781C160.296 34.5 159.983 34.4609 159.712 34.4609C159.02 34.4609 158.426 34.7422 157.931 35.3047C157.442 35.8672 157.197 36.5677 157.197 37.4062V42H155.9V33.4375H156.97L157.119 35.0234H157.181C157.499 34.4661 157.882 34.0365 158.33 33.7344C158.778 33.4323 159.27 33.2812 159.806 33.2812Z" fill="black"/>
<rect width="64" height="16" transform="translate(12)" fill="white"/>
<path d="M17.374 13V3.00586H18.5361V13H17.374ZM26.3902 13V8.15332C26.3902 7.54264 26.2512 7.08691 25.9732 6.78613C25.6952 6.48535 25.26 6.33496 24.6676 6.33496C23.8837 6.33496 23.3095 6.54688 22.9449 6.9707C22.5803 7.39453 22.398 8.09408 22.398 9.06934V13H21.2633V5.50781H22.1861L22.3707 6.5332H22.4254C22.6578 6.16406 22.9837 5.87923 23.4029 5.67871C23.8222 5.47363 24.2893 5.37109 24.8043 5.37109C25.7066 5.37109 26.3857 5.58984 26.8414 6.02734C27.2971 6.46029 27.525 7.15527 27.525 8.1123V13H26.3902ZM33.4992 13.1367C33.0116 13.1367 32.565 13.0479 32.1594 12.8701C31.7583 12.6878 31.4211 12.4098 31.1477 12.0361H31.0656C31.1203 12.4736 31.1477 12.8883 31.1477 13.2803V16.3633H30.0129V5.50781H30.9357L31.093 6.5332H31.1477C31.4393 6.12305 31.7788 5.82682 32.1662 5.64453C32.5536 5.46224 32.9979 5.37109 33.4992 5.37109C34.4927 5.37109 35.2583 5.71061 35.7961 6.38965C36.3384 7.06868 36.6096 8.02116 36.6096 9.24707C36.6096 10.4775 36.3339 11.4346 35.7824 12.1182C35.2355 12.7972 34.4745 13.1367 33.4992 13.1367ZM33.3352 6.33496C32.5695 6.33496 32.0158 6.54688 31.674 6.9707C31.3322 7.39453 31.1568 8.06901 31.1477 8.99414V9.24707C31.1477 10.2998 31.3231 11.054 31.674 11.5098C32.0249 11.9609 32.5878 12.1865 33.3625 12.1865C34.0096 12.1865 34.5155 11.9245 34.8801 11.4004C35.2492 10.8763 35.4338 10.154 35.4338 9.2334C35.4338 8.29915 35.2492 7.58366 34.8801 7.08691C34.5155 6.58561 34.0005 6.33496 33.3352 6.33496ZM39.8152 5.50781V10.3682C39.8152 10.9788 39.9542 11.4346 40.2322 11.7354C40.5102 12.0361 40.9454 12.1865 41.5379 12.1865C42.3217 12.1865 42.8937 11.9723 43.2537 11.5439C43.6183 11.1156 43.8006 10.416 43.8006 9.44531V5.50781H44.9354V13H43.9988L43.8348 11.9951H43.7732C43.5408 12.3643 43.2173 12.6468 42.8025 12.8428C42.3924 13.0387 41.923 13.1367 41.3943 13.1367C40.4829 13.1367 39.7993 12.9202 39.3436 12.4873C38.8924 12.0544 38.6668 11.3617 38.6668 10.4092V5.50781H39.8152ZM49.9184 12.2002C50.1189 12.2002 50.3126 12.1865 50.4994 12.1592C50.6863 12.1273 50.8344 12.0954 50.9438 12.0635V12.9316C50.8207 12.9909 50.6384 13.0387 50.3969 13.0752C50.1599 13.1162 49.9457 13.1367 49.7543 13.1367C48.3051 13.1367 47.5805 12.3734 47.5805 10.8467V6.38965H46.5072V5.84277L47.5805 5.37109L48.059 3.77148H48.7152V5.50781H50.8891V6.38965H48.7152V10.7988C48.7152 11.25 48.8223 11.5964 49.0365 11.8379C49.2507 12.0794 49.5447 12.2002 49.9184 12.2002Z" fill="#1C1D1E"/>
<path d="M64 1C67.866 1 71 4.13401 71 8C71 11.866 67.866 15 64 15C60.134 15 57 11.866 57 8C57 4.13401 60.134 1 64 1ZM62 6.7002V7.7002H63V10.7002H62V11.7002H66V10.7002H65V6.7002H62ZM63.75 3.7002C63.338 3.7002 63 4.0382 63 4.4502V4.9502C63.0008 5.14879 63.0803 5.33906 63.2207 5.47949C63.3612 5.61991 63.5514 5.69941 63.75 5.7002H64.25C64.6619 5.7002 64.9999 5.36211 65 4.9502V4.4502C65 4.0382 64.662 3.7002 64.25 3.7002H63.75Z" fill="#005274"/>
<rect width="24" height="16" transform="translate(466)" fill="white"/>
<path d="M471.846 12.3599C471.468 13.0266 471.95 13.8529 472.716 13.8529H483.284C484.05 13.8529 484.532 13.0266 484.154 12.3599L478.87 3.03533C478.487 2.35935 477.513 2.35935 477.13 3.03533L471.846 12.3599ZM478.824 11.3824C478.824 11.8372 478.455 12.2059 478 12.2059C477.545 12.2059 477.176 11.8372 477.176 11.3824C477.176 10.9275 477.545 10.5588 478 10.5588C478.455 10.5588 478.824 10.9275 478.824 11.3824ZM478.824 8.91176C478.824 9.36659 478.455 9.73529 478 9.73529C477.545 9.73529 477.176 9.36659 477.176 8.91176V6.26471C477.176 5.80988 477.545 5.44118 478 5.44118C478.455 5.44118 478.824 5.80988 478.824 6.26471V8.91176Z" fill="#CC4E00"/>
</svg>
