<svg width="250" height="114" viewBox="0 0 250 114" fill="none" xmlns="http://www.w3.org/2000/svg">
<g filter="url(#filter0_d_142_4796)">
<rect width="250" height="99" fill="white"/>
<rect x="0.5" y="0.5" width="249" height="98" stroke="#595959"/>
<path d="M19.917 26.0029L22.583 21.0059H23.8408L20.5049 27.124V31H19.3291V27.1787L16 21.0059H17.2715L19.917 26.0029ZM31.5176 27.2471C31.5176 28.4684 31.21 29.4232 30.5947 30.1113C29.9795 30.7949 29.1296 31.1367 28.0449 31.1367C27.375 31.1367 26.7803 30.9795 26.2607 30.665C25.7412 30.3506 25.3402 29.8994 25.0576 29.3115C24.7751 28.7236 24.6338 28.0355 24.6338 27.2471C24.6338 26.0257 24.9391 25.0755 25.5498 24.3965C26.1605 23.7129 27.0081 23.3711 28.0928 23.3711C29.141 23.3711 29.9727 23.7197 30.5879 24.417C31.2077 25.1143 31.5176 26.0576 31.5176 27.2471ZM25.8096 27.2471C25.8096 28.2041 26.001 28.9333 26.3838 29.4346C26.7666 29.9359 27.3294 30.1865 28.0723 30.1865C28.8151 30.1865 29.3779 29.9382 29.7607 29.4414C30.1481 28.9401 30.3418 28.2087 30.3418 27.2471C30.3418 26.2946 30.1481 25.5723 29.7607 25.0801C29.3779 24.5833 28.8105 24.335 28.0586 24.335C27.3158 24.335 26.7552 24.5788 26.377 25.0664C25.9987 25.554 25.8096 26.2809 25.8096 27.2471ZM34.5801 23.5078V28.3682C34.5801 28.9788 34.7191 29.4346 34.9971 29.7354C35.2751 30.0361 35.7103 30.1865 36.3027 30.1865C37.0866 30.1865 37.6585 29.9723 38.0186 29.5439C38.3831 29.1156 38.5654 28.416 38.5654 27.4453V23.5078H39.7002V31H38.7637L38.5996 29.9951H38.5381C38.3057 30.3643 37.9821 30.6468 37.5674 30.8428C37.1572 31.0387 36.6878 31.1367 36.1592 31.1367C35.2477 31.1367 34.5641 30.9202 34.1084 30.4873C33.6572 30.0544 33.4316 29.3617 33.4316 28.4092V23.5078H34.5801ZM51.8682 31L50.4941 26.6045C50.4076 26.3356 50.2458 25.7249 50.0088 24.7725H49.9541C49.7718 25.57 49.6123 26.1852 49.4756 26.6182L48.0605 31H46.748L44.7041 23.5078H45.8936C46.3766 25.39 46.7435 26.8232 46.9941 27.8076C47.2493 28.792 47.3952 29.4551 47.4316 29.7969H47.4863C47.5365 29.5371 47.6162 29.2021 47.7256 28.792C47.8395 28.3773 47.9375 28.0492 48.0195 27.8076L49.3936 23.5078H50.624L51.9639 27.8076C52.2191 28.5915 52.3923 29.25 52.4834 29.7832H52.5381C52.5563 29.6191 52.6042 29.3662 52.6816 29.0244C52.7637 28.6826 53.2399 26.8438 54.1104 23.5078H55.2861L53.2148 31H51.8682ZM60.0645 23.3711C60.3971 23.3711 60.6956 23.3984 60.96 23.4531L60.8027 24.5059C60.4928 24.4375 60.2194 24.4033 59.9824 24.4033C59.3763 24.4033 58.8568 24.6494 58.4238 25.1416C57.9954 25.6338 57.7812 26.2467 57.7812 26.9805V31H56.6465V23.5078H57.583L57.7129 24.8955H57.7676C58.0456 24.4079 58.3805 24.0319 58.7725 23.7676C59.1644 23.5033 59.5951 23.3711 60.0645 23.3711ZM68.8281 27.2471C68.8281 28.4684 68.5205 29.4232 67.9053 30.1113C67.29 30.7949 66.4401 31.1367 65.3555 31.1367C64.6855 31.1367 64.0908 30.9795 63.5713 30.665C63.0518 30.3506 62.6507 29.8994 62.3682 29.3115C62.0856 28.7236 61.9443 28.0355 61.9443 27.2471C61.9443 26.0257 62.2497 25.0755 62.8604 24.3965C63.471 23.7129 64.3187 23.3711 65.4033 23.3711C66.4515 23.3711 67.2832 23.7197 67.8984 24.417C68.5182 25.1143 68.8281 26.0576 68.8281 27.2471ZM63.1201 27.2471C63.1201 28.2041 63.3115 28.9333 63.6943 29.4346C64.0771 29.9359 64.64 30.1865 65.3828 30.1865C66.1257 30.1865 66.6885 29.9382 67.0713 29.4414C67.4587 28.9401 67.6523 28.2087 67.6523 27.2471C67.6523 26.2946 67.4587 25.5723 67.0713 25.0801C66.6885 24.5833 66.1211 24.335 65.3691 24.335C64.6263 24.335 64.0658 24.5788 63.6875 25.0664C63.3092 25.554 63.1201 26.2809 63.1201 27.2471ZM73.2441 30.2002C73.4447 30.2002 73.6383 30.1865 73.8252 30.1592C74.012 30.1273 74.1602 30.0954 74.2695 30.0635V30.9316C74.1465 30.9909 73.9642 31.0387 73.7227 31.0752C73.4857 31.1162 73.2715 31.1367 73.0801 31.1367C71.6309 31.1367 70.9062 30.3734 70.9062 28.8467V24.3896H69.833V23.8428L70.9062 23.3711L71.3848 21.7715H72.041V23.5078H74.2148V24.3896H72.041V28.7988C72.041 29.25 72.1481 29.5964 72.3623 29.8379C72.5765 30.0794 72.8704 30.2002 73.2441 30.2002ZM78.9385 31.1367C77.8311 31.1367 76.9561 30.7995 76.3135 30.125C75.6755 29.4505 75.3564 28.514 75.3564 27.3154C75.3564 26.1077 75.6527 25.1484 76.2451 24.4375C76.8421 23.7266 77.6419 23.3711 78.6445 23.3711C79.5833 23.3711 80.3262 23.681 80.873 24.3008C81.4199 24.916 81.6934 25.7295 81.6934 26.7412V27.459H76.5322C76.555 28.3385 76.776 29.0062 77.1953 29.4619C77.6191 29.9176 78.2139 30.1455 78.9795 30.1455C79.7861 30.1455 80.5837 29.9769 81.3721 29.6396V30.6514C80.971 30.8245 80.5905 30.9476 80.2305 31.0205C79.875 31.098 79.4443 31.1367 78.9385 31.1367ZM78.6309 24.3213C78.0293 24.3213 77.5485 24.5173 77.1885 24.9092C76.833 25.3011 76.6234 25.8434 76.5596 26.5361H80.4766C80.4766 25.8206 80.3171 25.2738 79.998 24.8955C79.679 24.5127 79.2233 24.3213 78.6309 24.3213ZM93.2256 23.2412C93.2256 23.8656 93.0365 24.3965 92.6582 24.834C92.2799 25.2715 91.749 25.5723 91.0654 25.7363V25.7773C91.8721 25.8776 92.4827 26.1237 92.8975 26.5156C93.3122 26.903 93.5195 27.4271 93.5195 28.0879C93.5195 29.0495 93.1709 29.7992 92.4736 30.3369C91.7764 30.8701 90.7806 31.1367 89.4863 31.1367C88.4017 31.1367 87.4401 30.9567 86.6016 30.5967V28.7988C86.9889 28.9948 87.415 29.1543 87.8799 29.2773C88.3447 29.4004 88.805 29.4619 89.2607 29.4619C89.958 29.4619 90.473 29.3434 90.8057 29.1064C91.1383 28.8695 91.3047 28.4889 91.3047 27.9648C91.3047 27.4954 91.1133 27.1628 90.7305 26.9668C90.3477 26.7708 89.737 26.6729 88.8984 26.6729H88.1396V25.0527H88.9121C89.6868 25.0527 90.252 24.9525 90.6074 24.752C90.9674 24.5469 91.1475 24.1982 91.1475 23.7061C91.1475 22.9495 90.6735 22.5713 89.7256 22.5713C89.3975 22.5713 89.0625 22.626 88.7207 22.7354C88.3835 22.8447 88.0075 23.0339 87.5928 23.3027L86.6152 21.8467C87.5267 21.1904 88.6136 20.8623 89.876 20.8623C90.9105 20.8623 91.7262 21.0719 92.3232 21.4912C92.9248 21.9105 93.2256 22.4938 93.2256 23.2412ZM101.559 26.0029C101.559 27.7484 101.271 29.0404 100.697 29.8789C100.128 30.7174 99.248 31.1367 98.0586 31.1367C96.9056 31.1367 96.0352 30.7038 95.4473 29.8379C94.8639 28.972 94.5723 27.6937 94.5723 26.0029C94.5723 24.2393 94.8571 22.9404 95.4268 22.1064C95.9964 21.2679 96.8737 20.8486 98.0586 20.8486C99.2116 20.8486 100.082 21.2861 100.67 22.1611C101.262 23.0361 101.559 24.3167 101.559 26.0029ZM96.6709 26.0029C96.6709 27.2288 96.7757 28.1084 96.9854 28.6416C97.1995 29.1702 97.5573 29.4346 98.0586 29.4346C98.5508 29.4346 98.9062 29.1657 99.125 28.6279C99.3438 28.0902 99.4531 27.2152 99.4531 26.0029C99.4531 24.777 99.3415 23.8975 99.1182 23.3643C98.8994 22.8265 98.5462 22.5576 98.0586 22.5576C97.5618 22.5576 97.2064 22.8265 96.9922 23.3643C96.778 23.8975 96.6709 24.777 96.6709 26.0029ZM109.557 26.0029C109.557 27.7484 109.27 29.0404 108.695 29.8789C108.126 30.7174 107.246 31.1367 106.057 31.1367C104.904 31.1367 104.033 30.7038 103.445 29.8379C102.862 28.972 102.57 27.6937 102.57 26.0029C102.57 24.2393 102.855 22.9404 103.425 22.1064C103.994 21.2679 104.872 20.8486 106.057 20.8486C107.21 20.8486 108.08 21.2861 108.668 22.1611C109.26 23.0361 109.557 24.3167 109.557 26.0029ZM104.669 26.0029C104.669 27.2288 104.774 28.1084 104.983 28.6416C105.198 29.1702 105.555 29.4346 106.057 29.4346C106.549 29.4346 106.904 29.1657 107.123 28.6279C107.342 28.0902 107.451 27.2152 107.451 26.0029C107.451 24.777 107.34 23.8975 107.116 23.3643C106.897 22.8265 106.544 22.5576 106.057 22.5576C105.56 22.5576 105.204 22.8265 104.99 23.3643C104.776 23.8975 104.669 24.777 104.669 26.0029ZM121.369 27.2471C121.369 28.4684 121.062 29.4232 120.446 30.1113C119.831 30.7949 118.981 31.1367 117.896 31.1367C117.227 31.1367 116.632 30.9795 116.112 30.665C115.593 30.3506 115.192 29.8994 114.909 29.3115C114.627 28.7236 114.485 28.0355 114.485 27.2471C114.485 26.0257 114.791 25.0755 115.401 24.3965C116.012 23.7129 116.86 23.3711 117.944 23.3711C118.993 23.3711 119.824 23.7197 120.439 24.417C121.059 25.1143 121.369 26.0576 121.369 27.2471ZM115.661 27.2471C115.661 28.2041 115.853 28.9333 116.235 29.4346C116.618 29.9359 117.181 30.1865 117.924 30.1865C118.667 30.1865 119.229 29.9382 119.612 29.4414C120 28.9401 120.193 28.2087 120.193 27.2471C120.193 26.2946 120 25.5723 119.612 25.0801C119.229 24.5833 118.662 24.335 117.91 24.335C117.167 24.335 116.607 24.5788 116.229 25.0664C115.85 25.554 115.661 26.2809 115.661 27.2471ZM126.742 24.3896H124.835V31H123.7V24.3896H122.36V23.877L123.7 23.4668V23.0498C123.7 21.2087 124.505 20.2881 126.113 20.2881C126.51 20.2881 126.975 20.3678 127.508 20.5273L127.214 21.4365C126.776 21.2952 126.403 21.2246 126.093 21.2246C125.664 21.2246 125.348 21.3682 125.143 21.6553C124.938 21.9378 124.835 22.3936 124.835 23.0225V23.5078H126.742V24.3896ZM138.377 24.6152C139.343 24.6152 140.111 24.8864 140.681 25.4287C141.255 25.971 141.542 26.7139 141.542 27.6572C141.542 28.7738 141.198 29.6328 140.51 30.2344C139.822 30.8359 138.837 31.1367 137.557 31.1367C136.445 31.1367 135.547 30.9567 134.863 30.5967V28.7715C135.223 28.9629 135.643 29.1201 136.121 29.2432C136.6 29.3617 137.053 29.4209 137.481 29.4209C138.771 29.4209 139.416 28.8923 139.416 27.835C139.416 26.8278 138.748 26.3242 137.413 26.3242C137.172 26.3242 136.905 26.3493 136.613 26.3994C136.322 26.445 136.085 26.4951 135.902 26.5498L135.062 26.0986L135.438 21.0059H140.858V22.7969H137.29L137.105 24.7588L137.345 24.7109C137.623 24.6471 137.967 24.6152 138.377 24.6152ZM149.67 26.0029C149.67 27.7484 149.383 29.0404 148.809 29.8789C148.239 30.7174 147.359 31.1367 146.17 31.1367C145.017 31.1367 144.146 30.7038 143.559 29.8379C142.975 28.972 142.684 27.6937 142.684 26.0029C142.684 24.2393 142.968 22.9404 143.538 22.1064C144.108 21.2679 144.985 20.8486 146.17 20.8486C147.323 20.8486 148.193 21.2861 148.781 22.1611C149.374 23.0361 149.67 24.3167 149.67 26.0029ZM144.782 26.0029C144.782 27.2288 144.887 28.1084 145.097 28.6416C145.311 29.1702 145.669 29.4346 146.17 29.4346C146.662 29.4346 147.018 29.1657 147.236 28.6279C147.455 28.0902 147.564 27.2152 147.564 26.0029C147.564 24.777 147.453 23.8975 147.229 23.3643C147.011 22.8265 146.658 22.5576 146.17 22.5576C145.673 22.5576 145.318 22.8265 145.104 23.3643C144.889 23.8975 144.782 24.777 144.782 26.0029ZM157.668 26.0029C157.668 27.7484 157.381 29.0404 156.807 29.8789C156.237 30.7174 155.357 31.1367 154.168 31.1367C153.015 31.1367 152.145 30.7038 151.557 29.8379C150.973 28.972 150.682 27.6937 150.682 26.0029C150.682 24.2393 150.966 22.9404 151.536 22.1064C152.106 21.2679 152.983 20.8486 154.168 20.8486C155.321 20.8486 156.191 21.2861 156.779 22.1611C157.372 23.0361 157.668 24.3167 157.668 26.0029ZM152.78 26.0029C152.78 27.2288 152.885 28.1084 153.095 28.6416C153.309 29.1702 153.667 29.4346 154.168 29.4346C154.66 29.4346 155.016 29.1657 155.234 28.6279C155.453 28.0902 155.562 27.2152 155.562 26.0029C155.562 24.777 155.451 23.8975 155.228 23.3643C155.009 22.8265 154.656 22.5576 154.168 22.5576C153.671 22.5576 153.316 22.8265 153.102 23.3643C152.887 23.8975 152.78 24.777 152.78 26.0029ZM169.747 31H167.662V26.5361C167.662 25.9847 167.569 25.5723 167.382 25.2988C167.2 25.0208 166.91 24.8818 166.514 24.8818C165.98 24.8818 165.593 25.0778 165.352 25.4697C165.11 25.8617 164.989 26.5065 164.989 27.4043V31H162.904V23.3574H164.497L164.777 24.335H164.894C165.099 23.984 165.395 23.7106 165.782 23.5146C166.17 23.3141 166.614 23.2139 167.115 23.2139C168.259 23.2139 169.034 23.5876 169.439 24.335H169.624C169.829 23.9795 170.13 23.7038 170.526 23.5078C170.927 23.3118 171.379 23.2139 171.88 23.2139C172.746 23.2139 173.4 23.4372 173.842 23.8838C174.288 24.3258 174.512 25.0368 174.512 26.0166V31H172.42V26.5361C172.42 25.9847 172.326 25.5723 172.14 25.2988C171.957 25.0208 171.668 24.8818 171.271 24.8818C170.761 24.8818 170.378 25.0641 170.123 25.4287C169.872 25.7933 169.747 26.3721 169.747 27.165V31ZM181.512 31L181.108 29.9609H181.054C180.703 30.403 180.34 30.7106 179.967 30.8838C179.598 31.0524 179.115 31.1367 178.518 31.1367C177.784 31.1367 177.205 30.9271 176.781 30.5078C176.362 30.0885 176.152 29.4915 176.152 28.7168C176.152 27.9056 176.435 27.3086 177 26.9258C177.57 26.5384 178.426 26.3242 179.57 26.2832L180.896 26.2422V25.9072C180.896 25.1325 180.5 24.7451 179.707 24.7451C179.096 24.7451 178.379 24.9297 177.554 25.2988L176.863 23.8906C177.743 23.4303 178.718 23.2002 179.789 23.2002C180.814 23.2002 181.601 23.4235 182.147 23.8701C182.694 24.3167 182.968 24.9958 182.968 25.9072V31H181.512ZM180.896 27.459L180.09 27.4863C179.484 27.5046 179.033 27.6139 178.736 27.8145C178.44 28.015 178.292 28.3203 178.292 28.7305C178.292 29.3184 178.629 29.6123 179.304 29.6123C179.787 29.6123 180.172 29.4733 180.459 29.1953C180.751 28.9173 180.896 28.5482 180.896 28.0879V27.459ZM186.687 27.0967L184.226 23.3574H186.591L188.074 25.791L189.571 23.3574H191.937L189.448 27.0967L192.053 31H189.681L188.074 28.3818L186.461 31H184.096L186.687 27.0967ZM193.126 21.3818C193.126 20.7028 193.504 20.3633 194.261 20.3633C195.017 20.3633 195.396 20.7028 195.396 21.3818C195.396 21.7054 195.3 21.9583 195.108 22.1406C194.922 22.3184 194.639 22.4072 194.261 22.4072C193.504 22.4072 193.126 22.0654 193.126 21.3818ZM195.3 31H193.215V23.3574H195.3V31ZM204.337 31H202.252V26.5361C202.252 25.9847 202.159 25.5723 201.972 25.2988C201.789 25.0208 201.5 24.8818 201.104 24.8818C200.57 24.8818 200.183 25.0778 199.941 25.4697C199.7 25.8617 199.579 26.5065 199.579 27.4043V31H197.494V23.3574H199.087L199.367 24.335H199.483C199.688 23.984 199.985 23.7106 200.372 23.5146C200.759 23.3141 201.204 23.2139 201.705 23.2139C202.849 23.2139 203.624 23.5876 204.029 24.335H204.214C204.419 23.9795 204.72 23.7038 205.116 23.5078C205.517 23.3118 205.968 23.2139 206.47 23.2139C207.336 23.2139 207.99 23.4372 208.432 23.8838C208.878 24.3258 209.102 25.0368 209.102 26.0166V31H207.01V26.5361C207.01 25.9847 206.916 25.5723 206.729 25.2988C206.547 25.0208 206.258 24.8818 205.861 24.8818C205.351 24.8818 204.968 25.0641 204.713 25.4287C204.462 25.7933 204.337 26.3721 204.337 27.165V31ZM216.662 31L216.382 30.0225H216.272C216.049 30.3779 215.732 30.6536 215.322 30.8496C214.912 31.041 214.445 31.1367 213.921 31.1367C213.023 31.1367 212.346 30.8975 211.891 30.4189C211.435 29.9359 211.207 29.2432 211.207 28.3408V23.3574H213.292V27.8213C213.292 28.3727 213.39 28.7874 213.586 29.0654C213.782 29.3389 214.094 29.4756 214.522 29.4756C215.106 29.4756 215.527 29.2819 215.787 28.8945C216.047 28.5026 216.177 27.8555 216.177 26.9531V23.3574H218.262V31H216.662ZM227.292 31H225.207V26.5361C225.207 25.9847 225.114 25.5723 224.927 25.2988C224.744 25.0208 224.455 24.8818 224.059 24.8818C223.525 24.8818 223.138 25.0778 222.896 25.4697C222.655 25.8617 222.534 26.5065 222.534 27.4043V31H220.449V23.3574H222.042L222.322 24.335H222.438C222.644 23.984 222.94 23.7106 223.327 23.5146C223.715 23.3141 224.159 23.2139 224.66 23.2139C225.804 23.2139 226.579 23.5876 226.984 24.335H227.169C227.374 23.9795 227.675 23.7038 228.071 23.5078C228.472 23.3118 228.924 23.2139 229.425 23.2139C230.291 23.2139 230.945 23.4372 231.387 23.8838C231.833 24.3258 232.057 25.0368 232.057 26.0166V31H229.965V26.5361C229.965 25.9847 229.871 25.5723 229.685 25.2988C229.502 25.0208 229.213 24.8818 228.816 24.8818C228.306 24.8818 227.923 25.0641 227.668 25.4287C227.417 25.7933 227.292 26.3721 227.292 27.165V31ZM20.1973 48.1367C19.1126 48.1367 18.2718 47.804 17.6748 47.1387C17.0824 46.4688 16.7861 45.5231 16.7861 44.3018C16.7861 43.0485 17.0869 42.0801 17.6885 41.3965C18.2946 40.7129 19.1559 40.3711 20.2725 40.3711C20.6325 40.3711 20.9925 40.4098 21.3525 40.4873C21.7126 40.5648 21.9951 40.6559 22.2002 40.7607L21.8516 41.7246C21.6009 41.6243 21.3275 41.5423 21.0312 41.4785C20.735 41.4102 20.473 41.376 20.2451 41.376C18.723 41.376 17.9619 42.3467 17.9619 44.2881C17.9619 45.2087 18.1465 45.915 18.5156 46.4072C18.8893 46.8994 19.4408 47.1455 20.1699 47.1455C20.7943 47.1455 21.4346 47.0111 22.0908 46.7422V47.7471C21.5895 48.0068 20.9583 48.1367 20.1973 48.1367ZM29.002 48V43.1533C29.002 42.5426 28.863 42.0869 28.585 41.7861C28.307 41.4854 27.8717 41.335 27.2793 41.335C26.4909 41.335 25.9144 41.5492 25.5498 41.9775C25.1898 42.4059 25.0098 43.1077 25.0098 44.083V48H23.875V37.3633H25.0098V40.583C25.0098 40.9704 24.9915 41.2917 24.9551 41.5469H25.0234C25.2467 41.1868 25.5635 40.9043 25.9736 40.6992C26.3883 40.4896 26.86 40.3848 27.3887 40.3848C28.3047 40.3848 28.9906 40.6035 29.4463 41.041C29.9066 41.474 30.1367 42.1644 30.1367 43.1123V48H29.002ZM37.082 48L36.8564 46.9336H36.8018C36.4281 47.403 36.0544 47.722 35.6807 47.8906C35.3115 48.0547 34.849 48.1367 34.293 48.1367C33.5501 48.1367 32.9668 47.9453 32.543 47.5625C32.1237 47.1797 31.9141 46.6351 31.9141 45.9287C31.9141 44.4157 33.124 43.6227 35.5439 43.5498L36.8154 43.5088V43.0439C36.8154 42.4561 36.6878 42.0231 36.4326 41.7451C36.182 41.4626 35.7786 41.3213 35.2227 41.3213C34.5983 41.3213 33.8919 41.5127 33.1035 41.8955L32.7549 41.0273C33.124 40.8268 33.5273 40.6696 33.9648 40.5557C34.4069 40.4417 34.849 40.3848 35.291 40.3848C36.1842 40.3848 36.8451 40.583 37.2734 40.9795C37.7064 41.376 37.9229 42.0117 37.9229 42.8867V48H37.082ZM34.5186 47.2002C35.2249 47.2002 35.7786 47.0065 36.1797 46.6191C36.5853 46.2318 36.7881 45.6895 36.7881 44.9922V44.3154L35.6533 44.3633C34.751 44.3952 34.0993 44.5365 33.6982 44.7871C33.3018 45.0332 33.1035 45.4183 33.1035 45.9424C33.1035 46.3525 33.2266 46.6647 33.4727 46.8789C33.7233 47.0931 34.0719 47.2002 34.5186 47.2002ZM43.6855 40.3711C44.0182 40.3711 44.3167 40.3984 44.5811 40.4531L44.4238 41.5059C44.1139 41.4375 43.8405 41.4033 43.6035 41.4033C42.9974 41.4033 42.4779 41.6494 42.0449 42.1416C41.6165 42.6338 41.4023 43.2467 41.4023 43.9805V48H40.2676V40.5078H41.2041L41.334 41.8955H41.3887C41.6667 41.4079 42.0016 41.0319 42.3936 40.7676C42.7855 40.5033 43.2161 40.3711 43.6855 40.3711ZM50.5898 48L50.3643 46.9336H50.3096C49.9359 47.403 49.5622 47.722 49.1885 47.8906C48.8193 48.0547 48.3568 48.1367 47.8008 48.1367C47.0579 48.1367 46.4746 47.9453 46.0508 47.5625C45.6315 47.1797 45.4219 46.6351 45.4219 45.9287C45.4219 44.4157 46.6318 43.6227 49.0518 43.5498L50.3232 43.5088V43.0439C50.3232 42.4561 50.1956 42.0231 49.9404 41.7451C49.6898 41.4626 49.2865 41.3213 48.7305 41.3213C48.1061 41.3213 47.3997 41.5127 46.6113 41.8955L46.2627 41.0273C46.6318 40.8268 47.0352 40.6696 47.4727 40.5557C47.9147 40.4417 48.3568 40.3848 48.7988 40.3848C49.6921 40.3848 50.3529 40.583 50.7812 40.9795C51.2142 41.376 51.4307 42.0117 51.4307 42.8867V48H50.5898ZM48.0264 47.2002C48.7327 47.2002 49.2865 47.0065 49.6875 46.6191C50.0931 46.2318 50.2959 45.6895 50.2959 44.9922V44.3154L49.1611 44.3633C48.2588 44.3952 47.6071 44.5365 47.2061 44.7871C46.8096 45.0332 46.6113 45.4183 46.6113 45.9424C46.6113 46.3525 46.7344 46.6647 46.9805 46.8789C47.2311 47.0931 47.5798 47.2002 48.0264 47.2002ZM56.7695 48.1367C55.6849 48.1367 54.8441 47.804 54.2471 47.1387C53.6546 46.4688 53.3584 45.5231 53.3584 44.3018C53.3584 43.0485 53.6592 42.0801 54.2607 41.3965C54.8669 40.7129 55.7282 40.3711 56.8447 40.3711C57.2048 40.3711 57.5648 40.4098 57.9248 40.4873C58.2848 40.5648 58.5674 40.6559 58.7725 40.7607L58.4238 41.7246C58.1732 41.6243 57.8997 41.5423 57.6035 41.4785C57.3073 41.4102 57.0452 41.376 56.8174 41.376C55.2952 41.376 54.5342 42.3467 54.5342 44.2881C54.5342 45.2087 54.7188 45.915 55.0879 46.4072C55.4616 46.8994 56.013 47.1455 56.7422 47.1455C57.3665 47.1455 58.0068 47.0111 58.6631 46.7422V47.7471C58.1618 48.0068 57.5306 48.1367 56.7695 48.1367ZM62.8672 47.2002C63.0677 47.2002 63.2614 47.1865 63.4482 47.1592C63.6351 47.1273 63.7832 47.0954 63.8926 47.0635V47.9316C63.7695 47.9909 63.5872 48.0387 63.3457 48.0752C63.1087 48.1162 62.8945 48.1367 62.7031 48.1367C61.2539 48.1367 60.5293 47.3734 60.5293 45.8467V41.3896H59.4561V40.8428L60.5293 40.3711L61.0078 38.7715H61.6641V40.5078H63.8379V41.3896H61.6641V45.7988C61.6641 46.25 61.7712 46.5964 61.9854 46.8379C62.1995 47.0794 62.4935 47.2002 62.8672 47.2002ZM68.5615 48.1367C67.4541 48.1367 66.5791 47.7995 65.9365 47.125C65.2985 46.4505 64.9795 45.514 64.9795 44.3154C64.9795 43.1077 65.2757 42.1484 65.8682 41.4375C66.4652 40.7266 67.265 40.3711 68.2676 40.3711C69.2064 40.3711 69.9492 40.681 70.4961 41.3008C71.043 41.916 71.3164 42.7295 71.3164 43.7412V44.459H66.1553C66.1781 45.3385 66.3991 46.0062 66.8184 46.4619C67.2422 46.9176 67.8369 47.1455 68.6025 47.1455C69.4092 47.1455 70.2067 46.9769 70.9951 46.6396V47.6514C70.5941 47.8245 70.2135 47.9476 69.8535 48.0205C69.498 48.098 69.0674 48.1367 68.5615 48.1367ZM68.2539 41.3213C67.6523 41.3213 67.1715 41.5173 66.8115 41.9092C66.4561 42.3011 66.2464 42.8434 66.1826 43.5361H70.0996C70.0996 42.8206 69.9401 42.2738 69.6211 41.8955C69.3021 41.5127 68.8464 41.3213 68.2539 41.3213ZM76.6758 40.3711C77.0085 40.3711 77.307 40.3984 77.5713 40.4531L77.4141 41.5059C77.1042 41.4375 76.8307 41.4033 76.5938 41.4033C75.9876 41.4033 75.4681 41.6494 75.0352 42.1416C74.6068 42.6338 74.3926 43.2467 74.3926 43.9805V48H73.2578V40.5078H74.1943L74.3242 41.8955H74.3789C74.6569 41.4079 74.9919 41.0319 75.3838 40.7676C75.7757 40.5033 76.2064 40.3711 76.6758 40.3711ZM83.8057 45.9561C83.8057 46.6533 83.5459 47.1911 83.0264 47.5693C82.5068 47.9476 81.7777 48.1367 80.8389 48.1367C79.8454 48.1367 79.0706 47.9795 78.5146 47.665V46.6123C78.8747 46.7946 79.2598 46.9382 79.6699 47.043C80.0846 47.1478 80.4834 47.2002 80.8662 47.2002C81.4587 47.2002 81.9144 47.1068 82.2334 46.9199C82.5524 46.7285 82.7119 46.4391 82.7119 46.0518C82.7119 45.7601 82.5843 45.5117 82.3291 45.3066C82.0785 45.097 81.5863 44.8509 80.8525 44.5684C80.1553 44.3086 79.6585 44.083 79.3623 43.8916C79.0706 43.6956 78.8519 43.4746 78.7061 43.2285C78.5648 42.9824 78.4941 42.6885 78.4941 42.3467C78.4941 41.736 78.7425 41.2552 79.2393 40.9043C79.736 40.5488 80.4173 40.3711 81.2832 40.3711C82.0898 40.3711 82.8783 40.5352 83.6484 40.8633L83.2451 41.7861C82.4932 41.4762 81.8118 41.3213 81.2012 41.3213C80.6634 41.3213 80.2578 41.4056 79.9844 41.5742C79.7109 41.7428 79.5742 41.9753 79.5742 42.2715C79.5742 42.472 79.6243 42.6429 79.7246 42.7842C79.8294 42.9255 79.9958 43.0599 80.2236 43.1875C80.4515 43.3151 80.889 43.4997 81.5361 43.7412C82.4248 44.0648 83.0241 44.3906 83.334 44.7188C83.6484 45.0469 83.8057 45.4593 83.8057 45.9561ZM92.7129 40.3711C93.0456 40.3711 93.3441 40.3984 93.6084 40.4531L93.4512 41.5059C93.1413 41.4375 92.8678 41.4033 92.6309 41.4033C92.0247 41.4033 91.5052 41.6494 91.0723 42.1416C90.6439 42.6338 90.4297 43.2467 90.4297 43.9805V48H89.2949V40.5078H90.2314L90.3613 41.8955H90.416C90.694 41.4079 91.029 41.0319 91.4209 40.7676C91.8128 40.5033 92.2435 40.3711 92.7129 40.3711ZM98.1748 48.1367C97.0674 48.1367 96.1924 47.7995 95.5498 47.125C94.9118 46.4505 94.5928 45.514 94.5928 44.3154C94.5928 43.1077 94.889 42.1484 95.4814 41.4375C96.0785 40.7266 96.8783 40.3711 97.8809 40.3711C98.8197 40.3711 99.5625 40.681 100.109 41.3008C100.656 41.916 100.93 42.7295 100.93 43.7412V44.459H95.7686C95.7913 45.3385 96.0124 46.0062 96.4316 46.4619C96.8555 46.9176 97.4502 47.1455 98.2158 47.1455C99.0225 47.1455 99.82 46.9769 100.608 46.6396V47.6514C100.207 47.8245 99.8268 47.9476 99.4668 48.0205C99.1113 48.098 98.6807 48.1367 98.1748 48.1367ZM97.8672 41.3213C97.2656 41.3213 96.7848 41.5173 96.4248 41.9092C96.0693 42.3011 95.8597 42.8434 95.7959 43.5361H99.7129C99.7129 42.8206 99.5534 42.2738 99.2344 41.8955C98.9154 41.5127 98.4596 41.3213 97.8672 41.3213ZM105.701 47.1865C106.458 47.1865 107.009 46.9837 107.355 46.5781C107.702 46.1725 107.886 45.4889 107.909 44.5273V44.2744C107.909 43.2262 107.731 42.472 107.376 42.0117C107.021 41.5514 106.458 41.3213 105.688 41.3213C105.022 41.3213 104.512 41.5811 104.156 42.1006C103.805 42.6156 103.63 43.3447 103.63 44.2881C103.63 45.2314 103.803 45.9515 104.149 46.4482C104.5 46.9404 105.018 47.1865 105.701 47.1865ZM105.53 48.1367C104.564 48.1367 103.81 47.7972 103.268 47.1182C102.725 46.4391 102.454 45.4912 102.454 44.2744C102.454 43.0485 102.728 42.0915 103.274 41.4033C103.821 40.7152 104.582 40.3711 105.558 40.3711C106.583 40.3711 107.371 40.7585 107.923 41.5332H107.984L108.148 40.5078H109.044V51.3633H107.909V48.1572C107.909 47.7015 107.934 47.3141 107.984 46.9951H107.896C107.371 47.7562 106.583 48.1367 105.53 48.1367ZM112.523 40.5078V45.3682C112.523 45.9788 112.662 46.4346 112.94 46.7354C113.218 47.0361 113.654 47.1865 114.246 47.1865C115.03 47.1865 115.602 46.9723 115.962 46.5439C116.326 46.1156 116.509 45.416 116.509 44.4453V40.5078H117.644V48H116.707L116.543 46.9951H116.481C116.249 47.3643 115.925 47.6468 115.511 47.8428C115.101 48.0387 114.631 48.1367 114.103 48.1367C113.191 48.1367 112.507 47.9202 112.052 47.4873C111.601 47.0544 111.375 46.3617 111.375 45.4092V40.5078H112.523ZM121.191 48H120.057V40.5078H121.191V48ZM119.961 38.4775C119.961 38.2178 120.025 38.0286 120.152 37.9102C120.28 37.7871 120.439 37.7256 120.631 37.7256C120.813 37.7256 120.97 37.7871 121.103 37.9102C121.235 38.0332 121.301 38.2223 121.301 38.4775C121.301 38.7327 121.235 38.9242 121.103 39.0518C120.97 39.1748 120.813 39.2363 120.631 39.2363C120.439 39.2363 120.28 39.1748 120.152 39.0518C120.025 38.9242 119.961 38.7327 119.961 38.4775ZM127.016 40.3711C127.348 40.3711 127.647 40.3984 127.911 40.4531L127.754 41.5059C127.444 41.4375 127.171 41.4033 126.934 41.4033C126.327 41.4033 125.808 41.6494 125.375 42.1416C124.947 42.6338 124.732 43.2467 124.732 43.9805V48H123.598V40.5078H124.534L124.664 41.8955H124.719C124.997 41.4079 125.332 41.0319 125.724 40.7676C126.116 40.5033 126.546 40.3711 127.016 40.3711ZM132.478 48.1367C131.37 48.1367 130.495 47.7995 129.853 47.125C129.215 46.4505 128.896 45.514 128.896 44.3154C128.896 43.1077 129.192 42.1484 129.784 41.4375C130.381 40.7266 131.181 40.3711 132.184 40.3711C133.122 40.3711 133.865 40.681 134.412 41.3008C134.959 41.916 135.232 42.7295 135.232 43.7412V44.459H130.071C130.094 45.3385 130.315 46.0062 130.734 46.4619C131.158 46.9176 131.753 47.1455 132.519 47.1455C133.325 47.1455 134.123 46.9769 134.911 46.6396V47.6514C134.51 47.8245 134.13 47.9476 133.77 48.0205C133.414 48.098 132.983 48.1367 132.478 48.1367ZM132.17 41.3213C131.568 41.3213 131.088 41.5173 130.728 41.9092C130.372 42.3011 130.162 42.8434 130.099 43.5361H134.016C134.016 42.8206 133.856 42.2738 133.537 41.8955C133.218 41.5127 132.762 41.3213 132.17 41.3213ZM142.273 46.9951H142.212C141.688 47.7562 140.904 48.1367 139.86 48.1367C138.881 48.1367 138.117 47.8018 137.57 47.1318C137.028 46.4619 136.757 45.5094 136.757 44.2744C136.757 43.0394 137.03 42.0801 137.577 41.3965C138.124 40.7129 138.885 40.3711 139.86 40.3711C140.877 40.3711 141.656 40.7402 142.198 41.4785H142.287L142.239 40.9385L142.212 40.4121V37.3633H143.347V48H142.424L142.273 46.9951ZM140.004 47.1865C140.779 47.1865 141.339 46.9769 141.686 46.5576C142.036 46.1338 142.212 45.4525 142.212 44.5137V44.2744C142.212 43.2126 142.034 42.4561 141.679 42.0049C141.328 41.5492 140.765 41.3213 139.99 41.3213C139.325 41.3213 138.814 41.5811 138.459 42.1006C138.108 42.6156 137.933 43.3447 137.933 44.2881C137.933 45.2451 138.108 45.9674 138.459 46.4551C138.81 46.9427 139.325 47.1865 140.004 47.1865Z" fill="#1C1D1E"/>
<rect x="16.5" y="70.5" width="191" height="9" rx="4.5" fill="white" stroke="#115C36"/>
<path d="M16 75C16 72.2386 18.2386 70 21 70H131.2V80H21C18.2386 80 16 77.7614 16 75Z" fill="#115C36"/>
<path d="M223.909 77.3221L230.865 70.3663C231.353 69.8779 232.145 69.8779 232.634 70.3663C233.122 70.8547 233.122 71.6465 232.634 72.1349L223.909 80.8593L219.366 76.3163C218.878 75.8279 218.878 75.0361 219.366 74.5477C219.855 74.0593 220.647 74.0593 221.135 74.5477L223.909 77.3221Z" fill="#005274"/>
</g>
<mask id="mask0_142_4796" style="mask-type:alpha" maskUnits="userSpaceOnUse" x="110" y="98" width="30" height="16">
<rect width="16" height="30" transform="matrix(4.37114e-08 -1 -1 -4.37114e-08 140 114)" fill="white"/>
</mask>
<g mask="url(#mask0_142_4796)">
<g filter="url(#filter1_d_142_4796)">
<rect x="125" y="85" width="16.9706" height="16.9706" transform="rotate(45 125 85)" fill="white"/>
<rect x="125" y="85.7071" width="15.9706" height="15.9706" transform="rotate(45 125 85.7071)" stroke="#595959"/>
</g>
</g>
<defs>
<filter id="filter0_d_142_4796" x="0" y="0" width="250" height="103" filterUnits="userSpaceOnUse" color-interpolation-filters="sRGB">
<feFlood flood-opacity="0" result="BackgroundImageFix"/>
<feColorMatrix in="SourceAlpha" type="matrix" values="0 0 0 0 0 0 0 0 0 0 0 0 0 0 0 0 0 0 127 0" result="hardAlpha"/>
<feOffset dy="4"/>
<feColorMatrix type="matrix" values="0 0 0 0 0.109804 0 0 0 0 0.113725 0 0 0 0 0.117647 0 0 0 0.05 0"/>
<feBlend mode="normal" in2="BackgroundImageFix" result="effect1_dropShadow_142_4796"/>
<feBlend mode="normal" in="SourceGraphic" in2="effect1_dropShadow_142_4796" result="shape"/>
</filter>
<filter id="filter1_d_142_4796" x="113" y="85" width="24" height="28" filterUnits="userSpaceOnUse" color-interpolation-filters="sRGB">
<feFlood flood-opacity="0" result="BackgroundImageFix"/>
<feColorMatrix in="SourceAlpha" type="matrix" values="0 0 0 0 0 0 0 0 0 0 0 0 0 0 0 0 0 0 127 0" result="hardAlpha"/>
<feOffset dy="4"/>
<feColorMatrix type="matrix" values="0 0 0 0 0.109804 0 0 0 0 0.113725 0 0 0 0 0.117647 0 0 0 0.05 0"/>
<feBlend mode="normal" in2="BackgroundImageFix" result="effect1_dropShadow_142_4796"/>
<feBlend mode="normal" in="SourceGraphic" in2="effect1_dropShadow_142_4796" result="shape"/>
</filter>
</defs>
</svg>
