<svg width="502" height="74" viewBox="0 0 502 74" fill="none" xmlns="http://www.w3.org/2000/svg">
<rect x="0.5" y="8.5" width="501" height="65" stroke="#CCCCCC"/>
<rect x="16" y="24" width="102" height="34" rx="4" fill="#E5F5F6"/>
<path d="M26.5361 47H25.374V37.0059H30.9453V38.0381H26.5361V41.6953H30.6787V42.7275H26.5361V47ZM33.5703 47H32.4355V39.5078H33.5703V47ZM32.3398 37.4775C32.3398 37.2178 32.4036 37.0286 32.5312 36.9102C32.6589 36.7871 32.8184 36.7256 33.0098 36.7256C33.1921 36.7256 33.3493 36.7871 33.4814 36.9102C33.6136 37.0332 33.6797 37.2223 33.6797 37.4775C33.6797 37.7327 33.6136 37.9242 33.4814 38.0518C33.3493 38.1748 33.1921 38.2363 33.0098 38.2363C32.8184 38.2363 32.6589 38.1748 32.5312 38.0518C32.4036 37.9242 32.3398 37.7327 32.3398 37.4775ZM39.3945 39.3711C39.7272 39.3711 40.0257 39.3984 40.29 39.4531L40.1328 40.5059C39.8229 40.4375 39.5495 40.4033 39.3125 40.4033C38.7064 40.4033 38.1868 40.6494 37.7539 41.1416C37.3255 41.6338 37.1113 42.2467 37.1113 42.9805V47H35.9766V39.5078H36.9131L37.043 40.8955H37.0977C37.3757 40.4079 37.7106 40.0319 38.1025 39.7676C38.4945 39.5033 38.9251 39.3711 39.3945 39.3711ZM46.5244 44.9561C46.5244 45.6533 46.2646 46.1911 45.7451 46.5693C45.2256 46.9476 44.4964 47.1367 43.5576 47.1367C42.5641 47.1367 41.7894 46.9795 41.2334 46.665V45.6123C41.5934 45.7946 41.9785 45.9382 42.3887 46.043C42.8034 46.1478 43.2021 46.2002 43.585 46.2002C44.1774 46.2002 44.6331 46.1068 44.9521 45.9199C45.2712 45.7285 45.4307 45.4391 45.4307 45.0518C45.4307 44.7601 45.3031 44.5117 45.0479 44.3066C44.7972 44.097 44.305 43.8509 43.5713 43.5684C42.874 43.3086 42.3773 43.083 42.0811 42.8916C41.7894 42.6956 41.5706 42.4746 41.4248 42.2285C41.2835 41.9824 41.2129 41.6885 41.2129 41.3467C41.2129 40.736 41.4613 40.2552 41.958 39.9043C42.4548 39.5488 43.1361 39.3711 44.002 39.3711C44.8086 39.3711 45.597 39.5352 46.3672 39.8633L45.9639 40.7861C45.2119 40.4762 44.5306 40.3213 43.9199 40.3213C43.3822 40.3213 42.9766 40.4056 42.7031 40.5742C42.4297 40.7428 42.293 40.9753 42.293 41.2715C42.293 41.472 42.3431 41.6429 42.4434 41.7842C42.5482 41.9255 42.7145 42.0599 42.9424 42.1875C43.1702 42.3151 43.6077 42.4997 44.2549 42.7412C45.1436 43.0648 45.7428 43.3906 46.0527 43.7188C46.3672 44.0469 46.5244 44.4593 46.5244 44.9561ZM50.7969 46.2002C50.9974 46.2002 51.1911 46.1865 51.3779 46.1592C51.5648 46.1273 51.7129 46.0954 51.8223 46.0635V46.9316C51.6992 46.9909 51.5169 47.0387 51.2754 47.0752C51.0384 47.1162 50.8242 47.1367 50.6328 47.1367C49.1836 47.1367 48.459 46.3734 48.459 44.8467V40.3896H47.3857V39.8428L48.459 39.3711L48.9375 37.7715H49.5938V39.5078H51.7676V40.3896H49.5938V44.7988C49.5938 45.25 49.7008 45.5964 49.915 45.8379C50.1292 46.0794 50.4232 46.2002 50.7969 46.2002ZM58.0977 47H56.9629V39.5078H58.0977V47ZM56.8672 37.4775C56.8672 37.2178 56.931 37.0286 57.0586 36.9102C57.1862 36.7871 57.3457 36.7256 57.5371 36.7256C57.7194 36.7256 57.8766 36.7871 58.0088 36.9102C58.141 37.0332 58.207 37.2223 58.207 37.4775C58.207 37.7327 58.141 37.9242 58.0088 38.0518C57.8766 38.1748 57.7194 38.2363 57.5371 38.2363C57.3457 38.2363 57.1862 38.1748 57.0586 38.0518C56.931 37.9242 56.8672 37.7327 56.8672 37.4775ZM62.9238 46.2002C63.1243 46.2002 63.318 46.1865 63.5049 46.1592C63.6917 46.1273 63.8398 46.0954 63.9492 46.0635V46.9316C63.8262 46.9909 63.6439 47.0387 63.4023 47.0752C63.1654 47.1162 62.9512 47.1367 62.7598 47.1367C61.3105 47.1367 60.5859 46.3734 60.5859 44.8467V40.3896H59.5127V39.8428L60.5859 39.3711L61.0645 37.7715H61.7207V39.5078H63.8945V40.3896H61.7207V44.7988C61.7207 45.25 61.8278 45.5964 62.042 45.8379C62.2562 46.0794 62.5501 46.2002 62.9238 46.2002ZM68.6182 47.1367C67.5107 47.1367 66.6357 46.7995 65.9932 46.125C65.3551 45.4505 65.0361 44.514 65.0361 43.3154C65.0361 42.1077 65.3324 41.1484 65.9248 40.4375C66.5218 39.7266 67.3216 39.3711 68.3242 39.3711C69.263 39.3711 70.0059 39.681 70.5527 40.3008C71.0996 40.916 71.373 41.7295 71.373 42.7412V43.459H66.2119C66.2347 44.3385 66.4557 45.0062 66.875 45.4619C67.2988 45.9176 67.8936 46.1455 68.6592 46.1455C69.4658 46.1455 70.2633 45.9769 71.0518 45.6396V46.6514C70.6507 46.8245 70.2702 46.9476 69.9102 47.0205C69.5547 47.098 69.124 47.1367 68.6182 47.1367ZM68.3105 40.3213C67.709 40.3213 67.2282 40.5173 66.8682 40.9092C66.5127 41.3011 66.3031 41.8434 66.2393 42.5361H70.1562C70.1562 41.8206 69.9967 41.2738 69.6777 40.8955C69.3587 40.5127 68.903 40.3213 68.3105 40.3213ZM82.8643 47V42.126C82.8643 41.529 82.7367 41.0824 82.4814 40.7861C82.2262 40.4854 81.8298 40.335 81.292 40.335C80.5856 40.335 80.0638 40.5378 79.7266 40.9434C79.3893 41.349 79.2207 41.9733 79.2207 42.8164V47H78.0859V42.126C78.0859 41.529 77.9583 41.0824 77.7031 40.7861C77.4479 40.4854 77.0492 40.335 76.5068 40.335C75.7959 40.335 75.2741 40.5492 74.9414 40.9775C74.6133 41.4014 74.4492 42.0986 74.4492 43.0693V47H73.3145V39.5078H74.2373L74.4219 40.5332H74.4766C74.6908 40.1686 74.9915 39.8838 75.3789 39.6787C75.7708 39.4736 76.2083 39.3711 76.6914 39.3711C77.8626 39.3711 78.6283 39.7949 78.9883 40.6426H79.043C79.2663 40.2507 79.5898 39.9408 80.0137 39.7129C80.4375 39.485 80.9206 39.3711 81.4629 39.3711C82.3105 39.3711 82.944 39.5898 83.3633 40.0273C83.7871 40.4603 83.999 41.1553 83.999 42.1123V47H82.8643Z" fill="#1C1D1E"/>
<path d="M107.231 37.0701L103.301 41L107.231 44.9299C107.59 45.289 107.59 45.8714 107.231 46.2306C106.871 46.5898 106.289 46.5898 105.93 46.2306L102 42.3008L98.0701 46.2306C97.711 46.5898 97.1286 46.5898 96.7694 46.2306C96.4102 45.8714 96.4102 45.289 96.7694 44.9299L100.699 41L96.7694 37.0701C96.4102 36.711 96.4102 36.1286 96.7694 35.7694C97.1286 35.4102 97.711 35.4102 98.0701 35.7694L102 39.6992L105.93 35.7694C106.289 35.4102 106.871 35.4102 107.231 35.7694C107.59 36.1286 107.59 36.711 107.231 37.0701Z" fill="#1C1D1E"/>
<rect x="122" y="24" width="121" height="34" rx="4" fill="#E5F5F6"/>
<path d="M137.014 44.3408C137.014 45.2204 136.695 45.9062 136.057 46.3984C135.419 46.8906 134.553 47.1367 133.459 47.1367C132.274 47.1367 131.363 46.984 130.725 46.6787V45.5576C131.135 45.7308 131.581 45.8675 132.064 45.9678C132.548 46.068 133.026 46.1182 133.5 46.1182C134.275 46.1182 134.858 45.9723 135.25 45.6807C135.642 45.3844 135.838 44.9743 135.838 44.4502C135.838 44.1038 135.767 43.8213 135.626 43.6025C135.489 43.3792 135.257 43.1742 134.929 42.9873C134.605 42.8005 134.111 42.5885 133.445 42.3516C132.516 42.0189 131.85 41.6247 131.449 41.1689C131.053 40.7132 130.854 40.1185 130.854 39.3848C130.854 38.6146 131.144 38.0016 131.723 37.5459C132.301 37.0902 133.067 36.8623 134.02 36.8623C135.013 36.8623 135.927 37.0446 136.761 37.4092L136.398 38.4209C135.574 38.0745 134.771 37.9014 133.992 37.9014C133.377 37.9014 132.896 38.0335 132.55 38.2979C132.203 38.5622 132.03 38.929 132.03 39.3984C132.03 39.7448 132.094 40.0296 132.222 40.2529C132.349 40.4717 132.563 40.6745 132.864 40.8613C133.17 41.0436 133.634 41.2464 134.259 41.4697C135.307 41.8434 136.027 42.2445 136.419 42.6729C136.815 43.1012 137.014 43.6572 137.014 44.3408ZM142.052 47.1367C140.944 47.1367 140.069 46.7995 139.427 46.125C138.789 45.4505 138.47 44.514 138.47 43.3154C138.47 42.1077 138.766 41.1484 139.358 40.4375C139.955 39.7266 140.755 39.3711 141.758 39.3711C142.697 39.3711 143.439 39.681 143.986 40.3008C144.533 40.916 144.807 41.7295 144.807 42.7412V43.459H139.646C139.668 44.3385 139.889 45.0062 140.309 45.4619C140.732 45.9176 141.327 46.1455 142.093 46.1455C142.899 46.1455 143.697 45.9769 144.485 45.6396V46.6514C144.084 46.8245 143.704 46.9476 143.344 47.0205C142.988 47.098 142.558 47.1367 142.052 47.1367ZM141.744 40.3213C141.143 40.3213 140.662 40.5173 140.302 40.9092C139.946 41.3011 139.737 41.8434 139.673 42.5361H143.59C143.59 41.8206 143.43 41.2738 143.111 40.8955C142.792 40.5127 142.337 40.3213 141.744 40.3213ZM149.742 47.1367C148.658 47.1367 147.817 46.804 147.22 46.1387C146.627 45.4688 146.331 44.5231 146.331 43.3018C146.331 42.0485 146.632 41.0801 147.233 40.3965C147.84 39.7129 148.701 39.3711 149.817 39.3711C150.177 39.3711 150.537 39.4098 150.897 39.4873C151.257 39.5648 151.54 39.6559 151.745 39.7607L151.396 40.7246C151.146 40.6243 150.872 40.5423 150.576 40.4785C150.28 40.4102 150.018 40.376 149.79 40.376C148.268 40.376 147.507 41.3467 147.507 43.2881C147.507 44.2087 147.691 44.915 148.061 45.4072C148.434 45.8994 148.986 46.1455 149.715 46.1455C150.339 46.1455 150.979 46.0111 151.636 45.7422V46.7471C151.134 47.0068 150.503 47.1367 149.742 47.1367ZM159.887 43.2471C159.887 44.4684 159.579 45.4232 158.964 46.1113C158.349 46.7949 157.499 47.1367 156.414 47.1367C155.744 47.1367 155.149 46.9795 154.63 46.665C154.11 46.3506 153.709 45.8994 153.427 45.3115C153.144 44.7236 153.003 44.0355 153.003 43.2471C153.003 42.0257 153.308 41.0755 153.919 40.3965C154.53 39.7129 155.377 39.3711 156.462 39.3711C157.51 39.3711 158.342 39.7197 158.957 40.417C159.577 41.1143 159.887 42.0576 159.887 43.2471ZM154.179 43.2471C154.179 44.2041 154.37 44.9333 154.753 45.4346C155.136 45.9359 155.699 46.1865 156.441 46.1865C157.184 46.1865 157.747 45.9382 158.13 45.4414C158.517 44.9401 158.711 44.2087 158.711 43.2471C158.711 42.2946 158.517 41.5723 158.13 41.0801C157.747 40.5833 157.18 40.335 156.428 40.335C155.685 40.335 155.124 40.5788 154.746 41.0664C154.368 41.554 154.179 42.2809 154.179 43.2471ZM167.01 47V42.1533C167.01 41.5426 166.871 41.0869 166.593 40.7861C166.315 40.4854 165.88 40.335 165.287 40.335C164.503 40.335 163.929 40.5469 163.564 40.9707C163.2 41.3945 163.018 42.0941 163.018 43.0693V47H161.883V39.5078H162.806L162.99 40.5332H163.045C163.277 40.1641 163.603 39.8792 164.022 39.6787C164.442 39.4736 164.909 39.3711 165.424 39.3711C166.326 39.3711 167.005 39.5898 167.461 40.0273C167.917 40.4603 168.145 41.1553 168.145 42.1123V47H167.01ZM175.582 45.9951H175.521C174.996 46.7562 174.213 47.1367 173.169 47.1367C172.189 47.1367 171.426 46.8018 170.879 46.1318C170.337 45.4619 170.065 44.5094 170.065 43.2744C170.065 42.0394 170.339 41.0801 170.886 40.3965C171.433 39.7129 172.194 39.3711 173.169 39.3711C174.185 39.3711 174.965 39.7402 175.507 40.4785H175.596L175.548 39.9385L175.521 39.4121V36.3633H176.655V47H175.732L175.582 45.9951ZM173.312 46.1865C174.087 46.1865 174.648 45.9769 174.994 45.5576C175.345 45.1338 175.521 44.4525 175.521 43.5137V43.2744C175.521 42.2126 175.343 41.4561 174.987 41.0049C174.636 40.5492 174.074 40.3213 173.299 40.3213C172.633 40.3213 172.123 40.5811 171.768 41.1006C171.417 41.6156 171.241 42.3447 171.241 43.2881C171.241 44.2451 171.417 44.9674 171.768 45.4551C172.118 45.9427 172.633 46.1865 173.312 46.1865ZM183.84 47H182.705V39.5078H183.84V47ZM182.609 37.4775C182.609 37.2178 182.673 37.0286 182.801 36.9102C182.928 36.7871 183.088 36.7256 183.279 36.7256C183.462 36.7256 183.619 36.7871 183.751 36.9102C183.883 37.0332 183.949 37.2223 183.949 37.4775C183.949 37.7327 183.883 37.9242 183.751 38.0518C183.619 38.1748 183.462 38.2363 183.279 38.2363C183.088 38.2363 182.928 38.1748 182.801 38.0518C182.673 37.9242 182.609 37.7327 182.609 37.4775ZM188.666 46.2002C188.867 46.2002 189.06 46.1865 189.247 46.1592C189.434 46.1273 189.582 46.0954 189.691 46.0635V46.9316C189.568 46.9909 189.386 47.0387 189.145 47.0752C188.908 47.1162 188.693 47.1367 188.502 47.1367C187.053 47.1367 186.328 46.3734 186.328 44.8467V40.3896H185.255V39.8428L186.328 39.3711L186.807 37.7715H187.463V39.5078H189.637V40.3896H187.463V44.7988C187.463 45.25 187.57 45.5964 187.784 45.8379C187.998 46.0794 188.292 46.2002 188.666 46.2002ZM194.36 47.1367C193.253 47.1367 192.378 46.7995 191.735 46.125C191.097 45.4505 190.778 44.514 190.778 43.3154C190.778 42.1077 191.075 41.1484 191.667 40.4375C192.264 39.7266 193.064 39.3711 194.066 39.3711C195.005 39.3711 195.748 39.681 196.295 40.3008C196.842 40.916 197.115 41.7295 197.115 42.7412V43.459H191.954C191.977 44.3385 192.198 45.0062 192.617 45.4619C193.041 45.9176 193.636 46.1455 194.401 46.1455C195.208 46.1455 196.006 45.9769 196.794 45.6396V46.6514C196.393 46.8245 196.012 46.9476 195.652 47.0205C195.297 47.098 194.866 47.1367 194.36 47.1367ZM194.053 40.3213C193.451 40.3213 192.97 40.5173 192.61 40.9092C192.255 41.3011 192.045 41.8434 191.981 42.5361H195.898C195.898 41.8206 195.739 41.2738 195.42 40.8955C195.101 40.5127 194.645 40.3213 194.053 40.3213ZM208.606 47V42.126C208.606 41.529 208.479 41.0824 208.224 40.7861C207.968 40.4854 207.572 40.335 207.034 40.335C206.328 40.335 205.806 40.5378 205.469 40.9434C205.132 41.349 204.963 41.9733 204.963 42.8164V47H203.828V42.126C203.828 41.529 203.701 41.0824 203.445 40.7861C203.19 40.4854 202.791 40.335 202.249 40.335C201.538 40.335 201.016 40.5492 200.684 40.9775C200.355 41.4014 200.191 42.0986 200.191 43.0693V47H199.057V39.5078H199.979L200.164 40.5332H200.219C200.433 40.1686 200.734 39.8838 201.121 39.6787C201.513 39.4736 201.951 39.3711 202.434 39.3711C203.605 39.3711 204.37 39.7949 204.73 40.6426H204.785C205.008 40.2507 205.332 39.9408 205.756 39.7129C206.18 39.485 206.663 39.3711 207.205 39.3711C208.053 39.3711 208.686 39.5898 209.105 40.0273C209.529 40.4603 209.741 41.1553 209.741 42.1123V47H208.606Z" fill="#1C1D1E"/>
<path d="M232.231 37.0701L228.301 41L232.231 44.9299C232.59 45.289 232.59 45.8714 232.231 46.2306C231.871 46.5898 231.289 46.5898 230.93 46.2306L227 42.3008L223.07 46.2306C222.711 46.5898 222.129 46.5898 221.769 46.2306C221.41 45.8714 221.41 45.289 221.769 44.9299L225.699 41L221.769 37.0701C221.41 36.711 221.41 36.1286 221.769 35.7694C222.129 35.4102 222.711 35.4102 223.07 35.7694L227 39.6992L230.93 35.7694C231.289 35.4102 231.871 35.4102 232.231 35.7694C232.59 36.1286 232.59 36.711 232.231 37.0701Z" fill="#1C1D1E"/>
<path fill-rule="evenodd" clip-rule="evenodd" d="M477.326 30.8667C474.863 30.8667 472.867 32.8632 472.867 35.3259C472.867 37.7887 474.863 39.7852 477.326 39.7852C478.521 39.7852 479.606 39.3151 480.407 38.5497C480.428 38.5237 480.45 38.4986 480.474 38.4745C480.499 38.4504 480.524 38.4278 480.55 38.4069C481.315 37.6063 481.785 36.521 481.785 35.3259C481.785 32.8632 479.789 30.8667 477.326 30.8667ZM482.41 39.0904C483.19 38.0385 483.652 36.7361 483.652 35.3259C483.652 31.8322 480.82 29 477.326 29C473.832 29 471 31.8322 471 35.3259C471 38.8197 473.832 41.6519 477.326 41.6519C478.736 41.6519 480.039 41.1904 481.09 40.4103L483.407 42.7266C483.771 43.0911 484.362 43.0911 484.727 42.7266C485.091 42.3622 485.091 41.7712 484.727 41.4067L482.41 39.0904Z" fill="#1C1D1E"/>
<rect width="122" height="16" transform="translate(12)" fill="white"/>
<path d="M23.6562 13L22.4121 9.82129H18.4062L17.1758 13H16L19.9512 2.96484H20.9287L24.8594 13H23.6562ZM22.0498 8.77539L20.8877 5.67871C20.7373 5.28678 20.5824 4.80599 20.4229 4.23633C20.3226 4.67383 20.179 5.15462 19.9922 5.67871L18.8164 8.77539H22.0498ZM27.2789 5.50781V10.3682C27.2789 10.9788 27.4179 11.4346 27.6959 11.7354C27.9739 12.0361 28.4091 12.1865 29.0016 12.1865C29.7854 12.1865 30.3574 11.9723 30.7174 11.5439C31.082 11.1156 31.2643 10.416 31.2643 9.44531V5.50781H32.399V13H31.4625L31.2984 11.9951H31.2369C31.0045 12.3643 30.6809 12.6468 30.2662 12.8428C29.8561 13.0387 29.3867 13.1367 28.858 13.1367C27.9465 13.1367 27.263 12.9202 26.8072 12.4873C26.3561 12.0544 26.1305 11.3617 26.1305 10.4092V5.50781H27.2789ZM37.382 12.2002C37.5826 12.2002 37.7762 12.1865 37.9631 12.1592C38.1499 12.1273 38.298 12.0954 38.4074 12.0635V12.9316C38.2844 12.9909 38.1021 13.0387 37.8605 13.0752C37.6236 13.1162 37.4094 13.1367 37.218 13.1367C35.7687 13.1367 35.0441 12.3734 35.0441 10.8467V6.38965H33.9709V5.84277L35.0441 5.37109L35.5227 3.77148H36.1789V5.50781H38.3527V6.38965H36.1789V10.7988C36.1789 11.25 36.286 11.5964 36.5002 11.8379C36.7144 12.0794 37.0083 12.2002 37.382 12.2002ZM46.5281 9.24707C46.5281 10.4684 46.2205 11.4232 45.6053 12.1113C44.99 12.7949 44.1401 13.1367 43.0555 13.1367C42.3855 13.1367 41.7908 12.9795 41.2713 12.665C40.7518 12.3506 40.3507 11.8994 40.0682 11.3115C39.7856 10.7236 39.6443 10.0355 39.6443 9.24707C39.6443 8.02572 39.9497 7.07552 40.5604 6.39648C41.171 5.71289 42.0187 5.37109 43.1033 5.37109C44.1515 5.37109 44.9832 5.71973 45.5984 6.41699C46.2182 7.11426 46.5281 8.05762 46.5281 9.24707ZM40.8201 9.24707C40.8201 10.2041 41.0115 10.9333 41.3943 11.4346C41.7771 11.9359 42.34 12.1865 43.0828 12.1865C43.8257 12.1865 44.3885 11.9382 44.7713 11.4414C45.1587 10.9401 45.3523 10.2087 45.3523 9.24707C45.3523 8.2946 45.1587 7.57227 44.7713 7.08008C44.3885 6.58333 43.8211 6.33496 43.0691 6.33496C42.3263 6.33496 41.7658 6.57878 41.3875 7.06641C41.0092 7.55404 40.8201 8.28092 40.8201 9.24707ZM51.6684 13.1367C50.5837 13.1367 49.7429 12.804 49.1459 12.1387C48.5535 11.4688 48.2572 10.5231 48.2572 9.30176C48.2572 8.0485 48.558 7.08008 49.1596 6.39648C49.7657 5.71289 50.627 5.37109 51.7436 5.37109C52.1036 5.37109 52.4636 5.40983 52.8236 5.4873C53.1837 5.56478 53.4662 5.65592 53.6713 5.76074L53.3227 6.72461C53.072 6.62435 52.7986 6.54232 52.5023 6.47852C52.2061 6.41016 51.9441 6.37598 51.7162 6.37598C50.1941 6.37598 49.433 7.34668 49.433 9.28809C49.433 10.2087 49.6176 10.915 49.9867 11.4072C50.3604 11.8994 50.9118 12.1455 51.641 12.1455C52.2654 12.1455 52.9057 12.0111 53.5619 11.7422V12.7471C53.0606 13.0068 52.4294 13.1367 51.6684 13.1367ZM61.9629 9.24707C61.9629 10.4684 61.6553 11.4232 61.04 12.1113C60.4248 12.7949 59.5749 13.1367 58.4902 13.1367C57.8203 13.1367 57.2256 12.9795 56.7061 12.665C56.1865 12.3506 55.7855 11.8994 55.5029 11.3115C55.2204 10.7236 55.0791 10.0355 55.0791 9.24707C55.0791 8.02572 55.3844 7.07552 55.9951 6.39648C56.6058 5.71289 57.4535 5.37109 58.5381 5.37109C59.5863 5.37109 60.418 5.71973 61.0332 6.41699C61.653 7.11426 61.9629 8.05762 61.9629 9.24707ZM56.2549 9.24707C56.2549 10.2041 56.4463 10.9333 56.8291 11.4346C57.2119 11.9359 57.7747 12.1865 58.5176 12.1865C59.2604 12.1865 59.8232 11.9382 60.2061 11.4414C60.5934 10.9401 60.7871 10.2087 60.7871 9.24707C60.7871 8.2946 60.5934 7.57227 60.2061 7.08008C59.8232 6.58333 59.2559 6.33496 58.5039 6.33496C57.7611 6.33496 57.2005 6.57878 56.8223 7.06641C56.444 7.55404 56.2549 8.28092 56.2549 9.24707ZM73.6588 13V8.12598C73.6588 7.52897 73.5312 7.08236 73.276 6.78613C73.0208 6.48535 72.6243 6.33496 72.0865 6.33496C71.3801 6.33496 70.8583 6.53776 70.5211 6.94336C70.1839 7.34896 70.0152 7.97331 70.0152 8.81641V13H68.8805V8.12598C68.8805 7.52897 68.7529 7.08236 68.4977 6.78613C68.2424 6.48535 67.8437 6.33496 67.3014 6.33496C66.5904 6.33496 66.0686 6.54915 65.7359 6.97754C65.4078 7.40137 65.2438 8.09863 65.2438 9.06934V13H64.109V5.50781H65.0318L65.2164 6.5332H65.2711C65.4853 6.16862 65.7861 5.88379 66.1734 5.67871C66.5654 5.47363 67.0029 5.37109 67.4859 5.37109C68.6572 5.37109 69.4228 5.79492 69.7828 6.64258H69.8375C70.0608 6.25065 70.3844 5.94076 70.8082 5.71289C71.232 5.48503 71.7151 5.37109 72.2574 5.37109C73.1051 5.37109 73.7385 5.58984 74.1578 6.02734C74.5816 6.46029 74.7936 7.15527 74.7936 8.1123V13H73.6588ZM80.7746 13.1367C80.287 13.1367 79.8404 13.0479 79.4348 12.8701C79.0337 12.6878 78.6965 12.4098 78.423 12.0361H78.341C78.3957 12.4736 78.423 12.8883 78.423 13.2803V16.3633H77.2883V5.50781H78.2111L78.3684 6.5332H78.423C78.7147 6.12305 79.0542 5.82682 79.4416 5.64453C79.829 5.46224 80.2733 5.37109 80.7746 5.37109C81.7681 5.37109 82.5337 5.71061 83.0715 6.38965C83.6138 7.06868 83.885 8.02116 83.885 9.24707C83.885 10.4775 83.6092 11.4346 83.0578 12.1182C82.5109 12.7972 81.7499 13.1367 80.7746 13.1367ZM80.6105 6.33496C79.8449 6.33496 79.2912 6.54688 78.9494 6.9707C78.6076 7.39453 78.4322 8.06901 78.423 8.99414V9.24707C78.423 10.2998 78.5985 11.054 78.9494 11.5098C79.3003 11.9609 79.8632 12.1865 80.6379 12.1865C81.285 12.1865 81.7909 11.9245 82.1555 11.4004C82.5246 10.8763 82.7092 10.154 82.7092 9.2334C82.7092 8.29915 82.5246 7.58366 82.1555 7.08691C81.7909 6.58561 81.2759 6.33496 80.6105 6.33496ZM87.159 13H86.0242V2.36328H87.159V13ZM92.8803 13.1367C91.7729 13.1367 90.8979 12.7995 90.2553 12.125C89.6173 11.4505 89.2982 10.514 89.2982 9.31543C89.2982 8.10775 89.5945 7.14844 90.1869 6.4375C90.7839 5.72656 91.5837 5.37109 92.5863 5.37109C93.5251 5.37109 94.268 5.68099 94.8148 6.30078C95.3617 6.91602 95.6352 7.72949 95.6352 8.74121V9.45898H90.474C90.4968 10.3385 90.7178 11.0062 91.1371 11.4619C91.5609 11.9176 92.1557 12.1455 92.9213 12.1455C93.7279 12.1455 94.5255 11.9769 95.3139 11.6396V12.6514C94.9128 12.8245 94.5323 12.9476 94.1723 13.0205C93.8168 13.098 93.3861 13.1367 92.8803 13.1367ZM92.5727 6.32129C91.9711 6.32129 91.4903 6.51725 91.1303 6.90918C90.7748 7.30111 90.5652 7.84342 90.5014 8.53613H94.4184C94.4184 7.82064 94.2589 7.27376 93.9398 6.89551C93.6208 6.5127 93.1651 6.32129 92.5727 6.32129ZM100.146 12.2002C100.347 12.2002 100.541 12.1865 100.728 12.1592C100.914 12.1273 101.062 12.0954 101.172 12.0635V12.9316C101.049 12.9909 100.867 13.0387 100.625 13.0752C100.388 13.1162 100.174 13.1367 99.9824 13.1367C98.5332 13.1367 97.8086 12.3734 97.8086 10.8467V6.38965H96.7354V5.84277L97.8086 5.37109L98.2871 3.77148H98.9434V5.50781H101.117V6.38965H98.9434V10.7988C98.9434 11.25 99.0505 11.5964 99.2646 11.8379C99.4788 12.0794 99.7728 12.2002 100.146 12.2002ZM105.991 13.1367C104.883 13.1367 104.008 12.7995 103.366 12.125C102.728 11.4505 102.409 10.514 102.409 9.31543C102.409 8.10775 102.705 7.14844 103.297 6.4375C103.894 5.72656 104.694 5.37109 105.697 5.37109C106.636 5.37109 107.379 5.68099 107.925 6.30078C108.472 6.91602 108.746 7.72949 108.746 8.74121V9.45898H103.585C103.607 10.3385 103.828 11.0062 104.248 11.4619C104.671 11.9176 105.266 12.1455 106.032 12.1455C106.838 12.1455 107.636 11.9769 108.424 11.6396V12.6514C108.023 12.8245 107.643 12.9476 107.283 13.0205C106.927 13.098 106.497 13.1367 105.991 13.1367ZM105.683 6.32129C105.082 6.32129 104.601 6.51725 104.241 6.90918C103.885 7.30111 103.676 7.84342 103.612 8.53613H107.529C107.529 7.82064 107.369 7.27376 107.05 6.89551C106.731 6.5127 106.276 6.32129 105.683 6.32129Z" fill="#1C1D1E"/>
<path d="M122 1C125.866 1 129 4.13401 129 8C129 11.866 125.866 15 122 15C118.134 15 115 11.866 115 8C115 4.13401 118.134 1 122 1ZM120 6.7002V7.7002H121V10.7002H120V11.7002H124V10.7002H123V6.7002H120ZM121.75 3.7002C121.338 3.7002 121 4.0382 121 4.4502V4.9502C121.001 5.14879 121.08 5.33906 121.221 5.47949C121.361 5.61991 121.551 5.69941 121.75 5.7002H122.25C122.662 5.7002 123 5.36211 123 4.9502V4.4502C123 4.0382 122.662 3.7002 122.25 3.7002H121.75Z" fill="#005274"/>
<rect width="44" height="16" transform="translate(446)" fill="white"/>
<path d="M455.909 10.3221L462.865 3.36629C463.353 2.8779 464.145 2.8779 464.634 3.36629C465.122 3.85467 465.122 4.6465 464.634 5.13489L455.909 13.8593L451.366 9.31628C450.878 8.82789 450.878 8.03606 451.366 7.54768C451.855 7.05929 452.647 7.05929 453.135 7.54768L455.909 10.3221Z" fill="#115C36"/>
<path d="M482.958 14.5714V13.8571H482.229C481.987 13.8571 481.792 13.6653 481.792 13.4286C481.792 13.1919 481.987 13 482.229 13H482.958V12.2857C482.958 12.049 483.154 11.8571 483.396 11.8571C483.637 11.8571 483.833 12.049 483.833 12.2857V13H484.562C484.804 13 485 13.1919 485 13.4286C485 13.6653 484.804 13.8571 484.562 13.8571H483.833V14.5714C483.833 14.8081 483.637 15 483.396 15C483.154 15 482.958 14.8081 482.958 14.5714ZM477.273 2C477.499 2.00086 477.685 2.17009 477.706 2.38616L477.709 2.43025C477.702 4.16048 478.128 5.44081 478.973 6.30078C479.817 7.15983 481.149 7.6712 483.114 7.71429C483.354 7.71955 483.545 7.91333 483.542 8.14844C483.539 8.38356 483.343 8.57234 483.103 8.57143C481.295 8.56459 480.014 9.03488 479.158 9.88951C478.297 10.7495 477.801 12.064 477.708 13.8783C477.696 14.1097 477.499 14.2902 477.263 14.2857C477.026 14.2811 476.836 14.0932 476.834 13.8616C476.816 12.1479 476.416 10.841 475.588 9.96317C474.768 9.09279 473.455 8.56895 471.438 8.57143C471.198 8.57173 471.002 8.38179 471 8.14621C470.998 7.91063 471.191 7.71766 471.431 7.71429C473.24 7.68943 474.569 7.25008 475.449 6.41797C476.324 5.58924 476.827 4.30213 476.834 2.4269C476.835 2.19023 477.031 1.9991 477.273 2ZM477.265 5.1702C476.991 5.907 476.59 6.52996 476.057 7.0346C475.547 7.51637 474.933 7.87398 474.23 8.12389C475.039 8.40299 475.705 8.82348 476.231 9.3817C476.725 9.90624 477.079 10.5356 477.317 11.2483C477.596 10.4811 477.998 9.82373 478.533 9.28906C479.043 8.77944 479.661 8.39751 480.379 8.13672C479.564 7.85801 478.883 7.44637 478.342 6.89565C477.864 6.40936 477.51 5.82987 477.265 5.1702ZM481.653 4.71429V4H480.923C480.682 3.99992 480.486 3.80807 480.486 3.57143C480.486 3.33479 480.682 3.14295 480.923 3.14286H481.653V2.42857C481.653 2.19193 481.848 2.00009 482.09 2C482.332 2 482.528 2.19188 482.528 2.42857V3.14286H483.257C483.498 3.14286 483.694 3.33474 483.694 3.57143C483.694 3.80812 483.498 4 483.257 4H482.528V4.71429C482.528 4.95098 482.332 5.14286 482.09 5.14286C481.848 5.14277 481.653 4.95093 481.653 4.71429Z" fill="#005274"/>
</svg>
