<svg width="369" height="64" viewBox="0 0 369 64" fill="none" xmlns="http://www.w3.org/2000/svg">
<rect x="0.5" y="8.5" width="368" height="55" stroke="#CCCCCC"/>
<path d="M18.8984 42H17.5703V30.5781H23.9375V31.7578H18.8984V35.9375H23.6328V37.1172H18.8984V42ZM27.0875 42H25.7906V33.4375H27.0875V42ZM25.6812 31.1172C25.6812 30.8203 25.7542 30.6042 25.9 30.4688C26.0458 30.3281 26.2281 30.2578 26.4469 30.2578C26.6552 30.2578 26.8349 30.3281 26.9859 30.4688C27.137 30.6094 27.2125 30.8255 27.2125 31.1172C27.2125 31.4089 27.137 31.6276 26.9859 31.7734C26.8349 31.9141 26.6552 31.9844 26.4469 31.9844C26.2281 31.9844 26.0458 31.9141 25.9 31.7734C25.7542 31.6276 25.6812 31.4089 25.6812 31.1172ZM33.8938 33.2812C34.274 33.2812 34.6151 33.3125 34.9172 33.375L34.7375 34.5781C34.3833 34.5 34.0708 34.4609 33.8 34.4609C33.1073 34.4609 32.5135 34.7422 32.0188 35.3047C31.5292 35.8672 31.2844 36.5677 31.2844 37.4062V42H29.9875V33.4375H31.0578L31.2063 35.0234H31.2688C31.5865 34.4661 31.9693 34.0365 32.4172 33.7344C32.8651 33.4323 33.3573 33.2812 33.8938 33.2812ZM42.1922 39.6641C42.1922 40.4609 41.8953 41.0755 41.3016 41.5078C40.7078 41.9401 39.8745 42.1562 38.8016 42.1562C37.6661 42.1562 36.7807 41.9766 36.1453 41.6172V40.4141C36.5568 40.6224 36.9969 40.7865 37.4656 40.9062C37.9396 41.026 38.3953 41.0859 38.8328 41.0859C39.5099 41.0859 40.0307 40.9792 40.3953 40.7656C40.7599 40.5469 40.9422 40.2161 40.9422 39.7734C40.9422 39.4401 40.7964 39.1562 40.5047 38.9219C40.2182 38.6823 39.6557 38.401 38.8172 38.0781C38.0203 37.7812 37.4526 37.5234 37.1141 37.3047C36.7807 37.0807 36.5307 36.8281 36.3641 36.5469C36.2026 36.2656 36.1219 35.9297 36.1219 35.5391C36.1219 34.8411 36.4057 34.2917 36.9734 33.8906C37.5411 33.4844 38.3198 33.2812 39.3094 33.2812C40.2313 33.2812 41.1323 33.4688 42.0125 33.8438L41.5516 34.8984C40.6922 34.5443 39.9135 34.3672 39.2156 34.3672C38.601 34.3672 38.1375 34.4635 37.825 34.6562C37.5125 34.849 37.3563 35.1146 37.3563 35.4531C37.3563 35.6823 37.4135 35.8776 37.5281 36.0391C37.6479 36.2005 37.838 36.3542 38.0984 36.5C38.3589 36.6458 38.8589 36.8568 39.5984 37.1328C40.6141 37.5026 41.299 37.875 41.6531 38.25C42.0125 38.625 42.1922 39.0964 42.1922 39.6641ZM47.225 41.0859C47.4542 41.0859 47.6755 41.0703 47.8891 41.0391C48.1026 41.0026 48.2719 40.9661 48.3969 40.9297V41.9219C48.2563 41.9896 48.0479 42.0443 47.7719 42.0859C47.501 42.1328 47.2563 42.1562 47.0375 42.1562C45.3813 42.1562 44.5531 41.2839 44.5531 39.5391V34.4453H43.3266V33.8203L44.5531 33.2812L45.1 31.4531H45.85V33.4375H48.3344V34.4453H45.85V39.4844C45.85 40 45.9724 40.3958 46.2172 40.6719C46.462 40.9479 46.7979 41.0859 47.225 41.0859ZM55.8688 42H54.5719V33.4375H55.8688V42ZM54.4625 31.1172C54.4625 30.8203 54.5354 30.6042 54.6813 30.4688C54.8271 30.3281 55.0094 30.2578 55.2281 30.2578C55.4365 30.2578 55.6161 30.3281 55.7672 30.4688C55.9182 30.6094 55.9938 30.8255 55.9938 31.1172C55.9938 31.4089 55.9182 31.6276 55.7672 31.7734C55.6161 31.9141 55.4365 31.9844 55.2281 31.9844C55.0094 31.9844 54.8271 31.9141 54.6813 31.7734C54.5354 31.6276 54.4625 31.4089 54.4625 31.1172ZM61.5344 41.0859C61.7635 41.0859 61.9849 41.0703 62.1984 41.0391C62.412 41.0026 62.5812 40.9661 62.7062 40.9297V41.9219C62.5656 41.9896 62.3573 42.0443 62.0812 42.0859C61.8104 42.1328 61.5656 42.1562 61.3469 42.1562C59.6906 42.1562 58.8625 41.2839 58.8625 39.5391V34.4453H57.6359V33.8203L58.8625 33.2812L59.4094 31.4531H60.1594V33.4375H62.6437V34.4453H60.1594V39.4844C60.1594 40 60.2818 40.3958 60.5266 40.6719C60.7714 40.9479 61.1073 41.0859 61.5344 41.0859ZM68.1922 42.1562C66.9266 42.1562 65.9266 41.7708 65.1922 41C64.463 40.2292 64.0984 39.1589 64.0984 37.7891C64.0984 36.4089 64.437 35.3125 65.1141 34.5C65.7964 33.6875 66.7104 33.2812 67.8563 33.2812C68.9292 33.2812 69.7781 33.6354 70.4031 34.3438C71.0281 35.0469 71.3406 35.9766 71.3406 37.1328V37.9531H65.4422C65.4682 38.9583 65.7208 39.7214 66.2 40.2422C66.6844 40.763 67.3641 41.0234 68.2391 41.0234C69.1609 41.0234 70.0724 40.8307 70.9734 40.4453V41.6016C70.5151 41.7995 70.0802 41.9401 69.6688 42.0234C69.2625 42.112 68.7703 42.1562 68.1922 42.1562ZM67.8406 34.3672C67.1531 34.3672 66.6036 34.5911 66.1922 35.0391C65.7859 35.487 65.5464 36.1068 65.4734 36.8984H69.95C69.95 36.0807 69.7677 35.4557 69.4031 35.0234C69.0385 34.5859 68.5177 34.3672 67.8406 34.3672ZM84.6234 42V36.4297C84.6234 35.7474 84.4776 35.237 84.1859 34.8984C83.8943 34.5547 83.4411 34.3828 82.8266 34.3828C82.0193 34.3828 81.4229 34.6146 81.0375 35.0781C80.6521 35.5417 80.4594 36.2552 80.4594 37.2188V42H79.1625V36.4297C79.1625 35.7474 79.0167 35.237 78.725 34.8984C78.4333 34.5547 77.9776 34.3828 77.3578 34.3828C76.5453 34.3828 75.949 34.6276 75.5687 35.1172C75.1937 35.6016 75.0062 36.3984 75.0062 37.5078V42H73.7094V33.4375H74.7641L74.975 34.6094H75.0375C75.2823 34.1927 75.626 33.8672 76.0687 33.6328C76.5167 33.3984 77.0167 33.2812 77.5687 33.2812C78.9073 33.2812 79.7823 33.7656 80.1937 34.7344H80.2562C80.5115 34.2865 80.8812 33.9323 81.3656 33.6719C81.85 33.4115 82.4021 33.2812 83.0219 33.2812C83.9906 33.2812 84.7146 33.5312 85.1937 34.0312C85.6781 34.526 85.9203 35.3203 85.9203 36.4141V42H84.6234Z" fill="white"/>
<path d="M344.973 39.8659C344.789 39.867 344.607 39.8318 344.438 39.7625C344.268 39.6931 344.113 39.591 343.983 39.4618L338.41 33.8884C338.28 33.7585 338.177 33.6042 338.106 33.4345C338.036 33.2648 338 33.0828 338 32.8991C338 32.7154 338.036 32.5334 338.106 32.3637C338.177 32.194 338.28 32.0397 338.41 31.9098C338.54 31.7799 338.694 31.6768 338.864 31.6065C339.033 31.5362 339.215 31.5 339.399 31.5C339.583 31.5 339.765 31.5362 339.934 31.6065C340.104 31.6768 340.258 31.7799 340.388 31.9098L344.973 36.5218L349.571 32.0909C349.699 31.9484 349.855 31.8339 350.029 31.7545C350.204 31.6751 350.393 31.6325 350.585 31.6295C350.776 31.6264 350.966 31.663 351.143 31.7368C351.32 31.8107 351.48 31.9202 351.613 32.0586C351.745 32.197 351.848 32.3613 351.914 32.5411C351.98 32.721 352.009 32.9126 351.998 33.104C351.986 33.2953 351.936 33.4823 351.849 33.6533C351.762 33.8242 351.641 33.9754 351.493 34.0974L345.92 39.4758C345.665 39.7214 345.326 39.8609 344.973 39.8659Z" fill="#595959"/>
<rect width="72" height="16" transform="translate(12)" fill="white"/>
<path d="M26.0488 7.98926C26.0488 9.58887 25.6432 10.8467 24.832 11.7627C24.0254 12.6787 22.902 13.1367 21.4619 13.1367C19.9899 13.1367 18.8529 12.6878 18.0508 11.79C17.2533 10.8877 16.8545 9.61621 16.8545 7.97559C16.8545 6.34863 17.2555 5.08854 18.0576 4.19531C18.8597 3.29753 19.999 2.84863 21.4756 2.84863C22.9111 2.84863 24.0322 3.30436 24.8389 4.21582C25.6455 5.12728 26.0488 6.38509 26.0488 7.98926ZM18.085 7.98926C18.085 9.34277 18.3721 10.3704 18.9463 11.0723C19.5251 11.7695 20.3636 12.1182 21.4619 12.1182C22.5693 12.1182 23.4056 11.7695 23.9707 11.0723C24.5358 10.375 24.8184 9.34733 24.8184 7.98926C24.8184 6.64486 24.5358 5.6263 23.9707 4.93359C23.4102 4.23633 22.5785 3.8877 21.4756 3.8877C20.3682 3.8877 19.5251 4.23861 18.9463 4.94043C18.3721 5.6377 18.085 6.65397 18.085 7.98926ZM31.7496 5.38477C32.734 5.38477 33.4973 5.72201 34.0396 6.39648C34.5865 7.06641 34.86 8.0166 34.86 9.24707C34.86 10.4775 34.5842 11.4346 34.0328 12.1182C33.4859 12.7972 32.7249 13.1367 31.7496 13.1367C31.262 13.1367 30.8154 13.0479 30.4098 12.8701C30.0087 12.6878 29.6715 12.4098 29.398 12.0361H29.316L29.0768 13H28.2633V2.36328H29.398V4.94727C29.398 5.52604 29.3798 6.04557 29.3434 6.50586H29.398C29.9267 5.75846 30.7105 5.38477 31.7496 5.38477ZM31.5855 6.33496C30.8108 6.33496 30.2525 6.55827 29.9107 7.00488C29.5689 7.44694 29.398 8.19434 29.398 9.24707C29.398 10.2998 29.5735 11.054 29.9244 11.5098C30.2753 11.9609 30.8382 12.1865 31.6129 12.1865C32.3102 12.1865 32.8297 11.9336 33.1715 11.4277C33.5133 10.9173 33.6842 10.1859 33.6842 9.2334C33.6842 8.25814 33.5133 7.53125 33.1715 7.05273C32.8297 6.57422 32.301 6.33496 31.5855 6.33496ZM36.09 16.3633C35.6571 16.3633 35.3062 16.3063 35.0373 16.1924V15.2695C35.3518 15.3607 35.6617 15.4062 35.967 15.4062C36.3225 15.4062 36.5822 15.3083 36.7463 15.1123C36.9149 14.9209 36.9992 14.627 36.9992 14.2305V5.50781H38.134V14.1484C38.134 15.625 37.4527 16.3633 36.09 16.3633ZM36.9035 3.47754C36.9035 3.21777 36.9673 3.02865 37.0949 2.91016C37.2225 2.78711 37.382 2.72559 37.5734 2.72559C37.7557 2.72559 37.913 2.78711 38.0451 2.91016C38.1773 3.0332 38.2434 3.22233 38.2434 3.47754C38.2434 3.73275 38.1773 3.92415 38.0451 4.05176C37.913 4.1748 37.7557 4.23633 37.5734 4.23633C37.382 4.23633 37.2225 4.1748 37.0949 4.05176C36.9673 3.92415 36.9035 3.73275 36.9035 3.47754ZM43.8553 13.1367C42.7479 13.1367 41.8729 12.7995 41.2303 12.125C40.5923 11.4505 40.2732 10.514 40.2732 9.31543C40.2732 8.10775 40.5695 7.14844 41.1619 6.4375C41.7589 5.72656 42.5587 5.37109 43.5613 5.37109C44.5001 5.37109 45.243 5.68099 45.7898 6.30078C46.3367 6.91602 46.6102 7.72949 46.6102 8.74121V9.45898H41.449C41.4718 10.3385 41.6928 11.0062 42.1121 11.4619C42.5359 11.9176 43.1307 12.1455 43.8963 12.1455C44.7029 12.1455 45.5005 11.9769 46.2889 11.6396V12.6514C45.8878 12.8245 45.5073 12.9476 45.1473 13.0205C44.7918 13.098 44.3611 13.1367 43.8553 13.1367ZM43.5477 6.32129C42.9461 6.32129 42.4653 6.51725 42.1053 6.90918C41.7498 7.30111 41.5402 7.84342 41.4764 8.53613H45.3934C45.3934 7.82064 45.2339 7.27376 44.9148 6.89551C44.5958 6.5127 44.1401 6.32129 43.5477 6.32129ZM51.6957 13.1367C50.6111 13.1367 49.7702 12.804 49.1732 12.1387C48.5808 11.4688 48.2846 10.5231 48.2846 9.30176C48.2846 8.0485 48.5854 7.08008 49.1869 6.39648C49.793 5.71289 50.6544 5.37109 51.7709 5.37109C52.1309 5.37109 52.491 5.40983 52.851 5.4873C53.211 5.56478 53.4936 5.65592 53.6986 5.76074L53.35 6.72461C53.0993 6.62435 52.8259 6.54232 52.5297 6.47852C52.2335 6.41016 51.9714 6.37598 51.7436 6.37598C50.2214 6.37598 49.4604 7.34668 49.4604 9.28809C49.4604 10.2087 49.6449 10.915 50.0141 11.4072C50.3878 11.8994 50.9392 12.1455 51.6684 12.1455C52.2927 12.1455 52.933 12.0111 53.5893 11.7422V12.7471C53.088 13.0068 52.4568 13.1367 51.6957 13.1367ZM57.9434 12.2002C58.1439 12.2002 58.3376 12.1865 58.5244 12.1592C58.7113 12.1273 58.8594 12.0954 58.9688 12.0635V12.9316C58.8457 12.9909 58.6634 13.0387 58.4219 13.0752C58.1849 13.1162 57.9707 13.1367 57.7793 13.1367C56.3301 13.1367 55.6055 12.3734 55.6055 10.8467V6.38965H54.5322V5.84277L55.6055 5.37109L56.084 3.77148H56.7402V5.50781H58.9141V6.38965H56.7402V10.7988C56.7402 11.25 56.8473 11.5964 57.0615 11.8379C57.2757 12.0794 57.5697 12.2002 57.9434 12.2002Z" fill="#1C1D1E"/>
<path d="M72 1C75.866 1 79 4.13401 79 8C79 11.866 75.866 15 72 15C68.134 15 65 11.866 65 8C65 4.13401 68.134 1 72 1ZM70 6.7002V7.7002H71V10.7002H70V11.7002H74V10.7002H73V6.7002H70ZM71.75 3.7002C71.338 3.7002 71 4.0382 71 4.4502V4.9502C71.0008 5.14879 71.0803 5.33906 71.2207 5.47949C71.3612 5.61991 71.5514 5.69941 71.75 5.7002H72.25C72.6619 5.7002 72.9999 5.36211 73 4.9502V4.4502C73 4.0382 72.662 3.7002 72.25 3.7002H71.75Z" fill="#005274"/>
</svg>
