<svg width="16" height="16" viewBox="0 0 16 16" fill="none" xmlns="http://www.w3.org/2000/svg">
<path fill-rule="evenodd" clip-rule="evenodd" d="M9.82601 1.06049C9.78245 1.09476 9.58689 1.34273 9.39139 1.61156C8.99286 2.15961 7.1078 4.75516 6.22919 5.96559C5.27006 7.28694 4.10663 8.89482 4.05075 8.97622C3.9854 9.07144 3.98276 9.261 4.04516 9.38168C4.14892 9.58233 4.11182 9.57827 6.05847 9.60323C7.0295 9.61571 7.83148 9.6334 7.84067 9.64259C7.84983 9.65178 7.51292 10.7488 7.09193 12.0803C6.67095 13.4119 6.32652 14.5444 6.32652 14.597C6.32652 14.8216 6.53444 15 6.79631 15C6.91016 15 6.94341 14.9827 7.05365 14.8661C7.12332 14.7925 7.37228 14.4676 7.6069 14.1443C7.98696 13.6205 10.0609 10.789 10.9026 9.64455C11.0785 9.40549 11.4223 8.93747 11.6668 8.6045C11.9113 8.27153 12.2628 7.79318 12.448 7.54149C12.6332 7.28976 12.8124 7.03829 12.8464 6.98266C12.9281 6.84866 12.9261 6.66763 12.8416 6.54897C12.7121 6.36714 12.7356 6.36919 10.7671 6.36919C9.4347 6.36919 8.96544 6.35993 8.96544 6.33364C8.96544 6.30163 9.36442 5.03237 10.1945 2.42379C10.3552 1.91867 10.4867 1.46043 10.4867 1.40547C10.4867 1.25689 10.4074 1.13072 10.27 1.06061C10.1117 0.979832 9.92862 0.979801 9.82601 1.06049Z" fill="#1C1D1E"/>
</svg>
