<svg width="16" height="16" viewBox="0 0 16 16" fill="none" xmlns="http://www.w3.org/2000/svg">
<path d="M8.5 2C9.63778 2 10.729 2.45198 11.5335 3.25651C12.338 4.06104 12.79 5.15222 12.79 6.29C12.79 11.06 14.53 12 15 12H2C2.48 12 4.21 11.05 4.21 6.29C4.21 5.15222 4.66198 4.06104 5.46651 3.25651C6.27104 2.45198 7.36222 2 8.5 2Z" stroke="#1C1D1E" stroke-width="1.2" stroke-linecap="round" stroke-linejoin="round"/>
<path d="M7 13.8301C7.08644 14.1621 7.2806 14.4561 7.55205 14.6659C7.82351 14.8757 8.1569 14.9896 8.5 14.9896C8.8431 14.9896 9.17649 14.8757 9.44795 14.6659C9.7194 14.4561 9.91356 14.1621 10 13.8301" stroke="#1C1D1E" stroke-width="1.2" stroke-linecap="round" stroke-linejoin="round"/>
</svg>
