<svg width="16" height="16" viewBox="0 0 16 16" fill="none" xmlns="http://www.w3.org/2000/svg">
<path fill-rule="evenodd" clip-rule="evenodd" d="M8 2.64706C5.04365 2.64706 2.64706 5.04365 2.64706 8C2.64706 10.9563 5.04365 13.3529 8 13.3529C10.9563 13.3529 13.3529 10.9563 13.3529 8C13.3529 5.04365 10.9563 2.64706 8 2.64706ZM1 8C1 4.13401 4.13401 1 8 1C11.866 1 15 4.13401 15 8C15 11.866 11.866 15 8 15C4.13401 15 1 11.866 1 8Z" fill="#1C1D1E"/>
<path fill-rule="evenodd" clip-rule="evenodd" d="M7.9998 3.4707C8.45462 3.4707 8.82333 3.83941 8.82333 4.29423V7.49115L10.8387 8.49882C11.2455 8.70223 11.4104 9.1969 11.207 9.6037C11.0036 10.0105 10.5089 10.1754 10.1021 9.972L7.63151 8.7367C7.35251 8.5972 7.17627 8.31205 7.17627 8.00012V4.29423C7.17627 3.83941 7.54498 3.4707 7.9998 3.4707Z" fill="#1C1D1E"/>
</svg>
