<svg width="16" height="16" viewBox="0 0 16 16" fill="none" xmlns="http://www.w3.org/2000/svg">
<path d="M13.2306 4.07015L9.30075 8L13.2306 11.9299C13.5898 12.289 13.5898 12.8714 13.2306 13.2306C12.8714 13.5898 12.289 13.5898 11.9299 13.2306L8 9.30075L4.07015 13.2306C3.71096 13.5898 3.12859 13.5898 2.7694 13.2306C2.4102 12.8714 2.4102 12.289 2.7694 11.9299L6.69925 8L2.76939 4.07015C2.4102 3.71096 2.4102 3.12859 2.76939 2.76939C3.12859 2.4102 3.71096 2.4102 4.07015 2.7694L8 6.69925L11.9299 2.76939C12.289 2.4102 12.8714 2.4102 13.2306 2.7694C13.5898 3.12859 13.5898 3.71096 13.2306 4.07015Z" fill="#1C1D1E"/>
</svg>
