<svg width="16" height="16" viewBox="0 0 16 16" fill="none" xmlns="http://www.w3.org/2000/svg">
<path d="M10.9752 8.08412C11.0244 8.08412 11.0638 8.08412 11.1129 8.07428C11.6934 7.96607 11.9 7.48402 11.8508 7.08067C11.8016 6.67732 11.4769 6.26414 10.8867 6.31332C10.2866 6.38219 10.0308 6.86424 10.0898 7.2971C10.139 7.71029 10.4538 8.08412 10.9752 8.08412Z" fill="#1C1D1E"/>
<path d="M14.025 4.84743C12.8839 2.44701 10.267 0.853295 7.65018 1.0107C5.14155 1.0894 2.14103 2.65361 1.25563 5.48688C0.566985 7.81843 1.29498 10.3467 3.13464 11.9208C3.14448 12.1077 3.13464 12.5897 3.1248 13.1111C3.08545 14.9705 3.11497 14.9705 3.24286 15C3.25269 15 3.26253 15 3.26253 15C3.31172 15 3.34123 14.9705 3.37075 14.9115C3.59702 14.7836 3.81345 14.6655 4.02988 14.5278C4.36436 14.3409 4.69885 14.1441 5.03333 13.9572L5.56457 13.6522C5.7023 13.5735 5.84986 13.4948 5.98759 13.4063L6.07613 13.3571C6.24337 13.2489 6.24338 13.2489 6.43029 13.2882C9.74562 13.7998 12.51 12.5701 13.8381 10.0024C14.694 8.42837 14.7629 6.31325 14.025 4.84743ZM4.38404 11.3895C4.3742 11.2715 4.34469 11.2715 4.2955 11.2715H4.28566C4.22663 11.2223 4.15777 11.1633 4.09874 11.1042C4.03972 11.0452 3.99053 10.996 3.94134 10.9665C3.34123 10.3959 2.85918 9.70728 2.6034 9.0088C2.02297 7.4446 2.20989 5.87055 3.13464 4.59165C4.22663 3.08647 6.18435 2.20107 8.22077 2.26993C10.3359 2.3388 12.4215 3.88333 13.0708 5.86072C13.6512 7.72005 13.0314 9.77615 11.5164 10.996C10.2965 11.9995 8.54541 12.3438 6.3024 12.0192C6.12532 11.9601 5.9384 12.088 5.77116 12.2159C5.7023 12.2651 5.64327 12.3143 5.57441 12.3438C5.43668 12.4323 5.29895 12.5307 5.16122 12.6193C4.94479 12.7668 4.72836 12.9144 4.51193 13.0521C4.48242 13.0718 4.4529 13.0915 4.42339 13.1111C4.42339 12.9537 4.42339 12.7275 4.42339 12.5209C4.42339 11.8716 4.42339 11.5666 4.40371 11.4191L4.38404 11.3895Z" fill="#1C1D1E"/>
<path d="M7.77795 8.08411C7.82714 8.08411 7.86649 8.08411 7.91568 8.07428C8.49611 7.96606 8.7027 7.48401 8.65351 7.07082C8.60433 6.67731 8.28952 6.25429 7.68941 6.30348C7.08931 6.38218 6.83353 6.86423 6.89255 7.29709C6.94174 7.71028 7.25655 8.08411 7.77795 8.08411Z" fill="#1C1D1E"/>
<path d="M4.71819 8.07427C5.29861 7.96606 5.50521 7.48401 5.45602 7.08066C5.39699 6.67731 5.07234 6.25429 4.48208 6.30348C4.13776 6.35266 3.87214 6.53958 3.75408 6.82488C3.62619 7.12985 3.66554 7.49385 3.8623 7.74963C4.02954 7.96606 4.27549 8.08411 4.57062 8.08411C4.61981 8.08411 4.669 8.08411 4.71819 8.07427Z" fill="#1C1D1E"/>
</svg>
