<svg width="16" height="16" viewBox="0 0 16 16" fill="none" xmlns="http://www.w3.org/2000/svg">
<path fill-rule="evenodd" clip-rule="evenodd" d="M10.0846 6.76452C8.50719 6.76452 7.22842 8.04329 7.22842 9.62074C7.22842 11.1982 8.50719 12.477 10.0846 12.477C10.8501 12.477 11.5452 12.1758 12.058 11.6856C12.0715 11.669 12.0859 11.6529 12.1013 11.6374C12.1168 11.622 12.1329 11.6075 12.1495 11.5941C12.6398 11.0813 12.9409 10.3862 12.9409 9.62074C12.9409 8.04329 11.6621 6.76452 10.0846 6.76452ZM13.3413 12.0319C13.8409 11.3582 14.1365 10.524 14.1365 9.62074C14.1365 7.38296 12.3224 5.56889 10.0846 5.56889C7.84687 5.56889 6.03279 7.38296 6.03279 9.62074C6.03279 11.8585 7.84687 13.6726 10.0846 13.6726C10.9879 13.6726 11.8221 13.377 12.4958 12.8774L13.9795 14.361C14.2129 14.5945 14.5914 14.5945 14.8249 14.361C15.0584 14.1275 15.0584 13.749 14.8249 13.5156L13.3413 12.0319Z" fill="#1C1D1E"/>
<path d="M1.73202 2C1.32774 2 1 2.32774 1 2.73202C1 3.1363 1.32774 3.46403 1.73202 3.46403H10.5162C10.9205 3.46403 11.2482 3.1363 11.2482 2.73202C11.2482 2.32774 10.9205 2 10.5162 2H1.73202Z" fill="#1C1D1E"/>
<path d="M1 5.66008C1 5.2558 1.32774 4.92807 1.73202 4.92807H8.37507C7.55273 5.22771 6.83134 5.73734 6.27576 6.3921H1.73202C1.32774 6.3921 1 6.06437 1 5.66008Z" fill="#1C1D1E"/>
<path d="M5.41235 7.85608H1.73202C1.32774 7.85608 1 8.18382 1 8.5881C1 8.99238 1.32774 9.32012 1.73202 9.32012H5.10045C5.1309 8.80745 5.2387 8.3156 5.41235 7.85608Z" fill="#1C1D1E"/>
</svg>
