<svg width="16" height="16" viewBox="0 0 16 16" fill="none" xmlns="http://www.w3.org/2000/svg">
<path d="M8.02749 3.50009C8.21086 3.49903 8.39264 3.53418 8.56241 3.60352C8.73217 3.67286 8.88658 3.77503 9.01677 3.90417L14.5902 9.47762C14.7201 9.60753 14.8232 9.76176 14.8935 9.93151C14.9638 10.1012 15 10.2832 15 10.4669C15 10.6506 14.9638 10.8326 14.8935 11.0023C14.8232 11.172 14.7201 11.3263 14.5902 11.4562C14.4603 11.5861 14.3061 11.6892 14.1363 11.7595C13.9666 11.8298 13.7847 11.866 13.6009 11.866C13.4172 11.866 13.2353 11.8298 13.0655 11.7595C12.8958 11.6892 12.7416 11.5861 12.6116 11.4562L8.02749 6.84416L3.42939 11.2751C3.30121 11.4176 3.14501 11.5321 2.97054 11.6115C2.79607 11.6909 2.6071 11.7335 2.41544 11.7365C2.22378 11.7396 2.03355 11.703 1.85665 11.6292C1.67976 11.5553 1.52 11.4458 1.38737 11.3074C1.25475 11.169 1.1521 11.0047 1.08585 10.8249C1.01961 10.645 0.991191 10.4534 1.00238 10.262C1.01356 10.0707 1.06411 9.88367 1.15086 9.71274C1.23761 9.5418 1.3587 9.39061 1.50655 9.26861L7.08 3.89023C7.33481 3.64456 7.67357 3.50507 8.02749 3.50009Z" fill="#1C1D1E"/>
</svg>
