<svg width="16" height="16" viewBox="0 0 16 16" fill="none" xmlns="http://www.w3.org/2000/svg">
<path d="M7.98538 0C10.2232 0 12.1284 0.781262 13.6997 2.34304C14.4517 3.0953 15.0235 3.95506 15.414 4.92158C15.8042 5.88834 16 6.91436 16 8.00012C16 9.09539 15.8067 10.1217 15.4215 11.0784C15.0357 12.0354 14.4665 12.881 13.7145 13.6142C12.9337 14.3855 12.0479 14.9762 11.0572 15.3857C10.0669 15.7952 9.04289 16 7.98588 16C6.92886 16 5.91684 15.798 4.95008 15.3927C3.98356 14.9882 3.1168 14.4025 2.35004 13.636C1.58327 12.8695 1.00002 12.0049 0.600009 11.0429C0.200003 10.0809 0 9.06689 0 8.00012C0 6.94286 0.202253 5.92634 0.60701 4.95008C1.01177 3.97381 1.60002 3.10005 2.37129 2.32854C3.89506 0.776512 5.76634 0 7.98538 0ZM8.01438 1.44302C6.18585 1.44302 4.64757 2.08128 3.3998 3.3573C2.77104 3.99556 2.28779 4.71207 1.94978 5.50734C1.61128 6.3026 1.44252 7.13361 1.44252 8.00038C1.44252 8.85764 1.61128 9.6839 1.94978 10.4787C2.28804 11.2744 2.77104 11.9839 3.3998 12.6077C4.02831 13.2317 4.73757 13.7075 5.52859 14.0365C6.31885 14.365 7.14761 14.5292 8.01438 14.5292C8.87139 14.5292 9.7019 14.363 10.5077 14.0295C11.3124 13.6957 12.0379 13.2152 12.6859 12.5867C13.9335 11.3677 14.557 9.83915 14.557 8.00062C14.557 7.11486 14.395 6.27685 14.0712 5.48634C13.748 4.69582 13.2762 3.99131 12.6577 3.3718C11.3712 2.08603 9.8239 1.44302 8.01438 1.44302Z" fill="#1C1D1E"/>
<path d="M9.7687 6.93576L11.407 6.16711C10.7516 5.10293 9.66743 4.57084 8.15292 4.57153C7.11878 4.57153 6.26351 4.88051 5.5867 5.49777C4.90989 6.11538 4.57129 6.94921 4.57129 8.00028C4.57129 9.07721 4.90606 9.91793 5.57561 10.5221C6.24516 11.1269 7.12643 11.4287 8.21827 11.4287C8.90272 11.4287 9.52908 11.2745 10.0962 10.9656C10.6641 10.6569 11.1082 10.2335 11.4284 9.69448L9.92195 9.0048C9.63036 9.63516 9.1282 9.95069 8.4147 9.95069C7.87585 9.95069 7.46808 9.7731 7.1914 9.41826C6.91509 9.06342 6.77675 8.59099 6.77675 7.99993C6.77675 6.6992 7.32324 6.04917 8.4147 6.04917C8.6333 6.04917 8.86985 6.11504 9.12476 6.24608C9.37928 6.37746 9.59367 6.60781 9.7687 6.93576Z" fill="#1C1D1E"/>
</svg>
