<svg width="16" height="16" viewBox="0 0 16 16" fill="none" xmlns="http://www.w3.org/2000/svg">
<path fill-rule="evenodd" clip-rule="evenodd" d="M7.32 4.36205C7.26 4.31205 7.18 4.26205 7.09 4.21205C6.78 4.01205 6.34 3.77205 5.81 3.60205C4.84 3.28205 3.61 3.18205 2.35 3.94205V12.342C3.76 11.702 5.12 11.752 6.18 12.012C6.61 12.112 7 12.252 7.32 12.392V4.36205ZM7.61 14.062L7.59 14.052C7.57 14.042 7.54 14.022 7.5 14.002C7.42 13.952 7.3 13.882 7.15 13.802C6.84 13.642 6.4 13.452 5.87 13.332C4.82 13.082 3.46 13.082 2.07 14.072C1.86 14.222 1.59 14.242 1.37 14.122C1.14 14.002 1 13.762 1 13.512V3.58205C1 3.36205 1.11 3.16205 1.28 3.03205C3.09 1.74205 4.91 1.88205 6.23 2.32205C6.89 2.54205 7.43 2.84205 7.81 3.07205C7.88 3.11205 7.94 3.15205 8 3.19205C8.06 3.15205 8.12 3.11205 8.18 3.07205C8.56 2.83205 9.1 2.53205 9.76 2.31205C11.09 1.87205 12.91 1.73205 14.71 3.02205C14.89 3.15205 15 3.36205 15 3.58205V13.522C15 13.772 14.86 14.012 14.63 14.122C14.4 14.242 14.13 14.222 13.93 14.072C12.55 13.082 11.18 13.082 10.13 13.332C9.6 13.462 9.16 13.652 8.85 13.802C8.7 13.882 8.58 13.952 8.5 14.002C8.46 14.022 8.43 14.042 8.41 14.052L8.39 14.062C8.38 14.072 8.36 14.082 8.35 14.092C8.15 14.212 7.9 14.222 7.69 14.112C7.67 14.102 7.66 14.092 7.65 14.092L7.61 14.062ZM8.68 12.382C9 12.242 9.39 12.112 9.82 12.002C10.88 11.752 12.24 11.702 13.65 12.332V3.93205C12.39 3.16205 11.17 3.26205 10.19 3.59205C9.66 3.77205 9.22 4.01205 8.91 4.21205C8.82 4.27205 8.74 4.32205 8.68 4.36205V12.382Z" fill="#1C1D1E"/>
</svg>
