<svg width="16" height="16" viewBox="0 0 16 16" fill="none" xmlns="http://www.w3.org/2000/svg">
<path d="M2.875 5.375V14.125C2.875 14.6062 3.26875 15 3.75 15H11.625C12.1062 15 12.5 14.6062 12.5 14.125V5.375H2.875ZM5.5 13.25H4.625V7.125H5.5V13.25ZM7.25 13.25H6.375V7.125H7.25V13.25ZM9 13.25H8.125V7.125H9V13.25ZM10.75 13.25H9.875V7.125H10.75V13.25Z" fill="#1C1D1E"/>
<path d="M12.7188 2.75H9.875V1.65625C9.87431 1.48241 9.80495 1.3159 9.68202 1.19297C9.5591 1.07005 9.39259 1.00069 9.21875 1H6.15625C5.98241 1.00069 5.8159 1.07005 5.69297 1.19297C5.57005 1.3159 5.50069 1.48241 5.5 1.65625V2.75H2.65625C2.48234 2.75046 2.31569 2.81975 2.19272 2.94272C2.06975 3.06569 2.00046 3.23234 2 3.40625V4.5H13.375V3.40625C13.3745 3.23234 13.3052 3.06569 13.1823 2.94272C13.0593 2.81975 12.8927 2.75046 12.7188 2.75ZM9 2.75H6.375V1.88638H9V2.75Z" fill="#1C1D1E"/>
</svg>
