<svg width="16" height="16" viewBox="0 0 16 16" fill="none" xmlns="http://www.w3.org/2000/svg">
<path d="M13.7067 9.70687L8.70675 14.7068C8.61397 14.7997 8.50376 14.8735 8.38245 14.9238C8.26114 14.9741 8.1311 15 7.99976 15C7.86843 15 7.73839 14.9741 7.61708 14.9238C7.49576 14.8735 7.38556 14.7997 7.29277 14.7068L2.29284 9.70687C2.2 9.61403 2.12635 9.50381 2.07611 9.38251C2.02586 9.2612 2 9.13119 2 8.99989C2 8.86859 2.02586 8.73857 2.07611 8.61727C2.12635 8.49596 2.2 8.38574 2.29284 8.2929C2.38569 8.20005 2.49591 8.1264 2.61721 8.07616C2.73852 8.02591 2.86853 8.00005 2.99983 8.00005C3.13113 8.00005 3.26115 8.02591 3.38245 8.07616C3.50376 8.1264 3.61398 8.20005 3.70682 8.2929L6.99978 11.5858L6.99978 1.99999C6.99978 1.73477 7.10513 1.48042 7.29267 1.29289C7.4802 1.10536 7.73455 1 7.99976 1C8.26498 1 8.51933 1.10536 8.70686 1.29289C8.89439 1.48042 8.99975 1.73477 8.99975 1.99999L8.99975 11.5858L12.2927 8.2929C12.3854 8.19971 12.4955 8.12576 12.6168 8.0753C12.7382 8.02484 12.8683 7.99886 12.9997 7.99886C13.1311 7.99886 13.2612 8.02484 13.3825 8.0753C13.5039 8.12576 13.614 8.19971 13.7067 8.29289C13.7996 8.38568 13.8734 8.49588 13.9237 8.6172C13.974 8.73851 13.9999 8.86855 13.9999 8.99988C13.9999 9.13122 13.974 9.26126 13.9237 9.38257C13.8734 9.50389 13.7996 9.61409 13.7067 9.70687Z" fill="#1C1D1E"/>
</svg>
