<svg width="16" height="16" viewBox="0 0 16 16" fill="none" xmlns="http://www.w3.org/2000/svg">
<path d="M12.8125 1C13.2187 1 13.617 1.11313 13.9625 1.3267C14.3081 1.54028 14.5874 1.84586 14.7691 2.20922C14.9507 2.57258 15.0276 2.97935 14.9912 3.38395C14.9547 3.78855 14.8062 4.175 14.5625 4.5L13.6875 5.375L10.625 2.3125L11.5 1.4375C11.8657 1.16275 12.3199 1 12.8125 1ZM1.875 11.0625L1 15L4.9375 14.125L13.0312 6.03125L9.96875 2.96875L1.875 11.0625ZM10.7834 5.97088L4.65838 12.0959L3.90412 11.3416L10.0291 5.21662L10.7834 5.97088Z" fill="#1C1D1E"/>
</svg>
