<svg width="16" height="16" viewBox="0 0 16 16" fill="none" xmlns="http://www.w3.org/2000/svg">
<path d="M1.84604 12.3599C1.46828 13.0266 1.94984 13.8529 2.71606 13.8529H13.2839C14.0502 13.8529 14.5317 13.0266 14.154 12.3599L8.87002 3.03533C8.48696 2.35935 7.51303 2.35935 7.12998 3.03533L1.84604 12.3599ZM8.82353 11.3824C8.82353 11.8372 8.45482 12.2059 8 12.2059C7.54518 12.2059 7.17647 11.8372 7.17647 11.3824C7.17647 10.9275 7.54518 10.5588 8 10.5588C8.45482 10.5588 8.82353 10.9275 8.82353 11.3824ZM8.82353 8.91176C8.82353 9.36659 8.45482 9.73529 8 9.73529C7.54518 9.73529 7.17647 9.36659 7.17647 8.91176V6.26471C7.17647 5.80988 7.54518 5.44118 8 5.44118C8.45482 5.44118 8.82353 5.80988 8.82353 6.26471V8.91176Z" fill="#1C1D1E"/>
</svg>
