<svg width="16" height="16" viewBox="0 0 16 16" fill="none" xmlns="http://www.w3.org/2000/svg">
<path d="M14.3495 1H10.2261C9.86676 1 9.5755 1.29126 9.5755 1.65061C9.5755 2.00996 9.86676 2.30122 10.2261 2.30122H12.7788L6.54018 8.53985C6.28608 8.79395 6.28608 9.20586 6.54018 9.45996C6.66727 9.58698 6.83375 9.65052 7.00024 9.65052C7.16672 9.65052 7.33321 9.58698 7.46029 9.45996L13.6989 3.22133V5.77411C13.6989 6.13346 13.9902 6.42472 14.3495 6.42472C14.7089 6.42472 15.0001 6.13346 15.0001 5.77411V1.65068C15.0001 1.29126 14.7089 1 14.3495 1Z" fill="#1C1D1E"/>
<path d="M11.7712 7.60578C11.4119 7.60578 11.1206 7.89704 11.1206 8.25639V13.6509H2.30122V4.83149H8.08044C8.43979 4.83149 8.73105 4.54024 8.73105 4.18088C8.73105 3.82153 8.43979 3.53027 8.08044 3.53027H1.65061C1.29126 3.53027 1 3.82153 1 4.18088V14.3015C1 14.6608 1.29126 14.9521 1.65061 14.9521H11.7712C12.1306 14.9521 12.4218 14.6608 12.4218 14.3015V8.25639C12.4218 7.89704 12.1306 7.60578 11.7712 7.60578Z" fill="#1C1D1E"/>
</svg>
