<svg width="16" height="16" viewBox="0 0 16 16" fill="none" xmlns="http://www.w3.org/2000/svg">
<path fill-rule="evenodd" clip-rule="evenodd" d="M1.57569 13.5759C1.34138 13.3416 1.34138 12.9617 1.57569 12.7273L3.18781 11.1152C3.06364 10.9948 2.94474 10.8734 2.83118 10.7522C2.24121 10.1229 1.78952 9.49439 1.4853 9.02334C1.33307 8.78763 1.21744 8.59086 1.13961 8.45249C1.10068 8.38329 1.07119 8.32865 1.05127 8.29101C1.04131 8.27219 1.03374 8.25762 1.02859 8.24759L1.02266 8.23599L1.02106 8.23282L1.02046 8.23162L1.19428 8.14449L1.0206 8.05706L1.02106 8.05614L1.02266 8.05297L1.02859 8.04138C1.03374 8.03135 1.04131 8.01677 1.05127 7.99795C1.07119 7.96031 1.10068 7.90567 1.13961 7.83648C1.21744 7.6981 1.33307 7.50133 1.4853 7.26562C1.78952 6.79457 2.24121 6.16601 2.83118 5.53672C4.00756 4.2819 5.75681 3.00048 7.99992 3.00048C8.98758 3.00048 9.87949 3.24891 10.6689 3.63412L12.0409 2.26216C12.2752 2.02785 12.6551 2.02785 12.8894 2.26216C13.1237 2.49648 13.1237 2.87638 12.8894 3.11069L2.42422 13.5759C2.18991 13.8102 1.81001 13.8102 1.57569 13.5759ZM5.60009 8.70295L4.15033 10.1527C4.03819 10.0443 3.92944 9.93361 3.82417 9.82132C3.30379 9.26625 2.90113 8.70673 2.6287 8.2849C2.59712 8.23601 2.5674 8.18912 2.53954 8.14448C2.5674 8.09984 2.59712 8.05296 2.6287 8.00407C2.90113 7.58224 3.30379 7.02271 3.82417 6.46765C4.88607 5.33495 6.30047 4.36161 7.99992 4.36161C8.57883 4.36161 9.12467 4.47456 9.63476 4.66827L8.70276 5.60027C8.47981 5.53508 8.24396 5.50012 7.99994 5.50012C6.61923 5.50012 5.49994 6.61941 5.49994 8.00012C5.49994 8.24414 5.5349 8.48 5.60009 8.70295Z" fill="#1C1D1E"/>
<path d="M1.0206 8.05706C1.0206 8.05706 1.02037 8.05753 1.19428 8.14449C1.02037 8.23144 1.02046 8.23162 1.02046 8.23162C0.993085 8.17687 0.99323 8.1118 1.0206 8.05706Z" fill="#1C1D1E"/>
<path d="M5.01143 12.4887C5.87713 12.9671 6.87659 13.2885 7.99992 13.2885C10.243 13.2885 11.9923 12.0071 13.1687 10.7522C13.7586 10.1229 14.2103 9.49439 14.5145 9.02334C14.6668 8.78763 14.7824 8.59086 14.8602 8.45249C14.8992 8.38329 14.9287 8.32865 14.9486 8.29101C14.9585 8.27219 14.9661 8.25762 14.9713 8.24759L14.9772 8.23599L14.9788 8.23282L14.9795 8.23144L14.8056 8.14448L14.9795 8.05752L14.9788 8.05614L14.9772 8.05297L14.9713 8.04138C14.9661 8.03135 14.9585 8.01677 14.9486 7.99795C14.9287 7.96031 14.8992 7.90567 14.8602 7.83648C14.7824 7.6981 14.6668 7.50133 14.5145 7.26562C14.2103 6.79457 13.7586 6.16601 13.1687 5.53672C12.9808 5.33628 12.7782 5.13516 12.5614 4.93869L11.5978 5.90233C11.8006 6.08332 11.9933 6.27313 12.1757 6.46765C12.696 7.02271 13.0987 7.58224 13.3711 8.00407C13.4027 8.05296 13.4324 8.09984 13.4603 8.14448C13.4324 8.18912 13.4027 8.23601 13.3711 8.2849C13.0987 8.70673 12.696 9.26625 12.1757 9.82132C11.1138 10.954 9.69937 11.9274 7.99992 11.9274C7.28964 11.9274 6.62915 11.7573 6.02338 11.4767L5.01143 12.4887Z" fill="#1C1D1E"/>
<path d="M7.99994 10.5001C7.70103 10.5001 7.41437 10.4477 7.14867 10.3515L10.3513 7.14886C10.4475 7.41456 10.4999 7.70121 10.4999 8.00012C10.4999 9.38083 9.38065 10.5001 7.99994 10.5001Z" fill="#1C1D1E"/>
</svg>
