<svg width="16" height="16" viewBox="0 0 16 16" fill="none" xmlns="http://www.w3.org/2000/svg">
<path d="M14.8056 8.14449L14.9795 8.23145C15.0068 8.1767 15.0068 8.11227 14.9795 8.05753L14.8056 8.14449Z" fill="#1C1D1E"/>
<path fill-rule="evenodd" clip-rule="evenodd" d="M1.19428 8.14449C1.02037 8.23145 1.02041 8.23152 1.02046 8.23162L1.02106 8.23283L1.02266 8.236L1.02859 8.24759C1.03374 8.25762 1.04131 8.2722 1.05127 8.29102C1.07119 8.32866 1.10068 8.38329 1.13961 8.45249C1.21744 8.59086 1.33307 8.78763 1.4853 9.02335C1.78952 9.4944 2.24121 10.123 2.83118 10.7523C4.00756 12.0071 5.75681 13.2885 7.99992 13.2885C10.243 13.2885 11.9923 12.0071 13.1687 10.7523C13.7586 10.123 14.2103 9.4944 14.5145 9.02335C14.6668 8.78763 14.7824 8.59086 14.8602 8.45249C14.8992 8.38329 14.9287 8.32866 14.9486 8.29102C14.9585 8.2722 14.9661 8.25762 14.9713 8.24759L14.9772 8.236L14.9788 8.23283L14.9795 8.23145C14.9795 8.23135 14.9795 8.23145 14.8056 8.14449C14.9795 8.05753 14.9795 8.05762 14.9795 8.05753L14.9788 8.05615L14.9772 8.05298L14.9713 8.04138C14.9661 8.03135 14.9585 8.01678 14.9486 7.99795C14.9287 7.96031 14.8992 7.90568 14.8602 7.83648C14.7824 7.69811 14.6668 7.50134 14.5145 7.26563C14.2103 6.79457 13.7586 6.16602 13.1687 5.53672C11.9923 4.28191 10.243 3.00049 7.99992 3.00049C5.75681 3.00049 4.00756 4.28191 2.83118 5.53672C2.24121 6.16602 1.78952 6.79457 1.4853 7.26563C1.33307 7.50134 1.21744 7.69811 1.13961 7.83648C1.10068 7.90568 1.07119 7.96031 1.05127 7.99795C1.04131 8.01678 1.03374 8.03135 1.02859 8.04138L1.02266 8.05298L1.02106 8.05615L1.0206 8.05706C1.02055 8.05716 1.02037 8.05754 1.19428 8.14449L1.0206 8.05706C0.99323 8.1118 0.993085 8.17688 1.02046 8.23162L1.19428 8.14449ZM14.8056 8.14449C14.8056 8.14449 12.3308 3.19493 7.99992 3.19493C3.66906 3.19493 1.19428 8.14449 1.19428 8.14449C1.20963 8.11387 3.68254 3.19493 7.99992 3.19493C12.3228 3.19493 14.7965 8.12643 14.8056 8.14449ZM2.6287 8.2849C2.59712 8.23601 2.5674 8.18913 2.53954 8.14448C2.5674 8.09984 2.59712 8.05296 2.6287 8.00407C2.90113 7.58224 3.30379 7.02272 3.82417 6.46765C4.88607 5.33496 6.30047 4.36162 7.99992 4.36162C9.69937 4.36162 11.1138 5.33496 12.1757 6.46765C12.696 7.02272 13.0987 7.58224 13.3711 8.00407C13.4027 8.05296 13.4324 8.09985 13.4603 8.14449C13.4324 8.18913 13.4027 8.23601 13.3711 8.2849C13.0987 8.70673 12.696 9.26626 12.1757 9.82132C11.1138 10.954 9.69937 11.9274 7.99992 11.9274C6.30047 11.9274 4.88607 10.954 3.82417 9.82132C3.30379 9.26626 2.90113 8.70673 2.6287 8.2849ZM13.5345 8.39039C13.5919 8.30156 13.6433 8.21919 13.6886 8.14462C13.6886 8.1446 13.6886 8.14464 13.6886 8.14462C13.6433 8.21919 13.5919 8.30156 13.5345 8.39039C13.2575 8.81925 12.8478 9.38883 12.3175 9.9545C11.2391 11.1048 9.77689 12.122 7.99987 12.122C6.22286 12.122 4.76063 11.1048 3.68226 9.9545C3.15195 9.38883 2.74228 8.81945 2.46531 8.39058C2.4079 8.3017 2.35647 8.21928 2.31112 8.14468C2.31109 8.14472 2.31114 8.14463 2.31112 8.14468C2.35647 8.21928 2.4079 8.3017 2.46531 8.39058C2.74228 8.81945 3.15195 9.38883 3.68226 9.9545C4.76063 11.1048 6.22286 12.122 7.99987 12.122C9.77689 12.122 11.2391 11.1048 12.3175 9.9545C12.8478 9.38883 13.2575 8.81925 13.5345 8.39039Z" fill="#1C1D1E"/>
<path d="M8 10.5C9.38071 10.5 10.5 9.38071 10.5 8C10.5 6.61929 9.38071 5.5 8 5.5C6.61929 5.5 5.5 6.61929 5.5 8C5.5 9.38071 6.61929 10.5 8 10.5Z" fill="#1C1D1E"/>
</svg>
