<svg width="16" height="16" viewBox="0 0 16 16" fill="none" xmlns="http://www.w3.org/2000/svg">
<path d="M1.66895 1.40039H14.3311C14.5656 1.40039 14.6864 1.68021 14.5254 1.85059L14.5166 1.86133L14.5078 1.87109C14.3043 2.11742 13.9388 2.60215 13.4766 3.20312C13.0094 3.81045 12.4326 4.55142 11.792 5.32812L9.44629 8.1709L9.35547 8.28223V11.7041L6.65625 13.3857L6.62988 8.40234L6.62891 8.25977L6.53906 8.15039L3.76953 4.79395C3.01198 3.87579 2.48555 3.19719 2.12988 2.72559C1.78771 2.27187 1.57807 1.97355 1.49219 1.87012L1.47461 1.85059L1.42676 1.78223C1.34539 1.61451 1.46387 1.40039 1.66895 1.40039Z" stroke="#1C1D1E" stroke-width="0.8"/>
</svg>
