<svg width="16" height="16" viewBox="0 0 16 16" fill="none" xmlns="http://www.w3.org/2000/svg">
<path fill-rule="evenodd" clip-rule="evenodd" d="M2.3999 13.3466C2.3999 13.9449 2.88493 14.4299 3.48324 14.4299C4.08154 14.4299 4.56657 13.9449 4.56657 13.3466L4.56657 2.51326C4.56657 1.91496 4.08154 1.42993 3.48324 1.42993C2.88493 1.42993 2.3999 1.91496 2.3999 2.51327V13.3466ZM6.48857 7.44396C6.42914 7.58947 6.39901 7.74529 6.39992 7.90247C6.40419 8.20582 6.52375 8.49619 6.73433 8.7146L11.3444 13.4918C11.4489 13.6186 11.5785 13.7224 11.725 13.7967C11.8716 13.8711 12.0318 13.9144 12.1959 13.924C12.3599 13.9336 12.5241 13.9092 12.6783 13.8524C12.8325 13.7957 12.9733 13.7077 13.0919 13.594C13.2105 13.4803 13.3044 13.3434 13.3677 13.1918C13.431 13.0401 13.4623 12.8771 13.4597 12.7128C13.4571 12.5485 13.4206 12.3865 13.3526 12.237C13.2845 12.0875 13.1863 11.9536 13.0642 11.8437L9.26627 7.90247L13.2194 3.97318C13.3308 3.86183 13.4191 3.72963 13.4794 3.58414C13.5397 3.43864 13.5707 3.2827 13.5707 3.12522C13.5707 2.96774 13.5397 2.8118 13.4794 2.66631C13.4191 2.52082 13.3308 2.38862 13.2194 2.27726C13.1081 2.16591 12.9759 2.07757 12.8304 2.01731C12.6849 1.95704 12.529 1.92603 12.3715 1.92603C12.214 1.92603 12.0581 1.95704 11.9126 2.01731C11.7671 2.07757 11.6349 2.16591 11.5235 2.27726L6.74627 7.05451C6.63558 7.1661 6.54801 7.29845 6.48857 7.44396Z" fill="#1C1D1E"/>
</svg>
