<svg width="16" height="16" viewBox="0 0 16 16" fill="none" xmlns="http://www.w3.org/2000/svg">
<path d="M15.0212 7.97848C15.0212 11.8886 11.9316 15 8.02152 15C4.13233 15 1 11.8887 1 7.97848C1 4.11144 4.13219 1 8.02152 1C11.9316 1 15.0212 4.11144 15.0212 7.97848ZM4.62938 9.77136C4.54245 9.23113 4.49997 8.62626 4.49997 8.04311C4.49997 7.61084 4.5217 7.26536 4.56418 6.85454C3.57078 6.66049 2.98764 6.5092 2.53406 6.31501C2.38277 6.83337 2.29598 7.41651 2.29598 7.97848C2.29598 8.25918 2.29598 8.53988 2.33944 8.77768C2.62001 9.10171 3.3327 9.53371 4.62938 9.77136ZM5.81753 13.25C5.32048 12.5586 4.99631 11.6726 4.78067 10.6356C3.91598 10.4414 3.13893 10.2038 2.62015 9.92251C2.94432 10.7221 3.35458 11.4348 3.98118 12.0184C4.49997 12.5799 5.1483 12.9689 5.81753 13.25ZM2.85823 5.55842C3.052 5.7313 3.37617 5.75304 4.65125 6.09852C4.88849 4.71575 5.29959 3.5712 5.94709 2.70694C5.21266 3.05242 4.56432 3.35486 3.98118 3.98146C3.48385 4.43519 3.1172 4.99701 2.85823 5.55842ZM5.40728 9.92251C6.1417 10.0525 6.85426 10.1173 7.58869 10.139V7.09234C6.81093 7.07103 6.03388 7.0277 5.29861 6.94119C5.29861 7.33 5.27772 7.65417 5.27772 8.04311C5.27772 8.66986 5.32034 9.33937 5.40728 9.92251ZM5.40728 6.20676C6.11997 6.2714 6.85426 6.31487 7.58869 6.33618V2.31799C7.58869 2.31799 7.5678 2.31799 7.54607 2.31799C6.57356 2.70694 5.75318 4.21912 5.40728 6.20676ZM7.58953 13.6819V10.8952C6.91946 10.8734 6.24939 10.83 5.60189 10.7652C5.73144 11.3272 5.92522 11.8238 6.18503 12.2778C6.5092 13.0553 7.00555 13.6819 7.58953 13.6819ZM8.41005 2.31799V6.33632C9.16621 6.31501 9.87891 6.27154 10.6132 6.2069C10.3325 4.65111 9.70673 3.29008 8.97146 2.62043C8.77754 2.49101 8.5612 2.31799 8.41005 2.31799ZM10.5922 9.94439C10.7001 9.36125 10.7217 8.69117 10.7217 8.04325C10.7217 7.65431 10.7217 7.33014 10.7001 6.96292C9.9657 7.0277 9.20954 7.07103 8.41005 7.09234V10.139C9.16607 10.1173 9.87877 10.0525 10.5922 9.94439ZM10.4193 10.7652C9.74935 10.83 9.07998 10.8733 8.41005 10.8952V13.6819C9.53371 13.6819 10.1386 11.7374 10.4193 10.7652ZM10.0734 2.6852C10.7217 3.52774 11.132 4.71617 11.3485 6.12039C12.5147 5.90433 12.9902 5.71013 13.1631 5.58016C12.5582 4.24085 11.4127 3.16052 10.0734 2.6852ZM13.3361 10.0092C12.7737 10.2687 12.0394 10.4846 11.2406 10.6575C11.0026 11.6944 10.7003 12.5369 10.1812 13.25C10.8513 12.9689 11.5215 12.5804 12.0394 12.0185C12.6442 11.4566 13.0544 10.7652 13.3361 10.0092ZM11.4996 8.04325C11.4996 8.6264 11.4561 9.253 11.3918 9.79324C13.6384 9.42602 13.7245 8.90766 13.7245 7.97848C13.7245 7.43838 13.6385 6.85468 13.4654 6.33632C13.0553 6.5092 12.32 6.76859 11.4561 6.85468C11.4996 7.26536 11.4996 7.61084 11.4996 8.04325Z" fill="#1C1D1E"/>
</svg>
