<svg width="16" height="16" viewBox="0 0 16 16" fill="none" xmlns="http://www.w3.org/2000/svg">
<path d="M14.2555 4.86298V4.85238L14.2184 4.78615C14.2131 4.7782 14.2051 4.7623 14.1919 4.74375C13.0208 2.51817 10.684 1 8 1C4.13967 1 1 4.13967 1 8C1 11.8603 4.13967 15 8 15C11.8603 15 15 11.8603 15 8C15 6.87131 14.7298 5.80621 14.2555 4.86298ZM1.5299 8C1.5299 7.66881 1.5564 7.34292 1.60409 7.02498C1.99622 7.27668 2.3592 7.60522 2.91824 7.71385C3.23883 7.77479 3.55678 6.95079 3.97805 7.4489C4.39932 7.94701 3.7131 8.24375 3.7131 8.77366C3.7131 9.30356 3.75814 9.86525 4.19796 10.1805C4.5106 10.4031 4.95572 11.4762 5.11734 12.7135C5.21272 13.4341 5.53331 13.6858 5.78766 13.7706C5.8751 13.7998 5.96253 13.813 6.04996 13.813C6.41824 13.813 6.78123 13.5825 7.02763 13.3335C7.61052 12.7426 7.95496 11.0628 7.9841 10.2892C8.0106 9.56586 8.12983 9.36185 8.567 8.60409L8.60409 8.5405C9.15519 7.58668 8.55375 7.16276 8.07154 6.82362L7.93641 6.72824C7.53369 6.43944 7.07797 6.6514 6.63815 6.86071C6.26192 7.03823 5.87245 7.22104 5.53066 7.09917C5.42203 7.05942 5.11469 6.74943 5.0352 6.39175C4.95572 6.03407 5.49622 5.64724 6.095 5.33195C6.6832 5.02195 6.58251 4.55829 6.62491 3.47729C6.6514 2.80432 6.62491 2.15254 6.3626 1.74186C6.88456 1.60409 7.43301 1.53255 8 1.53255C8.50606 1.53255 8.99886 1.59349 9.47048 1.70212C8.94058 2.10484 8.15367 2.8891 8.10863 4.03104C8.09008 4.46821 8.21726 4.7676 8.48221 4.91862C9.01476 5.22067 9.63475 4.90273 10.5144 4.32248C10.8986 4.06813 11.4232 3.676 11.7252 3.94095C12.7161 4.80469 12.7161 4.07343 13.0049 4.30924C13.4103 4.64572 13.609 4.86033 13.6964 4.96631C13.6461 5.0617 13.503 5.21272 13.0924 5.24451L13.0182 5.24981C12.0855 5.3187 10.3528 5.44588 10.3528 6.60106C10.3528 7.61847 10.4058 8.05034 11.7385 8.56435C12.0829 8.69682 12.3054 8.88759 12.3955 9.13134C12.5413 9.51817 12.3505 9.97918 12.2207 10.2203C11.9796 10.6734 11.5238 12.3876 11.9239 13.1427C10.835 13.9773 9.47313 14.4754 7.99735 14.4754C4.43111 14.4701 1.5299 11.5689 1.5299 8Z" fill="#1C1D1E"/>
</svg>
