<svg width="16" height="16" viewBox="0 0 16 16" fill="none" xmlns="http://www.w3.org/2000/svg">
<path fill-rule="evenodd" clip-rule="evenodd" d="M1 14.5C1 14.2239 1.22386 14 1.5 14H14.5C14.7761 14 15 14.2239 15 14.5C15 14.7761 14.7761 15 14.5 15H1.5C1.22386 15 1 14.7761 1 14.5Z" fill="#1C1D1E"/>
<path fill-rule="evenodd" clip-rule="evenodd" d="M1 1.5C1 1.22386 1.22386 1 1.5 1H5.5C5.77614 1 6 1.22386 6 1.5V14.5C6 14.7761 5.77614 15 5.5 15C5.22386 15 5 14.7761 5 14.5V2H2V14.5C2 14.7761 1.77614 15 1.5 15C1.22386 15 1 14.7761 1 14.5V1.5Z" fill="#1C1D1E"/>
<path fill-rule="evenodd" clip-rule="evenodd" d="M5 7.5C5 7.22386 5.22386 7 5.5 7H9.5C9.77614 7 10 7.22386 10 7.5V14.5C10 14.7761 9.77614 15 9.5 15C9.22386 15 9 14.7761 9 14.5V8H6V14.5C6 14.7761 5.77614 15 5.5 15C5.22386 15 5 14.7761 5 14.5V7.5Z" fill="#1C1D1E"/>
<path fill-rule="evenodd" clip-rule="evenodd" d="M9 4.5C9 4.22386 9.22386 4 9.5 4H13.5C13.7761 4 14 4.22386 14 4.5V14.5C14 14.7761 13.7761 15 13.5 15C13.2239 15 13 14.7761 13 14.5V5H10V14.5C10 14.7761 9.77614 15 9.5 15C9.22386 15 9 14.7761 9 14.5V4.5Z" fill="#1C1D1E"/>
</svg>
