<svg width="16" height="16" viewBox="0 0 16 16" fill="none" xmlns="http://www.w3.org/2000/svg">
<path fill-rule="evenodd" clip-rule="evenodd" d="M8 15C4.13401 15 1 11.866 1 8C1 4.13401 4.13401 1 8 1C11.866 1 15 4.13401 15 8C15 11.866 11.866 15 8 15ZM8 1.93333C4.64947 1.93333 1.93333 4.64947 1.93333 8C1.93333 11.3505 4.64947 14.0667 8 14.0667C11.3505 14.0667 14.0667 11.3505 14.0667 8C14.0667 4.64947 11.3505 1.93333 8 1.93333Z" fill="#1C1D1E"/>
<path fill-rule="evenodd" clip-rule="evenodd" d="M9.98009 4.15335C10.5052 4.67845 10.8002 5.39065 10.8002 6.13325C10.8003 6.77874 10.5774 7.40445 10.1692 7.90448C9.76106 8.40451 9.19264 8.74815 8.5602 8.87725V9.49325C8.5602 9.64177 8.5012 9.78421 8.39618 9.88923C8.29115 9.99425 8.14872 10.0533 8.0002 10.0533C7.85167 10.0533 7.70924 9.99425 7.60422 9.88923C7.4992 9.78421 7.4402 9.64177 7.4402 9.49325V8.37325C7.4402 8.22473 7.4992 8.08229 7.60422 7.97727C7.70924 7.87225 7.85167 7.81325 8.0002 7.81325C8.33247 7.81325 8.65728 7.71472 8.93355 7.53012C9.20983 7.34552 9.42516 7.08314 9.55231 6.77616C9.67947 6.46918 9.71274 6.13139 9.64792 5.8055C9.58309 5.47961 9.42309 5.18026 9.18814 4.94531C8.95318 4.71036 8.65384 4.55036 8.32795 4.48553C8.00206 4.42071 7.66427 4.45398 7.35729 4.58113C7.05031 4.70829 6.78793 4.92362 6.60333 5.19989C6.41873 5.47617 6.3202 5.80098 6.3202 6.13325C6.3202 6.28177 6.2612 6.42421 6.15618 6.52923C6.05115 6.63425 5.90872 6.69325 5.7602 6.69325C5.61167 6.69325 5.46924 6.63425 5.36422 6.52923C5.2592 6.42421 5.2002 6.28177 5.2002 6.13325C5.2002 5.39065 5.49519 4.67845 6.0203 4.15335C6.5454 3.62825 7.25759 3.33325 8.0002 3.33325C8.7428 3.33325 9.45499 3.62825 9.98009 4.15335ZM8.68459 11.7059C8.68459 12.1183 8.35029 12.4526 7.93792 12.4526C7.52555 12.4526 7.19125 12.1183 7.19125 11.7059C7.19125 11.2935 7.52555 10.9592 7.93792 10.9592C8.35029 10.9592 8.68459 11.2935 8.68459 11.7059Z" fill="#1C1D1E"/>
</svg>
