<svg width="16" height="16" viewBox="0 0 16 16" fill="none" xmlns="http://www.w3.org/2000/svg">
<path d="M2.15187 1.88517C1.94938 1.68267 1.94938 1.35436 2.15187 1.15187C2.35437 0.949376 2.68267 0.949376 2.88517 1.15187L6.84736 5.11407C7.79353 3.81095 9.07143 2.05152 9.39136 1.61156C9.58686 1.34273 9.78242 1.09476 9.82598 1.06049C9.92858 0.979801 10.1116 0.979832 10.2699 1.06061C10.4074 1.13072 10.4867 1.25689 10.4867 1.40547C10.4867 1.46043 10.3552 1.91867 10.1944 2.42379C9.36438 5.03237 8.96541 6.30163 8.96541 6.33364C8.96541 6.35993 9.43467 6.36919 10.7671 6.36919L10.8322 6.36918C12.4551 6.36917 12.6782 6.36916 12.7881 6.48071C12.8057 6.49848 12.8203 6.51909 12.8373 6.54298C12.8387 6.54496 12.8401 6.54695 12.8415 6.54897C12.926 6.66763 12.928 6.84866 12.8463 6.98266C12.8124 7.03829 12.6331 7.28976 12.4479 7.54149C12.2628 7.79318 11.9112 8.27153 11.6668 8.6045C11.4972 8.83541 11.2799 9.13126 11.104 9.37066L14.1197 12.3864C14.3222 12.5889 14.3222 12.9172 14.1197 13.1197C13.9172 13.3222 13.5889 13.3222 13.3864 13.1197L10.4827 10.216C10.4703 10.233 10.4577 10.2501 10.4451 10.2673L6.19307 6.01531L6.23048 5.96377L2.15187 1.88517Z" fill="#1C1D1E"/>
<path d="M4.05072 8.97622C4.09423 8.91283 4.80929 7.92388 5.57653 6.86537L9.8245 11.1133C8.91671 12.3516 7.86651 13.7865 7.60686 14.1443C7.37225 14.4676 7.12329 14.7925 7.05362 14.8661C6.94338 14.9827 6.91013 15 6.79628 15C6.53441 15 6.32649 14.8216 6.32649 14.597C6.32649 14.5444 6.67092 13.4119 7.0919 12.0803C7.51289 10.7488 7.8498 9.65178 7.84064 9.64259C7.83145 9.6334 7.02947 9.61571 6.05844 9.60323L5.95692 9.60193C4.41842 9.58225 4.18729 9.57929 4.09373 9.46436C4.07719 9.44404 4.06495 9.42022 4.05054 9.39219C4.04878 9.38875 4.04698 9.38525 4.04513 9.38168C3.98273 9.261 3.98537 9.07144 4.05072 8.97622Z" fill="#1C1D1E"/>
</svg>
