<svg width="16" height="16" viewBox="0 0 16 16" fill="none" xmlns="http://www.w3.org/2000/svg">
<path fill-rule="evenodd" clip-rule="evenodd" d="M1 8C1 4.13401 4.13401 1 8 1C11.866 1 15 4.13401 15 8C15 11.866 11.866 15 8 15C4.13401 15 1 11.866 1 8ZM7 4.45C7 4.038 7.338 3.7 7.75 3.7H8.25C8.662 3.7 9 4.038 9 4.45V4.95C9 5.362 8.662 5.7 8.25 5.7H7.75C7.55133 5.69921 7.36102 5.61994 7.22054 5.47946C7.08006 5.33898 7.00079 5.14867 7 4.95V4.45ZM6 10.7V11.7H10V10.7H9V6.7H6V7.7H7V10.7H6Z" fill="#1C1D1E"/>
</svg>
