<svg width="16" height="16" viewBox="0 0 16 16" fill="none" xmlns="http://www.w3.org/2000/svg">
<path fill-rule="evenodd" clip-rule="evenodd" d="M13.5708 2.51302C13.5708 1.91471 13.0858 1.42969 12.4875 1.42969C11.8892 1.42969 11.4041 1.91471 11.4041 2.51302L11.4041 13.3464C11.4041 13.9447 11.8892 14.4297 12.4875 14.4297C13.0858 14.4297 13.5708 13.9447 13.5708 13.3464L13.5708 2.51302ZM9.48213 8.41566C9.54156 8.27014 9.57169 8.11433 9.57078 7.95715C9.56651 7.65379 9.44695 7.36343 9.23637 7.14502L4.62634 2.36778C4.52176 2.24105 4.39217 2.13726 4.24566 2.0629C4.09914 1.98855 3.93886 1.94522 3.77484 1.93563C3.61082 1.92604 3.44658 1.9504 3.29241 2.00718C3.13823 2.06396 2.99742 2.15195 2.8788 2.26563C2.76017 2.37931 2.66628 2.51624 2.60299 2.66787C2.53971 2.81949 2.50838 2.98254 2.51099 3.14682C2.51359 3.31111 2.55006 3.47308 2.61812 3.62263C2.68618 3.77217 2.78436 3.90606 2.90653 4.01593L6.70444 7.95715L2.75127 11.8864C2.63991 11.9978 2.55158 12.13 2.49131 12.2755C2.43105 12.421 2.40003 12.5769 2.40003 12.7344C2.40003 12.8919 2.43105 13.0478 2.49131 13.1933C2.55158 13.3388 2.63991 13.471 2.75127 13.5824C2.86262 13.6937 2.99482 13.782 3.14031 13.8423C3.28581 13.9026 3.44175 13.9336 3.59923 13.9336C3.75671 13.9336 3.91265 13.9026 4.05814 13.8423C4.20363 13.782 4.33583 13.6937 4.44719 13.5824L9.22443 8.80511C9.33512 8.69352 9.42269 8.56117 9.48213 8.41566Z" fill="#1C1D1E"/>
</svg>
