<svg width="16" height="16" viewBox="0 0 16 16" fill="none" xmlns="http://www.w3.org/2000/svg">
<path d="M6.79785 8.60401C7.05725 8.95079 7.38819 9.23773 7.76823 9.44537C8.14827 9.653 8.56852 9.77647 9.00048 9.80741C9.43243 9.83834 9.86599 9.77602 10.2717 9.62466C10.6775 9.47331 11.0459 9.23646 11.3521 8.93018L13.1642 7.11814C13.7143 6.54855 14.0187 5.78567 14.0118 4.99382C14.0049 4.20197 13.6873 3.4445 13.1274 2.88456C12.5674 2.32461 11.8099 2.007 11.0181 2.00011C10.2262 1.99323 9.46337 2.29764 8.89378 2.84777L7.85487 3.88063" stroke="#1C1D1E" stroke-width="1.5" stroke-linecap="round" stroke-linejoin="round"/>
<path d="M9.21407 7.39593C8.95467 7.04914 8.62373 6.76221 8.24369 6.55457C7.86365 6.34694 7.4434 6.22347 7.01144 6.19253C6.57949 6.16159 6.14593 6.22392 5.74018 6.37528C5.33443 6.52663 4.96597 6.76348 4.65981 7.06976L2.84777 8.8818C2.29764 9.45139 1.99323 10.2143 2.00011 11.0061C2.007 11.798 2.32461 12.5554 2.88456 13.1154C3.4445 13.6753 4.20197 13.9929 4.99382 13.9998C5.78567 14.0067 6.54855 13.7023 7.11814 13.1522L8.151 12.1193" stroke="#1C1D1E" stroke-width="1.5" stroke-linecap="round" stroke-linejoin="round"/>
</svg>
