<svg width="16" height="16" viewBox="0 0 16 16" fill="none" xmlns="http://www.w3.org/2000/svg">
<path fill-rule="evenodd" clip-rule="evenodd" d="M1.72414 3.06909C2.12407 3.06909 2.44828 3.3933 2.44828 3.79323V6.49229H5.14733C5.54726 6.49229 5.87147 6.8165 5.87147 7.21643C5.87147 7.61636 5.54726 7.94056 5.14733 7.94056H1.72414C1.32421 7.94056 1 7.61636 1 7.21643V3.79323C1 3.3933 1.32421 3.06909 1.72414 3.06909Z" fill="#1C1D1E"/>
<path fill-rule="evenodd" clip-rule="evenodd" d="M10.1284 9.49855C10.1284 9.09862 10.4526 8.77441 10.8526 8.77441H14.2758C14.6757 8.77441 14.9999 9.09862 14.9999 9.49855V12.9217C14.9999 13.3217 14.6757 13.6459 14.2758 13.6459C13.8758 13.6459 13.5516 13.3217 13.5516 12.9217V10.2227H10.8526C10.4526 10.2227 10.1284 9.89848 10.1284 9.49855Z" fill="#1C1D1E"/>
<path fill-rule="evenodd" clip-rule="evenodd" d="M6.3752 2.73072C7.32594 2.45572 8.33084 2.42604 9.29614 2.64445C10.2614 2.86286 11.1557 3.32225 11.8954 3.97974C12.6352 4.63723 13.1963 5.4714 13.5265 6.40442C13.6599 6.78144 13.4624 7.19523 13.0854 7.32864C12.7084 7.46206 12.2946 7.26458 12.1612 6.88755C11.9126 6.18517 11.4902 5.5572 10.9333 5.06224C10.3764 4.56727 9.70322 4.22144 8.97653 4.05702C8.24984 3.8926 7.49334 3.91494 6.77762 4.12196C6.0619 4.32898 5.41029 4.71394 4.88358 5.24091C4.87823 5.24626 4.8728 5.25153 4.86728 5.25671L2.22001 7.74424C1.92856 8.0181 1.47029 8.00384 1.19642 7.71239C0.922559 7.42094 0.936817 6.96266 1.22827 6.6888L3.86754 4.2088C4.56573 3.51304 5.42822 3.00463 6.3752 2.73072ZM14.8036 9.00278C15.0774 9.29423 15.0632 9.7525 14.7717 10.0264L12.1325 12.5064C11.4343 13.2021 10.5718 13.7105 9.6248 13.9845C8.67406 14.2594 7.66916 14.2891 6.70386 14.0707C5.73855 13.8523 4.84431 13.3929 4.10456 12.7354C3.36482 12.0779 2.80368 11.2438 2.47352 10.3108C2.34011 9.93373 2.53759 9.51994 2.91461 9.38653C3.29163 9.25311 3.70542 9.45059 3.83883 9.82761C4.08738 10.53 4.50981 11.158 5.06669 11.6529C5.62358 12.1479 6.29678 12.4937 7.02347 12.6581C7.75016 12.8226 8.50666 12.8002 9.22238 12.5932C9.9381 12.3862 10.5897 12.0012 11.1164 11.4743C11.1218 11.4689 11.1272 11.4636 11.1327 11.4585L13.78 8.97093C14.0714 8.69707 14.5297 8.71133 14.8036 9.00278Z" fill="#1C1D1E"/>
</svg>
