<svg width="16" height="16" viewBox="0 0 16 16" fill="none" xmlns="http://www.w3.org/2000/svg">
<path d="M11.6333 6.6H11.4V3.8C11.4 2.25627 10.1437 1 8.6 1H6.73333C5.1896 1 3.93333 2.25627 3.93333 3.8V6.6H3.7C3.51458 6.60074 3.33696 6.67472 3.20584 6.80584C3.07472 6.93696 3.00074 7.11458 3 7.3V14.3C3 14.6845 3.31547 15 3.7 15H11.6333C12.0179 15 12.3333 14.6845 12.3333 14.3V7.3C12.3326 7.11458 12.2586 6.93696 12.1275 6.80584C11.9964 6.67472 11.8188 6.60074 11.6333 6.6ZM5.8 3.8C5.8 3.28573 6.21907 2.86667 6.73333 2.86667H8.6C9.11427 2.86667 9.53333 3.28573 9.53333 3.8V6.6H5.8V3.8Z" fill="#1C1D1E"/>
</svg>
