<svg width="16" height="16" viewBox="0 0 16 16" fill="none" xmlns="http://www.w3.org/2000/svg">
<path d="M12.2 1C13.7437 1 15 2.25627 15 3.8V6.6H13.1333V3.8C13.1333 3.28573 12.7143 2.86667 12.2 2.86667H10.3333C9.81907 2.86667 9.4 3.28573 9.4 3.8V6.6H9.63333C10.0179 6.6 10.3333 6.91547 10.3333 7.3V14.3C10.3333 14.6845 10.0179 15 9.63333 15H1.7C1.51458 14.9993 1.33696 14.9253 1.20584 14.7942C1.07472 14.663 1.00074 14.4854 1 14.3V7.3C1 6.91547 1.31547 6.6 1.7 6.6H7.53333V3.8C7.53333 2.25627 8.7896 1 10.3333 1H12.2Z" fill="#1C1D1E"/>
</svg>
