<svg width="16" height="16" viewBox="0 0 16 16" fill="none" xmlns="http://www.w3.org/2000/svg">
<path d="M14.3226 13.3871H1.67742C1.3071 13.3871 1 13.089 1 12.7097V3.68645C1 3.61419 1.00903 3.54194 1.03613 3.46968C1.06323 3.38839 1.09935 3.31613 1.15355 3.2529C1.20774 3.18065 1.28 3.11742 1.36129 3.08129C1.45161 3.03613 1.54194 3.00903 1.63226 3C1.65032 3 1.66839 3 1.68645 3H14.3135C14.3316 3 14.3497 3 14.3677 3C14.4671 3.00903 14.5484 3.0271 14.6297 3.07226C14.711 3.11742 14.7832 3.17161 14.8465 3.2529C14.9006 3.31613 14.9368 3.38839 14.9639 3.46968C14.991 3.54194 15 3.61419 15 3.68645V12.7097C15 13.089 14.6929 13.3871 14.3226 13.3871ZM2.35484 12.0323H13.6452V4.99613L8.39742 8.74452C8.16258 8.91613 7.84645 8.91613 7.61161 8.74452L2.35484 4.99613V12.0323ZM3.79097 4.35484L8 7.36258L12.209 4.35484H3.79097Z" fill="#1C1D1E"/>
</svg>
