<svg width="16" height="16" viewBox="0 0 16 16" fill="none" xmlns="http://www.w3.org/2000/svg">
<path fill-rule="evenodd" clip-rule="evenodd" d="M13 6.5H7C6.72386 6.5 6.5 6.72386 6.5 7V13C6.5 13.2761 6.72386 13.5 7 13.5H13C13.2761 13.5 13.5 13.2761 13.5 13V7C13.5 6.72386 13.2761 6.5 13 6.5ZM7 5C5.89543 5 5 5.89543 5 7V13C5 14.1046 5.89543 15 7 15H13C14.1046 15 15 14.1046 15 13V7C15 5.89543 14.1046 5 13 5H7Z" fill="#1C1D1E"/>
<path d="M3 2.5H9C9.27614 2.5 9.5 2.72386 9.5 3V4H11V3C11 1.89543 10.1046 1 9 1H3C1.89543 1 1 1.89543 1 3V9C1 10.1046 1.89543 11 3 11H4V9.5H3C2.72386 9.5 2.5 9.27614 2.5 9V3C2.5 2.72386 2.72386 2.5 3 2.5Z" fill="#1C1D1E"/>
</svg>
