<svg width="16" height="16" viewBox="0 0 16 16" fill="none" xmlns="http://www.w3.org/2000/svg">
<path d="M9.70688 2.29332L14.7068 7.29325C14.7997 7.38603 14.8735 7.49624 14.9238 7.61755C14.9741 7.73886 15 7.86891 15 8.00024C15 8.13157 14.9741 8.26161 14.9238 8.38292C14.8735 8.50424 14.7997 8.61444 14.7068 8.70723L9.70687 13.7072C9.61403 13.8 9.50381 13.8736 9.3825 13.9239C9.2612 13.9741 9.13119 14 8.99989 14C8.86858 14 8.73857 13.9741 8.61726 13.9239C8.49596 13.8736 8.38574 13.8 8.2929 13.7072C8.20005 13.6143 8.1264 13.5041 8.07616 13.3828C8.02591 13.2615 8.00005 13.1315 8.00005 13.0002C8.00005 12.8689 8.02591 12.7389 8.07616 12.6175C8.1264 12.4962 8.20005 12.386 8.2929 12.2932L11.5858 9.00022L1.99999 9.00022C1.73477 9.00022 1.48042 8.89487 1.29289 8.70733C1.10536 8.5198 1 8.26545 1 8.00024C1 7.73502 1.10536 7.48067 1.29289 7.29314C1.48042 7.10561 1.73477 7.00025 1.99999 7.00025L11.5858 7.00025L8.2929 3.7073C8.19971 3.61465 8.12576 3.50449 8.0753 3.38316C8.02484 3.26182 7.99887 3.13171 7.99887 3.00031C7.99887 2.8689 8.02484 2.73879 8.0753 2.61746C8.12576 2.49613 8.19971 2.38597 8.2929 2.29332C8.38568 2.20037 8.49588 2.12664 8.6172 2.07633C8.73851 2.02602 8.86855 2.00012 8.99989 2.00012C9.13122 2.00012 9.26126 2.02602 9.38257 2.07633C9.50389 2.12664 9.61409 2.20037 9.70688 2.29332Z" fill="#1C1D1E"/>
</svg>
