<svg width="16" height="16" viewBox="0 0 16 16" fill="none" xmlns="http://www.w3.org/2000/svg">
<path d="M9.76581 11.0382C9.76581 11.9907 8.99067 12.7658 8.03818 12.7658C7.08568 12.7658 6.31054 11.9907 6.31054 11.0382C6.31055 10.0857 7.08568 9.31055 8.03818 9.31055C8.99067 9.31055 9.76581 10.0857 9.76581 11.0382Z" fill="#611D69"/>
<path fill-rule="evenodd" clip-rule="evenodd" d="M12.1526 4.12105C12.1526 1.84511 10.3128 0.00794874 8.03978 8.67865e-07L8.03811 8.67572e-07C5.76216 4.69634e-07 3.92501 1.83899 3.91706 4.11197C3.91567 4.50869 4.23616 4.83143 4.63288 4.83282C5.02961 4.8342 5.35234 4.51372 5.35373 4.11699C5.35892 2.633 6.5559 1.43735 8.03686 1.43668C9.52068 1.44254 10.7159 2.63994 10.7159 4.12105L10.7159 6.86023C9.94342 6.36407 9.02434 6.0763 8.03804 6.0763C5.29768 6.0763 3.07617 8.29781 3.07617 11.0382C3.07617 13.7785 5.29768 16 8.03804 16.0001C10.7784 16.0001 12.9999 13.7785 12.9999 11.0382C12.9999 10.0106 12.6875 9.05596 12.1526 8.26406L12.1526 4.12105ZM8.03804 7.51298C6.09113 7.51298 4.51285 9.09126 4.51285 11.0382C4.51285 12.9851 6.09113 14.5634 8.03804 14.5634C9.98496 14.5634 11.5632 12.9851 11.5632 11.0382C11.5632 9.09127 9.98496 7.51298 8.03804 7.51298Z" fill="#611D69"/>
</svg>
