<svg width="16" height="16" viewBox="0 0 16 16" fill="none" xmlns="http://www.w3.org/2000/svg">
<path fill-rule="evenodd" clip-rule="evenodd" d="M2.456 9.38525V11.4759C2.456 11.8373 2.59957 12.1839 2.85512 12.4395C3.11067 12.695 3.45727 12.8386 3.81867 12.8386H12.1813C12.5427 12.8386 12.8893 12.695 13.1449 12.4395C13.4004 12.1839 13.544 11.8373 13.544 11.4759V9.38525H15V11.4759C15 12.2235 14.703 12.9404 14.1744 13.469C13.6458 13.9976 12.9289 14.2946 12.1813 14.2946H3.81867C3.07111 14.2946 2.35417 13.9976 1.82557 13.469C1.29697 12.9404 1 12.2235 1 11.4759V9.38525H2.456Z" fill="#1C1D1E"/>
<path fill-rule="evenodd" clip-rule="evenodd" d="M8.72672 3.48546L8.72672 10.0906L7.27072 10.0906L7.27072 3.48546L4.33216 6.42402L3.30261 5.39447L7.48394 1.21314C7.76825 0.928834 8.22919 0.928834 8.51349 1.21314L12.6948 5.39447L11.6653 6.42402L8.72672 3.48546Z" fill="#1C1D1E"/>
</svg>
