<svg width="16" height="16" viewBox="0 0 16 16" fill="none" xmlns="http://www.w3.org/2000/svg">
<path d="M6.29312 13.7069L1.2932 8.707C1.20025 8.61421 1.12651 8.50401 1.0762 8.3827C1.02589 8.26138 0.999999 8.13134 0.999999 8.00001C0.999999 7.86868 1.02589 7.73863 1.0762 7.61732C1.12651 7.49601 1.20025 7.3858 1.2932 7.29302L6.29313 2.29309C6.38597 2.20025 6.49619 2.1266 6.6175 2.07635C6.7388 2.02611 6.86881 2.00025 7.00011 2.00025C7.13142 2.00025 7.26143 2.02611 7.38274 2.07635C7.50404 2.1266 7.61426 2.20025 7.7071 2.29309C7.79995 2.38593 7.8736 2.49615 7.92384 2.61746C7.97409 2.73877 7.99995 2.86878 7.99995 3.00008C7.99995 3.13138 7.97409 3.26139 7.92384 3.3827C7.87359 3.50401 7.79995 3.61423 7.7071 3.70707L4.41415 7.00002L14 7.00002C14.2652 7.00002 14.5196 7.10538 14.7071 7.29291C14.8946 7.48045 15 7.7348 15 8.00001C15 8.26522 14.8946 8.51957 14.7071 8.70711C14.5196 8.89464 14.2652 9 14 9L4.41415 8.99999L7.7071 12.2929C7.80029 12.3856 7.87424 12.4958 7.9247 12.6171C7.97516 12.7384 8.00113 12.8685 8.00113 12.9999C8.00113 13.1313 7.97516 13.2615 7.9247 13.3828C7.87424 13.5041 7.80029 13.6143 7.7071 13.7069C7.61432 13.7999 7.50411 13.8736 7.3828 13.9239C7.26149 13.9742 7.13144 14.0001 7.00011 14.0001C6.86878 14.0001 6.73874 13.9742 6.61743 13.9239C6.49611 13.8736 6.38591 13.7999 6.29312 13.7069Z" fill="#1C1D1E"/>
</svg>
