<svg width="16" height="16" viewBox="0 0 16 16" fill="none" xmlns="http://www.w3.org/2000/svg">
<path d="M15 2V4.2172C13.8027 4.57195 12.8715 5.2371 12.162 6.21267C11.4968 7.0552 11.1864 8.03077 11.1864 9.09502C11.3638 9.00633 11.7186 8.96199 12.162 8.96199C12.9158 8.96199 13.581 9.18371 14.1131 9.71584C14.6009 10.248 14.867 10.8688 14.867 11.667C14.867 12.4652 14.5566 13.1303 14.0244 13.6624C13.4923 14.1502 12.8271 14.4163 11.9846 14.4163C10.9647 14.4163 10.1665 13.9729 9.5457 13.1747C8.96923 12.3765 8.70317 11.3122 8.70317 10.0706C8.70317 8.07511 9.23529 6.3457 10.3882 4.9267C11.5412 3.46335 13.0489 2.48778 15 2ZM7.29683 2V4.2172C6.09955 4.57195 5.16833 5.2371 4.50317 6.16833C3.79367 7.0552 3.48326 8.03077 3.48326 9.09502C3.66063 9.00633 4.01539 8.96199 4.50317 8.96199C5.21267 8.96199 5.83348 9.18371 6.36561 9.71584C6.89774 10.248 7.1638 10.8688 7.1638 11.667C7.1638 12.4652 6.89774 13.1303 6.40995 13.6624C5.87783 14.1502 5.16833 14.4163 4.28145 14.4163C3.26154 14.4163 2.46335 13.9729 1.88688 13.1747C1.26606 12.3765 1 11.3566 1 10.0706C1 8.07511 1.57647 6.3457 2.72941 4.9267C3.83801 3.46335 5.3457 2.48778 7.29683 2Z" fill="#1C1D1E"/>
</svg>
