<svg width="16" height="16" viewBox="0 0 16 16" fill="none" xmlns="http://www.w3.org/2000/svg">
<path d="M11.5391 13.8276V13.8296C11.5377 13.8318 11.5344 13.8358 11.5312 13.8403C11.5084 13.8733 11.477 13.8989 11.4336 13.9146C11.4008 13.9263 11.3624 13.9321 11.3223 13.936C11.239 13.9442 11.096 13.9487 10.8447 13.9517C10.3377 13.9576 9.36467 13.9565 7.48535 13.9565C6.24159 13.9566 5.2723 13.955 4.60352 13.9526C4.26923 13.9515 4.00941 13.9504 3.82812 13.9487C3.65363 13.9471 3.54042 13.9451 3.50977 13.9419C3.17276 13.9061 2.88233 13.7903 2.62988 13.5884C2.24091 13.2772 2.02052 12.8814 1.97266 12.397C1.9696 12.3659 1.96843 12.2315 1.9668 12.0181C1.96511 11.7984 1.96306 11.4828 1.96191 11.0767C1.95961 10.264 1.95898 9.08776 1.95898 7.59033V2.95654L1.93555 2.86865C1.89083 2.6999 1.81834 2.5699 1.70801 2.45459C1.55074 2.29036 1.31135 2.18671 1.0791 2.18408C1.01402 2.18338 0.951409 2.17936 0.895508 2.16162C0.832039 2.14142 0.785341 2.10666 0.74707 2.06201C0.670669 1.97278 0.634871 1.86016 0.65625 1.74756C0.677621 1.63533 0.751782 1.54399 0.854492 1.48779L0.894531 1.47217L0.921875 1.46826C0.928815 1.46772 0.937026 1.46763 0.945312 1.46729C0.962261 1.46658 0.98576 1.46595 1.01465 1.46533C1.07312 1.46409 1.158 1.46349 1.26367 1.4624C1.47513 1.46023 1.77489 1.45814 2.13379 1.45654C2.85223 1.45334 3.80871 1.45136 4.77051 1.45068C5.73229 1.45001 6.69976 1.45046 7.44043 1.45264C7.81062 1.45372 8.12442 1.45468 8.35254 1.45654C8.57362 1.45835 8.72588 1.46084 8.7627 1.46436C9.16918 1.50443 9.48328 1.64932 9.78516 1.93408C10.0184 2.1541 10.1796 2.42591 10.2637 2.73877C10.3095 2.90932 10.3206 3.06338 10.3223 3.99951V4.1499H9.58887V4.00049C9.58837 3.47081 9.58704 3.20143 9.58301 3.0542C9.57905 2.90994 9.57232 2.89465 9.56543 2.86865C9.47453 2.52606 9.23766 2.29213 8.90137 2.2085C8.8665 2.19983 8.8543 2.19155 8.41016 2.18799C7.97289 2.18448 7.12986 2.18504 5.45117 2.18506C4.52339 2.18507 3.67907 2.18575 3.06641 2.18701C2.78095 2.1876 2.54584 2.18723 2.37598 2.18799C2.54717 2.42767 2.64817 2.70078 2.67871 3.01025C2.68178 3.04138 2.68391 3.17519 2.68555 3.38818C2.68724 3.60751 2.68928 3.92278 2.69043 4.32861C2.69273 5.14056 2.69338 6.31696 2.69336 7.81689V12.4478L2.7168 12.5376C2.80683 12.8773 3.0375 13.1087 3.37695 13.1987C3.40772 13.2069 3.41395 13.2147 3.85742 13.2183C4.29304 13.2218 5.13719 13.2221 6.8252 13.2222C7.75459 13.2222 8.60021 13.2214 9.21387 13.2202C9.50082 13.2197 9.73697 13.219 9.90723 13.2183C9.7274 12.9706 9.63228 12.7095 9.60254 12.3833C9.60022 12.3572 9.59888 12.2183 9.59766 12.019C9.59639 11.8127 9.59568 11.5286 9.59473 11.2007V11.0503H10.3291L10.3301 11.1997C10.3322 11.5811 10.3354 11.9148 10.3389 12.1577C10.3406 12.2792 10.3416 12.3778 10.3438 12.4478C10.3448 12.4826 10.3466 12.5099 10.3477 12.5288C10.3479 12.5339 10.3474 12.5381 10.3477 12.5415C10.4576 12.9495 10.7975 13.2167 11.1992 13.2222C11.2384 13.2227 11.2782 13.2253 11.3115 13.229C11.328 13.2308 11.345 13.2338 11.3604 13.2368C11.37 13.2387 11.3978 13.244 11.4238 13.2583C11.5259 13.3148 11.6032 13.405 11.626 13.5181C11.6484 13.6298 11.6123 13.7393 11.5391 13.8276Z" fill="#1C1D1E" stroke="#1C1D1E" stroke-width="0.3"/>
<path fill-rule="evenodd" clip-rule="evenodd" d="M9.49789 6.00667C9.06423 6.00667 8.64834 6.16061 8.34169 6.43461C8.03505 6.70861 7.86278 7.08024 7.86278 7.46774C7.86278 7.85524 8.03505 8.22687 8.34169 8.50087C8.64834 8.77487 9.06423 8.9288 9.49789 8.9288H12.6187L11.3028 7.75296C11.1265 7.59544 11.1265 7.34004 11.3028 7.18252C11.4791 7.025 11.7649 7.025 11.9412 7.18252L14.0277 9.04695C14.1124 9.12259 14.16 9.22519 14.16 9.33216C14.16 9.43914 14.1124 9.54174 14.0277 9.61738L11.9412 11.4818C11.7649 11.6393 11.4791 11.6393 11.3028 11.4818C11.1265 11.3243 11.1265 11.0689 11.3028 10.9114L12.6187 9.73553H9.49789C8.82479 9.73553 8.17926 9.4966 7.7033 9.07131C7.22735 8.64601 6.95996 8.06919 6.95996 7.46774C6.95996 6.86628 7.22735 6.28946 7.7033 5.86417C8.17926 5.43888 8.82479 5.19995 9.49789 5.19995H9.94679C10.1961 5.19995 10.3982 5.38054 10.3982 5.60331C10.3982 5.82608 10.1961 6.00667 9.94679 6.00667H9.49789Z" fill="#1C1D1E"/>
</svg>
