<svg width="16" height="16" viewBox="0 0 16 16" fill="none" xmlns="http://www.w3.org/2000/svg">
<path fill-rule="evenodd" clip-rule="evenodd" d="M7.32593 2.86667C4.86314 2.86667 2.86667 4.86314 2.86667 7.32593C2.86667 9.78871 4.86314 11.7852 7.32593 11.7852C8.521 11.7852 9.60627 11.3151 10.4069 10.5497C10.4278 10.5237 10.4504 10.4986 10.4745 10.4745C10.4986 10.4503 10.5237 10.4278 10.5497 10.4069C11.3151 9.60626 11.7852 8.52099 11.7852 7.32593C11.7852 4.86314 9.78871 2.86667 7.32593 2.86667ZM12.4103 11.0904C13.1904 10.0385 13.6519 8.7361 13.6519 7.32593C13.6519 3.83221 10.8196 1 7.32593 1C3.83221 1 1 3.83221 1 7.32593C1 10.8196 3.83221 13.6519 7.32593 13.6519C8.7361 13.6519 10.0385 13.1904 11.0904 12.4103L13.4067 14.7266C13.7712 15.0911 14.3621 15.0911 14.7266 14.7266C15.0911 14.3621 15.0911 13.7712 14.7266 13.4067L12.4103 11.0904Z" fill="#1C1D1E"/>
</svg>
