<svg width="16" height="16" viewBox="0 0 16 16" fill="none" xmlns="http://www.w3.org/2000/svg">
<path d="M3.85017 8.30366L1.15788 5.61136C1.10783 5.5614 1.06812 5.50206 1.04103 5.43674C1.01394 5.37142 1 5.30139 1 5.23067C1 5.15996 1.01394 5.08993 1.04103 5.02461C1.06812 4.95929 1.10783 4.89995 1.15788 4.84998L3.85017 2.15769C3.90017 2.10769 3.95952 2.06804 4.02484 2.04098C4.09015 2.01393 4.16016 2 4.23086 2C4.30156 2 4.37157 2.01393 4.43689 2.04098C4.50221 2.06804 4.56156 2.10769 4.61155 2.15769C4.66155 2.20768 4.7012 2.26703 4.72826 2.33235C4.75532 2.39767 4.76924 2.46768 4.76924 2.53838C4.76924 2.60908 4.75532 2.67909 4.72826 2.74441C4.7012 2.80973 4.66155 2.86908 4.61155 2.91907L2.83841 4.69222L10.1539 4.69222C10.2967 4.69222 10.4337 4.74895 10.5347 4.84993C10.6357 4.95091 10.6924 5.08787 10.6924 5.23067C10.6924 5.37348 10.6357 5.51044 10.5347 5.61142C10.4337 5.7124 10.2967 5.76913 10.1539 5.76913L2.83841 5.76913L4.61155 7.54228C4.66173 7.59217 4.70155 7.65149 4.72872 7.71682C4.75589 7.78215 4.76988 7.85221 4.76988 7.92297C4.76988 7.99373 4.75589 8.06379 4.72872 8.12912C4.70155 8.19445 4.66173 8.25377 4.61155 8.30366C4.56159 8.35371 4.50225 8.39341 4.43693 8.4205C4.3716 8.44759 4.30158 8.46154 4.23086 8.46154C4.16015 8.46154 4.09012 8.44759 4.0248 8.4205C3.95948 8.39341 3.90014 8.35371 3.85017 8.30366Z" fill="#1C1D1E"/>
<path d="M12.1498 7.46563L14.8421 10.1579C14.8922 10.2079 14.9319 10.2672 14.959 10.3325C14.9861 10.3979 15 10.4679 15 10.5386C15 10.6093 14.9861 10.6794 14.959 10.7447C14.9319 10.81 14.8922 10.8693 14.8421 10.9193L12.1498 13.6116C12.0998 13.6616 12.0405 13.7012 11.9752 13.7283C11.9098 13.7554 11.8398 13.7693 11.7691 13.7693C11.6984 13.7693 11.6284 13.7554 11.5631 13.7283C11.4978 13.7012 11.4384 13.6616 11.3884 13.6116C11.3385 13.5616 11.2988 13.5023 11.2717 13.4369C11.2447 13.3716 11.2308 13.3016 11.2308 13.2309C11.2308 13.1602 11.2447 13.0902 11.2717 13.0249C11.2988 12.9596 11.3385 12.9002 11.3884 12.8502L13.1616 11.0771L5.84608 11.0771C5.70327 11.0771 5.56631 11.0203 5.46533 10.9194C5.36435 10.8184 5.30762 10.6814 5.30762 10.5386C5.30762 10.3958 5.36435 10.2588 5.46533 10.1579C5.56631 10.0569 5.70327 10.0002 5.84608 10.0002L13.1616 10.0002L11.3884 8.22701C11.3383 8.17712 11.2985 8.1178 11.2713 8.05247C11.2441 7.98713 11.2301 7.91708 11.2301 7.84632C11.2301 7.77556 11.2441 7.7055 11.2713 7.64017C11.2985 7.57483 11.3383 7.51552 11.3884 7.46563C11.4384 7.41558 11.4977 7.37587 11.5631 7.34878C11.6284 7.32169 11.6984 7.30775 11.7691 7.30775C11.8399 7.30775 11.9099 7.32169 11.9752 7.34878C12.0405 7.37587 12.0999 7.41558 12.1498 7.46563Z" fill="#1C1D1E"/>
</svg>
