<svg width="16" height="16" viewBox="0 0 16 16" fill="none" xmlns="http://www.w3.org/2000/svg">
<path d="M2.2932 6.29313L7.29312 1.2932C7.38591 1.20025 7.49611 1.12652 7.61743 1.07621C7.73874 1.0259 7.86878 1 8.00011 1C8.13145 1 8.26149 1.0259 8.3828 1.07621C8.50411 1.12652 8.61432 1.20025 8.7071 1.2932L13.707 6.29312C13.7999 6.38597 13.8735 6.49619 13.9238 6.61749C13.974 6.7388 13.9999 6.86881 13.9999 7.00011C13.9999 7.13141 13.974 7.26143 13.9238 7.38273C13.8735 7.50404 13.7999 7.61426 13.707 7.7071C13.6142 7.79995 13.504 7.87359 13.3827 7.92384C13.2614 7.97409 13.1313 7.99995 13 7.99995C12.8687 7.99995 12.7387 7.97409 12.6174 7.92384C12.4961 7.87359 12.3859 7.79995 12.2931 7.7071L9.0001 4.41415L9.0001 14C9.0001 14.2652 8.89475 14.5196 8.70721 14.7071C8.51968 14.8946 8.26533 15 8.00012 15C7.7349 15 7.48055 14.8946 7.29302 14.7071C7.10549 14.5196 7.00013 14.2652 7.00013 14L7.00013 4.41415L3.70718 7.70711C3.61452 7.80029 3.50437 7.87424 3.38303 7.9247C3.2617 7.97516 3.13159 8.00114 3.00019 8.00114C2.86878 8.00114 2.73867 7.97516 2.61734 7.9247C2.49601 7.87424 2.38585 7.80029 2.2932 7.70711C2.20025 7.61432 2.12652 7.50412 2.07621 7.3828C2.0259 7.26149 2 7.13145 2 7.00012C2 6.86878 2.0259 6.73874 2.07621 6.61743C2.12652 6.49612 2.20025 6.38591 2.2932 6.29313Z" fill="#1C1D1E"/>
</svg>
