<svg width="16" height="16" viewBox="0 0 16 16" fill="none" xmlns="http://www.w3.org/2000/svg">
<path fill-rule="evenodd" clip-rule="evenodd" d="M8.62009 9.11713L8.62009 14.7432L7.37991 14.7432L7.37991 9.11713L4.87694 11.6201L4 10.7432L7.56153 7.18163C7.80369 6.93947 8.19631 6.93947 8.43847 7.18163L12 10.7432L11.1231 11.6201L8.62009 9.11713Z" fill="#1C1D1E"/>
<path d="M5.30272 1.94095C5.96385 1.42362 6.76036 1.10477 7.59239 1.02469C7.93138 0.991976 8.03795 0.991976 8.37194 1.02347C8.77086 1.06131 9.01842 1.11356 9.4027 1.24124C10.5282 1.61478 11.4482 2.4368 11.9639 3.52982C12.0812 3.77835 12.2301 4.20413 12.2709 4.40677C12.2728 4.41631 12.2743 4.42499 12.2757 4.43292C12.2798 4.45608 12.2827 4.4729 12.2911 4.48634C12.3134 4.52206 12.3742 4.53374 12.5967 4.57652C12.625 4.58197 12.656 4.58793 12.6899 4.59452C13.2532 4.70389 13.7181 4.9578 14.1539 5.39359C14.5763 5.81595 14.7993 6.20706 14.9427 6.77713C14.991 6.96878 15.0012 7.08792 14.9999 7.44852C14.9985 7.83011 14.9892 7.92142 14.9276 8.15286C14.6597 9.15849 13.9029 9.94188 12.9167 10.2362L11.8557 9.17518C12.4312 9.16093 12.5866 9.13106 12.7273 9.06815C12.7572 9.05468 12.7866 9.03973 12.8192 9.02312C12.8379 9.01356 12.8578 9.00341 12.8795 8.99271C13.0619 8.90286 13.1598 8.83036 13.3326 8.65653C13.6778 8.3096 13.8378 7.92606 13.8386 7.4429C13.8391 7.13578 13.8005 6.97147 13.6578 6.67411C13.438 6.21585 13.0032 5.86649 12.5099 5.75174C12.4044 5.72708 12.0962 5.69193 11.8248 5.67362L11.3315 5.63993L11.2181 5.08744C11.1326 4.67044 11.0641 4.39896 10.9755 4.17142C10.8987 3.97464 10.8069 3.81082 10.6758 3.61429C10.2119 2.91873 9.53722 2.45194 8.713 2.25589C8.4215 2.18656 7.82701 2.15872 7.55419 2.20145C6.9663 2.29422 6.41515 2.53861 5.96532 2.90677C5.60692 3.19998 5.33885 3.55374 5.03624 4.1326L4.86437 4.46146L4.43126 4.50907C3.76842 4.58182 3.37767 4.73319 2.96605 5.07718C2.22789 5.69388 1.96056 6.80545 2.32885 7.72537C2.6317 8.48148 3.32579 9.03201 4.13817 9.16019C4.14195 9.16079 4.14716 9.16139 4.15378 9.16197L3.21658 10.1081C2.09595 9.66161 1.30733 8.73063 1.05101 7.51712C0.98241 7.19266 0.983142 6.49686 1.05236 6.17533C1.2058 5.46244 1.52123 4.87503 2.01696 4.37796C2.52562 3.86795 3.21776 3.5076 3.89122 3.4014L4.1129 3.36673L4.20775 3.19705C4.44152 2.77933 4.8922 2.26224 5.30272 1.94095Z" fill="#1C1D1E"/>
</svg>
