<svg width="16" height="16" viewBox="0 0 16 16" fill="none" xmlns="http://www.w3.org/2000/svg">
<path fill-rule="evenodd" clip-rule="evenodd" d="M2.2995 4.80198C2.2995 4.52475 2.52475 4.2995 2.80198 4.2995H9.15223C9.43812 4.2995 9.66337 4.52475 9.66337 4.80198V7.68688V10.5718C9.66337 10.849 9.43812 11.0743 9.16089 11.0743H2.80198C2.52475 11.0743 2.2995 10.849 2.2995 10.5718V4.80198ZM10.9629 6.43069V4.80198C10.9629 3.80569 10.1572 3 9.16089 3H2.80198C1.80569 3 1 3.80569 1 4.80198V10.5804C1 11.5767 1.80569 12.3824 2.80198 12.3824H9.15223C10.1485 12.3824 10.9542 11.5767 10.9542 10.5804V8.95173L13.9691 11.1089C14.1683 11.2475 14.4282 11.2735 14.6448 11.1609C14.8614 11.0483 15 10.823 15 10.5804V4.80198C15 4.55941 14.8614 4.33416 14.6448 4.22153C14.4282 4.10891 14.1683 4.12624 13.9691 4.27351L10.9629 6.43069ZM13.7092 9.31559L11.4307 7.68688L13.7092 6.05817V9.31559Z" fill="#1C1D1E"/>
</svg>
