<svg width="16" height="16" viewBox="0 0 16 16" fill="none" xmlns="http://www.w3.org/2000/svg">
<path fill-rule="evenodd" clip-rule="evenodd" d="M3 1.5C3 1.22386 3.22386 1 3.5 1H13.5C13.7761 1 14 1.22386 14 1.5C14 1.77614 13.7761 2 13.5 2L12.8684 2C12.5923 2 12.3684 2.22386 12.3684 2.5L12.3684 4.68421C12.3684 6.14249 11.5212 7.40289 10.292 8C11.5212 8.5971 12.3684 9.8575 12.3684 11.3158V13.5C12.3684 13.7761 12.5923 14 12.8684 14L13.5 14C13.7761 14 14 14.2239 14 14.5C14 14.7761 13.7761 15 13.5 15H3.5C3.22386 15 3 14.7761 3 14.5C3 14.2239 3.22386 14 3.5 14L4.5 14C4.77614 14 5 13.7761 5 13.5V11.3158C5 9.85751 5.84725 8.59711 7.07636 8C5.84725 7.4029 4.99999 6.1425 4.99999 4.68421L4.99999 2.5C4.99999 2.22386 4.77613 2 4.49999 2L3.5 2C3.22386 2 3 1.77614 3 1.5ZM5.99999 4.68421L5.99999 2.5C5.99999 2.22386 6.22385 2 6.49999 2L10.8684 2C11.1446 2 11.3684 2.22386 11.3684 2.5L11.3684 4.68421C11.3684 6.16666 10.1666 7.36842 8.6842 7.36842C7.20175 7.36842 5.99999 6.16666 5.99999 4.68421ZM11.3684 11.3158V13.5C11.3684 13.7761 11.1446 14 10.8684 14H6.5C6.22386 14 6 13.7761 6 13.5V11.3158C6 9.83334 7.20176 8.63158 8.68421 8.63158C10.1667 8.63158 11.3684 9.83334 11.3684 11.3158Z" fill="#1C1D1E"/>
</svg>
