<svg width="16" height="16" viewBox="0 0 16 16" fill="none" xmlns="http://www.w3.org/2000/svg">
<path fill-rule="evenodd" clip-rule="evenodd" d="M13 9.5H7C6.72386 9.5 6.5 9.27614 6.5 9V3C6.5 2.72386 6.72386 2.5 7 2.5H13C13.2761 2.5 13.5 2.72386 13.5 3V9C13.5 9.27614 13.2761 9.5 13 9.5ZM7 11C5.89543 11 5 10.1046 5 9V3C5 1.89543 5.89543 1 7 1H13C14.1046 1 15 1.89543 15 3V9C15 10.1046 14.1046 11 13 11H7Z" fill="#1C1D1E"/>
<path d="M3 13.5H9C9.27614 13.5 9.5 13.2761 9.5 13V12H11V13C11 14.1046 10.1046 15 9 15H3C1.89543 15 1 14.1046 1 13V7C1 5.89543 1.89543 5 3 5H4V6.5H3C2.72386 6.5 2.5 6.72386 2.5 7V13C2.5 13.2761 2.72386 13.5 3 13.5Z" fill="#1C1D1E"/>
</svg>
